<svg width="52" height="20" viewBox="0 0 52 20" fill="none" xmlns="http://www.w3.org/2000/svg">
<path fill-rule="evenodd" clip-rule="evenodd" d="M23.7828 4.04815C24.4645 4.04815 24.8824 4.71548 24.6185 5.33833L20.4842 15.4813C19.6705 17.4611 18.417 19.1072 17.4273 19.7078C17.1414 19.8855 16.8775 19.9747 16.6356 19.9747C16.1738 19.9747 15.7559 19.641 15.7559 19.1294C15.7559 18.7735 15.8879 18.5066 16.1738 18.3506C17.3394 17.6613 18.1971 16.549 18.7249 14.9922L14.5466 5.33833C14.2827 4.69324 14.7006 4.04815 15.3823 4.04815C15.734 4.04815 16.0198 4.27059 16.218 4.69324L19.6265 12.6343C19.6925 12.7455 19.7362 12.7455 19.8025 12.6343L22.9031 4.75997C23.079 4.29284 23.3649 4.04815 23.7828 4.04815ZM6.86648 4.00704C7.71586 3.84318 8.59456 3.81821 9.50747 3.97714C11.378 4.30982 12.6049 5.42204 12.8849 7.19468C13.1156 8.65441 13.1647 10.1888 12.9585 11.6485C12.6149 14.0269 10.622 15.3974 8.11831 15.179C7.21493 15.0994 6.3267 14.8611 5.34488 14.6772L5.34499 15.1316C5.34503 15.2076 5.34507 15.2836 5.34512 15.3596L5.34547 15.8149C5.3458 16.193 5.34622 16.5667 5.34654 16.9259L5.34698 17.5545C5.34707 17.7574 5.34709 17.9529 5.347 18.1387L5.34667 18.497C5.34634 18.7265 5.34577 18.9364 5.34488 19.1214H5.34C5.32509 19.5732 4.9373 19.9356 4.46594 19.9356C3.99482 19.9356 3.61192 19.5732 3.59237 19.1214H3.58748V19.0866C3.58651 18.3805 3.58612 17.6293 3.586 16.8501L3.58599 15.6624C3.58601 15.4617 3.58603 15.2597 3.58606 15.0568L3.58608 11.9748C3.58553 10.3284 3.58357 8.70616 3.57771 7.24436C2.87079 7.58692 2.17365 7.94456 1.49141 8.31679C0.897135 8.63958 0.40647 8.55999 0.136458 8.0983C-0.153103 7.61164 0.018679 7.1052 0.646916 6.7577C2.3161 5.86891 3.04257 5.48655 4.05371 5.03968C4.17638 4.99025 4.31395 4.96034 4.46105 4.96529C4.94707 4.97517 5.34488 5.36247 5.34488 5.82442V7.18479C5.33022 7.96434 5.34 8.74882 5.34 9.52837C5.34 10.4916 5.35466 11.455 5.33022 12.4182C5.3202 12.7459 5.44287 12.9098 5.74245 13.0388C6.70961 13.4609 7.72075 13.6693 8.781 13.5801C10.1604 13.4609 11.0391 12.736 11.1913 11.4152C11.3189 10.3477 11.3631 9.25031 11.27 8.18283C11.1227 6.51449 10.4157 5.75472 9.01167 5.51151C8.38344 5.39732 7.78452 5.43687 7.20027 5.57108C7.14138 5.58591 7.08249 5.59579 7.01872 5.59579C6.5867 5.60568 6.18913 5.20849 6.1989 4.77646C6.20868 4.37927 6.48358 4.07155 6.86648 4.00704ZM47.338 3.87032C48.6136 3.87032 49.6694 4.18174 50.4829 4.82683C50.9007 5.16049 50.8787 5.80558 50.5929 6.07227C50.285 6.42818 49.8891 6.47267 49.4053 6.18349C48.6578 5.73885 47.9541 5.51641 47.2723 5.51641C45.7329 5.51641 44.9632 6.09476 44.9632 7.25123C44.9632 7.98529 45.425 8.43018 46.6783 8.7861L47.7999 9.05303L48.5036 9.23099C50.4609 9.74261 51.4285 10.7881 51.4285 12.3672C51.4285 14.5249 49.7352 15.9263 47.1624 15.9263C45.5569 15.9263 44.2374 15.5034 43.2478 14.6804C42.8962 14.3912 42.8299 13.8351 43.0718 13.4794C43.4017 13.0345 43.8196 12.9678 44.3036 13.3015C45.2051 13.9911 45.8868 14.3025 47.3163 14.3025C48.7895 14.3025 49.6694 13.5239 49.6694 12.4562C49.6694 11.6776 49.0754 11.144 47.9098 10.8548C46.8765 10.6101 46.3487 10.4989 46.3267 10.4767C44.2594 9.94281 43.2258 8.89732 43.2258 7.31796C43.2258 5.20474 44.8972 3.87032 47.338 3.87032ZM34.7894 4.04832C35.295 4.04832 35.6471 4.44872 35.6471 4.91561C35.6471 5.13805 35.5809 5.33825 35.4269 5.53845L32.0846 9.83164L35.6031 14.347C35.757 14.5027 35.823 14.7029 35.823 14.9474C35.823 15.3925 35.4491 15.8149 34.9433 15.8149C34.6574 15.8149 34.4155 15.7039 34.2396 15.4812L30.941 11.2108L27.9086 15.4812C27.7327 15.7039 27.4908 15.8149 27.1829 15.8149C26.677 15.8149 26.3034 15.3925 26.3034 14.9251C26.3034 14.7029 26.3692 14.5027 26.5231 14.347L30.0638 9.80939L26.6993 5.51646C26.5453 5.3605 26.4791 5.16054 26.4791 4.91561C26.4791 4.47097 26.897 4.04832 27.3588 4.04832C27.6447 4.04832 27.8866 4.15954 28.0625 4.38199L30.9188 8.40799L34.0197 4.40423C34.1956 4.15954 34.4595 4.04832 34.7894 4.04832ZM39.35 4.026C39.8558 4.026 40.2516 4.44865 40.2516 4.96027V14.8808C40.2516 15.4147 39.8778 15.8148 39.35 15.8148C38.8881 15.8148 38.4703 15.4147 38.4703 14.8808V4.96027C38.4703 4.44865 38.8441 4.026 39.35 4.026ZM40.1197 0.333667C40.5595 0.756312 40.5595 1.46789 40.1197 1.91278C39.7018 2.35767 38.9981 2.35767 38.5802 1.91278C38.1624 1.46789 38.1624 0.756312 38.5802 0.333667C38.9981 -0.111222 39.7018 -0.111222 40.1197 0.333667Z" fill="#8334C2"/>
</svg>
