<svg xmlns="http://www.w3.org/2000/svg" viewBox="0 0 24 24" width="24" height="24"><path d="M16.709 22.811A6.06 6.06 0 0 1 11 14.713l-3.227-3.227-2.03-.312a.5.5 0 0 1-.419-.423L5.087 9.1H4.07a.5.5 0 0 1-.5-.5v-.572l-1.761-.24a.5.5 0 0 1-.433-.481l-.152-5.53a.501.501 0 0 1 .487-.514l2.896-.074a.526.526 0 0 1 .366.146l9.702 9.702a6.063 6.063 0 1 1 2.033 11.774zM6.261 10.243l1.826.28a.496.496 0 0 1 .277.141l3.573 3.573a.5.5 0 0 1 .107.547 5.065 5.065 0 1 0 2.702-2.702.501.501 0 0 1-.547-.107l-9.78-9.782-2.18.057.126 4.605 1.772.242a.499.499 0 0 1 .433.495V8.1h.95a.5.5 0 0 1 .495.429zm11.816 9.767a1.896 1.896 0 1 1 1.342-.555 1.891 1.891 0 0 1-1.342.555zm0-2.794a.897.897 0 0 0-.635 1.532.918.918 0 0 0 1.27 0 .897.897 0 0 0-.635-1.532z"/></svg>