<svg xmlns="http://www.w3.org/2000/svg" viewBox="0 0 24 24" width="24" height="24"><path d="M11.99 6.517a4.589 4.589 0 0 0-4.352 4.36.5.5 0 0 0 1 0 3.635 3.635 0 0 1 3.352-3.36.5.5 0 1 0 0-1zm7.734 11.852v-.036a2.495 2.495 0 0 0-1.778-2.381v-5.074a5.955 5.955 0 0 0-11.91 0v5.09a2.495 2.495 0 0 0-1.727 2.365v.036a2.495 2.495 0 0 0-1.752 2.373v.192a2.503 2.503 0 0 0 2.5 2.5h13.92a2.503 2.503 0 0 0 2.5-2.5v-.192a2.495 2.495 0 0 0-1.752-2.373zM7.036 10.878a4.955 4.955 0 0 1 9.91 0v4.955h-9.91zm-.227 5.955h10.415a1.502 1.502 0 0 1 1.497 1.409H5.312a1.502 1.502 0 0 1 1.497-1.409zm13.668 4.102a1.502 1.502 0 0 1-1.5 1.5H5.057a1.502 1.502 0 0 1-1.5-1.5v-.192a1.502 1.502 0 0 1 1.5-1.5h13.92a1.502 1.502 0 0 1 1.5 1.5zm-8.46-16.857a.5.5 0 0 0 .5-.5V1.065a.5.5 0 1 0-1 0v2.513a.5.5 0 0 0 .5.5zm5.287 1.627a.498.498 0 0 0 .354-.146l1.776-1.776a.5.5 0 1 0-.707-.707l-1.776 1.776a.5.5 0 0 0 .354.854zM6.375 5.558a.5.5 0 0 0 .707-.707L5.306 3.075a.5.5 0 1 0-.707.707zm15.123 3.205h-2.512a.5.5 0 0 0 0 1h2.512a.5.5 0 0 0 0-1zm-15.983.5a.5.5 0 0 0-.5-.5H2.503a.5.5 0 1 0 0 1h2.512a.5.5 0 0 0 .5-.5z"/></svg>