<svg xmlns="http://www.w3.org/2000/svg" viewBox="0 0 24 24" width="24" height="24"><path d="M11.887 15.688a.5.5 0 0 1-.5-.5v-5.95a.5.5 0 0 1 1 0v5.949a.5.5 0 0 1-.5.5zm0 3.219a.5.5 0 0 1-.5-.5v-.711a.5.5 0 0 1 1 0v.711a.5.5 0 0 1-.5.5zm.112 3.723a88.866 88.866 0 0 1-11.172-.705.5.5 0 0 1-.401-.683A86.638 86.638 0 0 1 9.917 3.799l1.561-2.217a.518.518 0 0 1 .817 0l2.085 2.962a86.658 86.658 0 0 1 8.795 15.77l.393.918a.5.5 0 0 1-.398.693l-.223.028a88.868 88.868 0 0 1-10.949.677zM1.601 21.013a87.897 87.897 0 0 0 20.788.001l-.131-.306A85.681 85.681 0 0 0 13.563 5.12l-1.677-2.381-1.152 1.636A85.681 85.681 0 0 0 1.6 21.014z"/></svg>