<svg xmlns="http://www.w3.org/2000/svg" viewBox="0 0 24 24" width="24" height="24"><circle cx="16.568" cy="9.772" r="1.228"/><circle cx="12" cy="9.772" r="1.228"/><circle cx="7.432" cy="9.772" r="1.228"/><path d="M1.542 21.95a.5.5 0 0 1-.5-.5V4.549a2.503 2.503 0 0 1 2.5-2.5h16.916a2.503 2.503 0 0 1 2.5 2.5v10.823a2.503 2.503 0 0 1-2.5 2.5H5.609l-3.704 3.921a.499.499 0 0 1-.363.157zm2-18.901a1.502 1.502 0 0 0-1.5 1.5v15.644l2.989-3.164a.499.499 0 0 1 .363-.157h15.064a1.502 1.502 0 0 0 1.5-1.5V4.549a1.502 1.502 0 0 0-1.5-1.5z"/></svg>