<svg xmlns="http://www.w3.org/2000/svg" viewBox="0 0 24 24" width="24" height="24"><path d="M17.219 16.484a10.057 10.057 0 0 1-.171-1.907 5.975 5.975 0 0 0-.983-3.81 5.249 5.249 0 0 0-2.952-1.785l.589-6.751a2 2 0 1 0-3.999.043l.588 6.718a5.318 5.318 0 0 0-2.934 1.774 5.975 5.975 0 0 0-.983 3.81 10.049 10.049 0 0 1-.171 1.906 7.773 7.773 0 0 1-.845 2.15 2.165 2.165 0 0 0-.005 2.185 2.103 2.103 0 0 0 1.841 1.058h2.047a2.548 2.548 0 0 0 4.924 0h2.063a2.103 2.103 0 0 0 1.841-1.058 2.164 2.164 0 0 0-.005-2.185 7.79 7.79 0 0 1-.844-2.15zM10.701 2.232a1.002 1.002 0 0 1 2.002-.043l-.582 6.655-.41-.021c-.145 0-.288.012-.431.022zm1.002 20.537a1.551 1.551 0 0 1-1.389-.892h2.78a1.545 1.545 0 0 1-1.391.892zm5.5-2.45a1.099 1.099 0 0 1-.976.559H7.194a1.099 1.099 0 0 1-.976-.559 1.174 1.174 0 0 1 .006-1.186 8.759 8.759 0 0 0 .953-2.427 10.911 10.911 0 0 0 .196-2.1 5.161 5.161 0 0 1 .762-3.211 4.587 4.587 0 0 1 3.577-1.573 4.582 4.582 0 0 1 3.574 1.573 5.161 5.161 0 0 1 .762 3.211 10.92 10.92 0 0 0 .196 2.1 8.776 8.776 0 0 0 .952 2.427 1.173 1.173 0 0 1 .006 1.186zm3.066-12.093a5.809 5.809 0 0 0-3.971-2.458.5.5 0 0 0-.142.99 4.763 4.763 0 0 1 4.094 5.193.5.5 0 0 0 .449.546l.049.002a.5.5 0 0 0 .497-.451 5.783 5.783 0 0 0-.977-3.823zm-4.264-.227a.5.5 0 1 0-.142.99 2.529 2.529 0 0 1 2.175 2.758.5.5 0 0 0 .449.546l.049.002a.5.5 0 0 0 .497-.451 3.53 3.53 0 0 0-3.029-3.846zM4.494 17.194a.501.501 0 0 0-.708-.004 3.531 3.531 0 0 0-.146 4.895.5.5 0 0 0 .742-.671 2.529 2.529 0 0 1 .107-3.512.501.501 0 0 0 .004-.708z"/></svg>