<svg xmlns="http://www.w3.org/2000/svg" viewBox="0 0 24 24" width="24" height="24"><path d="M6.755 4.014a.756.756 0 0 0-.775-.577.782.782 0 0 0-.782.577L3.62 8.418a.319.319 0 0 0-.016.106.311.311 0 0 0 .6.122l.562-1.587h2.421l.562 1.587a.297.297 0 0 0 .296.197.303.303 0 0 0 .304-.319.285.285 0 0 0-.016-.106zM4.978 6.466l.806-2.27a.204.204 0 0 1 .395 0l.797 2.27zm7.832 2.065a.312.312 0 0 0-.319-.296H9.728l2.749-3.803a.856.856 0 0 0 .175-.424.5.5 0 0 0-.555-.493h-2.71a.303.303 0 0 0-.311.311.299.299 0 0 0 .311.288h2.573l-2.771 3.84a.642.642 0 0 0-.151.38.504.504 0 0 0 .561.501h2.893a.299.299 0 0 0 .319-.304zm10.752 12.825l-2.897-2.897a.468.468 0 0 0-.051-.034 5.246 5.246 0 0 0-3.929-8.575V3.99a2.503 2.503 0 0 0-2.5-2.5H2.791a2.503 2.503 0 0 0-2.5 2.5v16.02a2.503 2.503 0 0 0 2.5 2.5h13.395a.5.5 0 0 0 .345-.862 2.678 2.678 0 0 1-.759-1.314 5.214 5.214 0 0 0 .747.076 5.24 5.24 0 0 0 3.414-1.283.458.458 0 0 0 .026.039l2.897 2.897a.5.5 0 0 0 .707-.707zm-8.394.154H2.791a1.502 1.502 0 0 1-1.5-1.5v-1.004a4.455 4.455 0 0 1 2.286-.641H9.59a.5.5 0 0 0 0-1H3.577a5.458 5.458 0 0 0-2.286.505V3.99a1.502 1.502 0 0 1 1.5-1.5h11.395a1.502 1.502 0 0 1 1.5 1.5v5.926a5.263 5.263 0 0 0-.953 10.161 3.663 3.663 0 0 0 .437 1.433zm1.35-2.101a4.289 4.289 0 1 1 4.289-4.289 4.293 4.293 0 0 1-4.289 4.289z"/></svg>