<svg xmlns="http://www.w3.org/2000/svg" viewBox="0 0 24 24" width="24" height="24"><path d="M10.092 4.586H3.859a.5.5 0 0 0 0 1h6.232a.5.5 0 0 0 0-1zM7.973 6.643H3.859a.5.5 0 0 0 0 1h4.113a.5.5 0 0 0 0-1zm15.589 14.713l-2.897-2.897a.464.464 0 0 0-.05-.033 5.246 5.246 0 0 0-3.929-8.576V3.99a2.503 2.503 0 0 0-2.5-2.5H2.791a2.503 2.503 0 0 0-2.5 2.5v16.02a2.503 2.503 0 0 0 2.5 2.5h13.395a.5.5 0 0 0 .345-.862 2.682 2.682 0 0 1-.759-1.314 5.217 5.217 0 0 0 .748.076 5.241 5.241 0 0 0 3.414-1.283.466.466 0 0 0 .026.039l2.897 2.897a.5.5 0 0 0 .707-.707zm-8.394.154H2.791a1.502 1.502 0 0 1-1.5-1.5v-1.004a4.458 4.458 0 0 1 2.286-.64H9.59a.5.5 0 0 0 0-1H3.577a5.459 5.459 0 0 0-2.286.505V3.99a1.502 1.502 0 0 1 1.5-1.5h11.395a1.502 1.502 0 0 1 1.5 1.5v5.927a5.263 5.263 0 0 0-.953 10.161 3.66 3.66 0 0 0 .437 1.433zm1.35-2.101a4.289 4.289 0 1 1 4.289-4.289 4.293 4.293 0 0 1-4.289 4.289z"/></svg>