<svg xmlns="http://www.w3.org/2000/svg" viewBox="0 0 24 24"><path d="M21.532 11.852l.004-6.476a2.482 2.482 0 0 0-2.479-2.479h-.11v-.659a1.836 1.836 0 1 0-3.672 0v.659H6.917v-.659a1.837 1.837 0 1 0-3.673 0v.659H3.12A2.482 2.482 0 0 0 .64 5.376v11.379a2.482 2.482 0 0 0 2.479 2.479h4.453a.5.5 0 0 0 0-1H3.12a1.481 1.481 0 0 1-1.479-1.479V7.409h18.896v3.668a6.831 6.831 0 1 0 .996.775zm-5.257-9.614a.836.836 0 1 1 1.672 0v1.271a.836.836 0 1 1-1.672 0zm-12.031 0a.837.837 0 1 1 1.673 0v1.271a.837.837 0 1 1-1.673 0zM1.641 6.409V5.375A1.481 1.481 0 0 1 3.12 3.897h.167a1.834 1.834 0 0 0 3.587 0h8.444a1.834 1.834 0 0 0 3.586 0h.153a1.48 1.48 0 0 1 1.479 1.479V6.41zm15.255 16.189a5.794 5.794 0 1 1 5.795-5.794 5.801 5.801 0 0 1-5.795 5.794zm.349-5.31v-4.275a.5.5 0 0 0-1 0v4.482a.5.5 0 0 0 .146.354l1.991 1.991a.5.5 0 0 0 .707-.707z"/></svg>