<svg xmlns="http://www.w3.org/2000/svg" viewBox="0 0 24 24"><path d="M21.412 12.112V5.193a2.482 2.482 0 0 0-2.479-2.479h-.11v-.658a1.836 1.836 0 1 0-3.673 0v.658H6.792v-.658a1.836 1.836 0 1 0-3.672 0v.658h-.125A2.482 2.482 0 0 0 .517 5.193v11.378a2.482 2.482 0 0 0 2.479 2.479h2.759a.5.5 0 0 0 0-1H2.995a1.48 1.48 0 0 1-1.479-1.479V7.227h18.896v4.842h-9.658a2.503 2.503 0 0 0-2.5 2.5v6.712a2.503 2.503 0 0 0 2.5 2.5h10.229a2.503 2.503 0 0 0 2.5-2.5v-6.712a2.499 2.499 0 0 0-2.071-2.457zm-3.093 5.724l3.979-3.975a1.481 1.481 0 0 1 .186.708v6.712a1.489 1.489 0 0 1-.124.595zM16.15 2.056a.836.836 0 1 1 1.673 0v1.271a.836.836 0 0 1-1.673 0zm-12.03 0a.836.836 0 1 1 1.672 0v1.271a.836.836 0 0 1-1.672 0zM1.517 6.227V5.193a1.48 1.48 0 0 1 1.479-1.479h.168a1.834 1.834 0 0 0 3.586 0h8.444a1.835 1.835 0 0 0 3.587 0h.153a1.48 1.48 0 0 1 1.479 1.479v1.034zm19.467 6.842a1.491 1.491 0 0 1 .576.116l-4.471 4.467a1.776 1.776 0 0 1-2.506-.001l-4.446-4.445a1.486 1.486 0 0 1 .618-.137zM9.387 21.891a1.487 1.487 0 0 1-.133-.61v-6.712a1.481 1.481 0 0 1 .164-.667l3.98 3.979zm1.367.89a1.481 1.481 0 0 1-.675-.168l4.049-4.049a2.715 2.715 0 0 0 3.465-.04l4.081 4.081a1.48 1.48 0 0 1-.691.176z"/></svg>