<svg xmlns="http://www.w3.org/2000/svg" viewBox="0 0 24 24" width="24" height="24"><path d="M5.644 7.245H3.596a.5.5 0 1 1 0-1h2.048a.5.5 0 0 1 0 1zm6.537 11.925a5.62 5.62 0 1 1 5.62-5.62 5.627 5.627 0 0 1-5.62 5.62zm0-10.24a4.62 4.62 0 1 0 4.62 4.62 4.625 4.625 0 0 0-4.62-4.62zm9.062 12.712H2.757a2.503 2.503 0 0 1-2.5-2.5V4.862a2.503 2.503 0 0 1 2.497-2.5l3.591-.004a2.695 2.695 0 0 1 1.248.332l3.802 2.183a1.507 1.507 0 0 0 .747.199h9.102a2.503 2.503 0 0 1 2.5 2.5v11.569a2.503 2.503 0 0 1-2.5 2.5zM2.755 3.362a1.502 1.502 0 0 0-1.498 1.5v14.279a1.502 1.502 0 0 0 1.5 1.5h18.486a1.502 1.502 0 0 0 1.5-1.5V7.572a1.502 1.502 0 0 0-1.5-1.5h-9.102a2.508 2.508 0 0 1-1.245-.332L7.095 3.558a1.578 1.578 0 0 0-.747-.199z"/></svg>