<svg xmlns="http://www.w3.org/2000/svg" viewBox="0 0 24 24" width="24" height="24"><path d="M22.379 10.87l-5.347-1.211a.888.888 0 0 1-.483-.297l-2.282-2.753a1.875 1.875 0 0 0-1.446-.68H5.548a1.871 1.871 0 0 0-1.448.682L.588 10.854a1.882 1.882 0 0 0-.363 1.7L.8 14.631a1.885 1.885 0 0 0 1.811 1.377h1.665a2.561 2.561 0 0 0 5.024 0h7.448a2.561 2.561 0 0 0 5.025 0h.191a1.881 1.881 0 0 0 1.879-1.879v-1.426a1.87 1.87 0 0 0-1.464-1.833zm-15.591 6.2a1.563 1.563 0 1 1 1.563-1.562 1.565 1.565 0 0 1-1.562 1.563zm12.473 0a1.563 1.563 0 1 1 1.563-1.562 1.565 1.565 0 0 1-1.563 1.563zm3.583-2.941a.88.88 0 0 1-.879.879h-.191a2.561 2.561 0 0 0-5.025 0H9.3a2.561 2.561 0 0 0-5.024 0H2.611a.881.881 0 0 1-.847-.645l-.575-2.076a.88.88 0 0 1 .17-.795l3.513-4.244a.877.877 0 0 1 .677-.318h7.272a.878.878 0 0 1 .677.318l2.282 2.753a1.889 1.889 0 0 0 1.032.633l5.347 1.211a.876.876 0 0 1 .685.858zm-9.316-4.586H4.82a.5.5 0 0 0 0 1h8.708a.5.5 0 0 0 0-1z"/></svg>