<svg xmlns="http://www.w3.org/2000/svg" xmlns:xlink="http://www.w3.org/1999/xlink" viewBox="0 0 24 24" width="24" height="24"><path d="M18.414 17.267H9.611a2.491 2.491 0 0 1-2.433-1.925l-2.648-11.2A1.494 1.494 0 0 0 3.07 2.987H1.346a.5.5 0 0 1 0-1H3.07a2.491 2.491 0 0 1 2.433 1.924l.593 2.508 14.467-.03h.005a2.499 2.499 0 0 1 2.347 3.36l-2.153 5.877a2.508 2.508 0 0 1-2.347 1.64zM6.332 7.419l1.819 7.693a1.494 1.494 0 0 0 1.459 1.155h8.803a1.505 1.505 0 0 0 1.408-.984l2.154-5.877a1.5 1.5 0 0 0-1.408-2.016h-.003z"/><use xlink:href="#B"/><use xlink:href="#B" x="8.307"/><defs ><path id="B" d="M9.65 22.013a2.153 2.153 0 1 1 2.153-2.153 2.155 2.155 0 0 1-2.153 2.153zm0-3.306a1.153 1.153 0 1 0 1.153 1.153 1.154 1.154 0 0 0-1.153-1.153z"/></defs></svg>