<svg xmlns="http://www.w3.org/2000/svg" xmlns:xlink="http://www.w3.org/1999/xlink" viewBox="0 0 24 24" width="24" height="24"><path d="M23.313 10.911a1.9 1.9 0 0 0-1.46-.758l-9.744.02-.384-1.624a1.772 1.772 0 0 0-1.73-1.369H8.773a.5.5 0 0 0 0 1h1.222a.775.775 0 0 1 .757.599l.473 1.998.006.024.251 1.064-10.117.017V4.629a1.142 1.142 0 0 1 1.141-1.141h14.021a1.142 1.142 0 0 1 1.141 1.141v3.031a.5.5 0 1 0 1 0V4.629a2.143 2.143 0 0 0-2.141-2.141H2.505A2.143 2.143 0 0 0 .365 4.629v8.581a2.143 2.143 0 0 0 2.141 2.141h6.427v2.431H7.164a.5.5 0 0 0 0 1h4.537a.5.5 0 0 0 0-1H9.933v-2.431h2.369l.004-.001.261 1.104a1.772 1.772 0 0 0 1.73 1.368h6.036a1.808 1.808 0 0 0 1.691-1.182l1.501-4.098a1.779 1.779 0 0 0-.212-1.632zm-20.808 3.44a1.142 1.142 0 0 1-1.141-1.141v-.328l10.35-.017h.003l.351 1.486zm20.081-2.152l-1.501 4.098a.805.805 0 0 1-.752.526h-6.036a.774.774 0 0 1-.757-.599l-1.194-5.051 9.509-.02h.002a.777.777 0 0 1 .729 1.045z"/><use xlink:href="#B"/><use xlink:href="#B" x="5.608"/><defs ><path id="B" d="M14.381 18.279a1.616 1.616 0 1 0 1.616 1.616 1.618 1.618 0 0 0-1.616-1.616zm0 2.232a.616.616 0 1 1 .616-.616.617.617 0 0 1-.616.616z"/></defs></svg>