<svg xmlns="http://www.w3.org/2000/svg" viewBox="0 0 24 24"><path d="M22.209 12.267a2.518 2.518 0 0 0-.973-.739l.009-.302a10.107 10.107 0 1 0-10.106 10.106l.555-.018a2.529 2.529 0 0 0 .661.808 2.433 2.433 0 0 0 1.514.534 2.401 2.401 0 0 0 .544-.062 11.13 11.13 0 0 0 8.268-8.269 2.415 2.415 0 0 0-.472-2.059zM11.398 13.81v6.333c0 .061.016.12.02.18l-.28.009a9.107 9.107 0 1 1 9.106-9.106l-.003.085-.012-.001h-6.333a2.503 2.503 0 0 0-2.5 2.5zm10.31.289a10.125 10.125 0 0 1-7.52 7.521 1.424 1.424 0 0 1-1.21-.28 1.521 1.521 0 0 1-.579-1.196V13.81a1.502 1.502 0 0 1 1.5-1.5h6.333a1.521 1.521 0 0 1 1.196.579 1.423 1.423 0 0 1 .281 1.21z"/></svg>