<svg xmlns="http://www.w3.org/2000/svg" viewBox="0 0 24 24"><path d="M21.265 2.305h-9.104a2.503 2.503 0 0 0-2.5 2.5v4.048h-6.91a2.503 2.503 0 0 0-2.5 2.5v5.286a2.503 2.503 0 0 0 2.5 2.5h8.475l2.265 2.398a.499.499 0 0 0 .363.157.505.505 0 0 0 .185-.035.5.5 0 0 0 .315-.465v-6.103a.5.5 0 0 0-1 0v4.845l-1.549-1.64a.499.499 0 0 0-.363-.157h-8.69a1.502 1.502 0 0 1-1.5-1.5v-5.286a1.502 1.502 0 0 1 1.5-1.5h6.91v4.793a.5.5 0 0 0 .863.343l2.265-2.398h8.475a2.503 2.503 0 0 0 2.5-2.5V4.805a2.503 2.503 0 0 0-2.5-2.5zm1.5 7.786a1.502 1.502 0 0 1-1.5 1.5h-8.69a.499.499 0 0 0-.363.157l-1.55 1.641V4.805a1.502 1.502 0 0 1 1.5-1.5h9.104a1.502 1.502 0 0 1 1.5 1.5zm-5.992-5.367a1.98 1.98 0 0 0-1.614.716.397.397 0 0 0-.083.219.305.305 0 0 0 .558.181 1.312 1.312 0 0 1 1.139-.52.849.849 0 0 1 .958.86 1.014 1.014 0 0 1-.279.754 3.517 3.517 0 0 1-1.003.596.318.318 0 0 0-.211.302.291.291 0 0 0 .287.286.459.459 0 0 0 .226-.053 3.964 3.964 0 0 0 1.229-.807 1.538 1.538 0 0 0 .37-1.093 1.324 1.324 0 0 0-.437-1.033 1.608 1.608 0 0 0-1.139-.407zm-.226 4.411a.309.309 0 0 0-.309.302v.399a.319.319 0 0 0 .309.302.3.3 0 0 0 .309-.302v-.399a.3.3 0 0 0-.309-.302z"/><circle cx="4.66" cy="13.935" r=".711"/><circle cx="7.303" cy="13.935" r=".711"/></svg>