<svg xmlns="http://www.w3.org/2000/svg" viewBox="0 0 24 24" width="24" height="24"><path d="M11.062 17.571a.501.501 0 0 1-.35-.143L6.038 12.85a.5.5 0 0 1 .7-.715l4.325 4.237 11.738-11.39a.5.5 0 1 1 .696.718L11.41 17.43a.498.498 0 0 1-.348.141zm.841 4.66a40.613 40.613 0 0 1-7.756-.75l-.169-.032a1.935 1.935 0 0 1-1.54-1.544l-.052-.27a40.524 40.524 0 0 1 .048-15.551 1.94 1.94 0 0 1 1.528-1.531 40.524 40.524 0 0 1 15.877 0 1.937 1.937 0 0 1 1.529 1.535l.023.119.058.371.044.284a.5.5 0 1 1-.983.183l-.05-.322-.05-.322-.023-.12a.942.942 0 0 0-.743-.747 39.536 39.536 0 0 0-15.483 0 .944.944 0 0 0-.746.744 39.532 39.532 0 0 0-.047 15.169l.052.27a.94.94 0 0 0 .748.75l.169.032a39.497 39.497 0 0 0 15.131 0l.173-.034a.939.939 0 0 0 .747-.747l.03-.154a39.954 39.954 0 0 0 .728-9.372.5.5 0 0 1 .477-.522.494.494 0 0 1 .522.477 40.947 40.947 0 0 1-.746 9.606l-.03.154a1.936 1.936 0 0 1-1.539 1.539l-.173.034a40.685 40.685 0 0 1-7.755.749z"/></svg>