<svg xmlns="http://www.w3.org/2000/svg" viewBox="0 0 24 24"><path d="M12.007.292A11.709 11.709 0 1 0 23.715 12 11.722 11.722 0 0 0 12.007.292zm0 1a10.722 10.722 0 0 1 9.831 6.472h-9.831a4.235 4.235 0 0 0-4.161 3.5L4.109 4.793a10.671 10.671 0 0 1 7.897-3.502zM15.243 12a3.236 3.236 0 1 1-3.236-3.236A3.24 3.24 0 0 1 15.243 12zM1.298 12A10.638 10.638 0 0 1 3.43 5.616l4.909 8.502c.012.02.033.029.047.047a4.151 4.151 0 0 0 5.069 1.8l-3.746 6.489A10.722 10.722 0 0 1 1.298 12zm10.708 10.708a10.731 10.731 0 0 1-1.246-.079l4.915-8.512a.481.481 0 0 0 .036-.106 4.141 4.141 0 0 0-1.004-5.249h7.505a10.704 10.704 0 0 1-10.206 13.945z"/></svg>