<svg xmlns="http://www.w3.org/2000/svg" viewBox="0 0 24 24" width="24" height="24"><path d="M17.655 4.345a10.612 10.612 0 0 0 1.03-.785.943.943 0 0 0 .282-.634c0-.383-.289-.722-.885-.722a1.119 1.119 0 0 0-.923.446.29.29 0 0 1-.145.106.251.251 0 0 1-.327-.151.261.261 0 0 1 .032-.226 1.634 1.634 0 0 1 1.344-.672 1.464 1.464 0 0 1 1.043.352 1.134 1.134 0 0 1 .377.867 1.152 1.152 0 0 1-.276.785 6.942 6.942 0 0 1-1.086.898c-.634.458-.911.741-.917 1.061h2.11a.249.249 0 1 1 0 .496h-2.261a.345.345 0 0 1-.37-.364c0-.547.295-.973.973-1.457zm5.469.747v.817a.255.255 0 0 1-.258.257.249.249 0 0 1-.251-.257v-.817h-1.828a.396.396 0 0 1-.433-.421.5.5 0 0 1 .113-.295l1.671-2.223.176-.226a.576.576 0 0 1 .39-.201c.282 0 .421.176.421.528V4.59h.465a.246.246 0 0 1 .251.257.255.255 0 0 1-.251.245zm-2.217-.502h1.709V2.323zm-8.9 19.258A11.848 11.848 0 1 1 15.471.667a.5.5 0 1 1-.292.956 10.836 10.836 0 1 0 7.306 7.559.5.5 0 1 1 .966-.259 11.857 11.857 0 0 1-11.444 14.925zm3.318-6.512a.498.498 0 0 1-.354-.146l-3.589-3.59a.5.5 0 0 1-.146-.354V5.165a.5.5 0 0 1 1 0v7.875l3.443 3.443a.5.5 0 0 1-.354.854z"/></svg>