<svg xmlns="http://www.w3.org/2000/svg" viewBox="0 0 24 24"><path d="M21.561 2.178H2.488A2.096 2.096 0 0 0 .394 4.27L.347 15.541a2.095 2.095 0 0 0 2.093 2.093h9.084v3.188H9.258a.5.5 0 0 0 0 1h5.531a.5.5 0 1 0 0-1h-2.266v-3.187h8.989a2.094 2.094 0 0 0 2.093-2.091l.048-11.271a2.096 2.096 0 0 0-2.093-2.094zm-19.073 1h19.073a1.094 1.094 0 0 1 1.093 1.092l-.04 9.361H1.355l.039-9.359a1.095 1.095 0 0 1 1.094-1.094zm19.025 13.456H2.44a1.094 1.094 0 0 1-1.093-1.091l.004-.912h21.259l-.004.91a1.094 1.094 0 0 1-1.093 1.093z"/></svg>