<svg xmlns="http://www.w3.org/2000/svg" viewBox="0 0 24 24" width="24" height="24" fill="#231f20"><path d="M21.678 8.277h-3.774a1.765 1.765 0 0 0-1.762 1.763v2.46H1.56V3.548a1.502 1.502 0 0 1 1.5-1.5h17.092a1.502 1.502 0 0 1 1.5 1.5v2.453a.5.5 0 0 0 1 0V3.548a2.503 2.503 0 0 0-2.5-2.5H3.06a2.503 2.503 0 0 0-2.5 2.5v10.46a2.503 2.503 0 0 0 2.5 2.5h7.944v3.183H8.739a.5.5 0 0 0 0 1h5.531a.5.5 0 0 0 0-1h-2.266v-3.183h4.068a.472.472 0 0 0 .069-.014v4.697a1.764 1.764 0 0 0 1.762 1.762h3.774a1.764 1.764 0 0 0 1.762-1.762V10.039a1.765 1.765 0 0 0-1.762-1.763zm-5.606 7.231H3.06a1.502 1.502 0 0 1-1.5-1.5V13.5h14.582v2.022a.471.471 0 0 0-.069-.014zm6.368 5.683a.763.763 0 0 1-.762.762h-3.774a.763.763 0 0 1-.762-.762V10.039a.763.763 0 0 1 .762-.763h3.774a.763.763 0 0 1 .762.763zM20.588 9.988h-1.594a.5.5 0 0 0 0 1h1.594a.5.5 0 0 0 0-1zm-.797 10.414a.469.469 0 1 0 .469.469.469.469 0 0 0-.469-.469z"/></svg>