<svg xmlns="http://www.w3.org/2000/svg" viewBox="0 0 24 24" width="24" height="24"><path d="M22.836 8.015c0-.008.005-.015.005-.024a.49.49 0 0 0-.056-.219l-2.958-5.505c-.004-.008-.013-.011-.018-.019a.486.486 0 0 0-.161-.17l-.002-.001c-.007-.004-.015-.004-.022-.008a.478.478 0 0 0-.213-.059c-.009 0-.016-.007-.024-.007H4.614c-.009 0-.017.007-.026.007a.481.481 0 0 0-.211.058c-.007.004-.016.004-.023.008l-.002.001a.486.486 0 0 0-.161.17c-.005.008-.014.011-.018.019L1.219 7.753a.49.49 0 0 0-.06.237c0 .008.004.016.005.024a.463.463 0 0 0 .01.052.485.485 0 0 0 .075.195c.007.01.005.024.013.034L11.603 21.8a.482.482 0 0 0 .072.059.448.448 0 0 0 .06.049.444.444 0 0 0 .532 0 .448.448 0 0 0 .06-.049.482.482 0 0 0 .072-.059L22.738 8.294c.008-.01.006-.023.013-.034a.485.485 0 0 0 .075-.195.46.46 0 0 0 .01-.052zM4.642 3.506l2.444 3.985h-4.59zm4.324 3.985L12 3.35l3.035 4.141zm6.386 1L12 19.745 8.649 8.491zm-2.365-5.487h5.506l-2.508 4.091zm-4.97 4.091L5.507 3.003h5.506zm-.41 1.396l3.14 10.546L2.672 8.491zm8.788 0h4.934l-8.074 10.546zm.521-1l2.443-3.985 2.146 3.985z"/></svg>