<svg xmlns="http://www.w3.org/2000/svg" viewBox="0 0 24 24" width="24" height="24"><path d="M13.216.173H4.784a2.503 2.503 0 0 0-2.5 2.5v18.654a2.503 2.503 0 0 0 2.5 2.5h14.432a2.503 2.503 0 0 0 2.5-2.5V8.673a8.51 8.51 0 0 0-8.5-8.5zm7.188 6.37h-5.049a1.507 1.507 0 0 1-1.079-.45 1.44 1.44 0 0 1-.422-1.036l.018-.561a4.561 4.561 0 0 0-.611-3.084c-.067-.088-.145-.16-.217-.239h.172a7.51 7.51 0 0 1 7.188 5.37zm.312 14.784a1.502 1.502 0 0 1-1.5 1.5H4.784a1.502 1.502 0 0 1-1.5-1.5V2.673a1.502 1.502 0 0 1 1.5-1.5h6.808l.094.081a5.357 5.357 0 0 1 .781.766 3.789 3.789 0 0 1 .405 2.437l-.018.588a2.431 2.431 0 0 0 .71 1.751 2.497 2.497 0 0 0 1.79.748h5.267a7.487 7.487 0 0 1 .095 1.13z"/></svg>