<svg xmlns="http://www.w3.org/2000/svg" viewBox="0 0 24 24" width="24" height="24"><path d="M14.04 13.5a.5.5 0 0 0-.5.5v4.284a.5.5 0 1 0 1 0V14a.5.5 0 0 0-.5-.5zm0 6.09a.5.5 0 0 0-.5.5v.513a.5.5 0 1 0 1 0v-.513a.5.5 0 0 0-.5-.5zm8.541 2.992l-.283-.661a62.597 62.597 0 0 0-6.058-10.946V6.717a6.508 6.508 0 0 0-6.5-6.5H3.88a2.503 2.503 0 0 0-2.5 2.5v13.034a2.503 2.503 0 0 0 2.5 2.5h1.576a.5.5 0 1 0 0-1H3.879a1.502 1.502 0 0 1-1.5-1.5V2.717a1.502 1.502 0 0 1 1.5-1.5h4.578l.031.026a3.955 3.955 0 0 1 .574.563 2.469 2.469 0 0 1 .285 1.605 2.501 2.501 0 0 0 2.498 2.596h3.343a5.503 5.503 0 0 1 .051.71V9.53l-.791-1.125a.5.5 0 0 0-.817 0l-1.124 1.597a62.549 62.549 0 0 0-6.85 12.59.5.5 0 0 0 .401.683 64.081 64.081 0 0 0 8.059.509 64.063 64.063 0 0 0 7.904-.489l.161-.02a.5.5 0 0 0 .399-.692zM11.845 5.007a1.502 1.502 0 0 1-1.499-1.559 3.366 3.366 0 0 0-.475-2.225 5.505 5.505 0 0 1 5.093 3.783zM6.832 22.361a61.545 61.545 0 0 1 6.492-11.783l.715-1.016 1.093 1.553a61.55 61.55 0 0 1 6.246 11.198l.02.048a63.079 63.079 0 0 1-14.566 0zM3.719 6.78H7.51a.5.5 0 0 0 0-1H3.719a.5.5 0 0 0 0 1zm0 1.802h6.175a.5.5 0 1 0 0-1H3.719a.5.5 0 0 0 0 1zm0 1.803H7.51a.5.5 0 0 0 0-1H3.719a.5.5 0 1 0 0 1z"/></svg>