<svg xmlns="http://www.w3.org/2000/svg" viewBox="0 0 24 24"><path d="M11.699 17.103a.475.475 0 0 0 .074.046.484.484 0 0 0 .078.048.499.499 0 0 0 .181.037l.005.001h0a.499.499 0 0 0 .187-.038.493.493 0 0 0 .078-.049.479.479 0 0 0 .076-.048l6.151-5.742a.5.5 0 1 0-.683-.73l-5.308 4.955.018-13.66a.5.5 0 0 0-.5-.501h0a.5.5 0 0 0-.5.499l-.018 13.678-5.274-4.841a.5.5 0 1 0-.676.736zm10.386.307a.5.5 0 0 0-.5.5v2.169a1.502 1.502 0 0 1-1.5 1.5H3.915a1.502 1.502 0 0 1-1.5-1.5V17.91a.5.5 0 0 0-1 0v2.169a2.503 2.503 0 0 0 2.5 2.5h16.171a2.503 2.503 0 0 0 2.5-2.5V17.91a.5.5 0 0 0-.5-.5z"/></svg>