<svg xmlns="http://www.w3.org/2000/svg" viewBox="0 0 24 24"><path d="M22.634 1.837a.475.475 0 0 0-.022-.093.488.488 0 0 0-.019-.081.496.496 0 0 0-.083-.126c-.009-.01-.012-.023-.021-.032l-.002-.001a.498.498 0 0 0-.16-.105.484.484 0 0 0-.066-.015.478.478 0 0 0-.109-.025l-6.679-.229a.514.514 0 0 0-.518.482.501.501 0 0 0 .482.518l5.526.189-11.92 11.888a.501.501 0 0 0 .707.709L21.683 3.015l.232 5.446a.501.501 0 0 0 .5.479h.021a.501.501 0 0 0 .479-.521zM18.62 8.059a.5.5 0 0 0-.5.5V20.37a1.502 1.502 0 0 1-1.5 1.5H3.585a1.502 1.502 0 0 1-1.5-1.5V7.335a1.502 1.502 0 0 1 1.5-1.5h11.837a.5.5 0 0 0 0-1H3.585a2.502 2.502 0 0 0-2.5 2.5V20.37a2.502 2.502 0 0 0 2.5 2.5H16.62a2.502 2.502 0 0 0 2.5-2.5V8.559a.5.5 0 0 0-.5-.5z"/></svg>