<svg xmlns="http://www.w3.org/2000/svg" viewBox="0 0 24 24" width="24" height="24"><path d="M23.636 12.339a2.401 2.401 0 0 0-.08-1.73A12.439 12.439 0 0 0 6.167 4.753l.735.735a11.452 11.452 0 0 1 15.741 5.527 1.392 1.392 0 0 1 .046 1.002 11.463 11.463 0 0 1-3.867 5.391l.712.712a12.461 12.461 0 0 0 4.101-5.781zM12 9.643A2.359 2.359 0 0 1 14.356 12a2.33 2.33 0 0 1-.148.795l.752.752A3.313 3.313 0 0 0 15.356 12 3.36 3.36 0 0 0 12 8.643a3.313 3.313 0 0 0-1.547.396l.752.752A2.33 2.33 0 0 1 12 9.643zm8.911 11.269l-2.198-2.198-.721-.721-3.62-3.62-.707-.707-3.331-3.331-.707-.707-3.62-3.62-.721-.721-2.118-2.118a.5.5 0 1 0-.707.707L4.465 5.88a12.456 12.456 0 0 0-4.1 5.781 2.393 2.393 0 0 0 .079 1.73 12.439 12.439 0 0 0 17.389 5.856l2.372 2.372a.5.5 0 0 0 .707-.707zm-8.117-6.703a2.33 2.33 0 0 1-.794.147A2.359 2.359 0 0 1 9.644 12a2.33 2.33 0 0 1 .147-.794zm-.961 5.589a11.488 11.488 0 0 1-10.476-6.812 1.39 1.39 0 0 1-.045-1.002 11.46 11.46 0 0 1 3.866-5.391l3.861 3.861A3.313 3.313 0 0 0 8.644 12 3.36 3.36 0 0 0 12 15.356a3.313 3.313 0 0 0 1.546-.395l3.552 3.552a11.431 11.431 0 0 1-5.265 1.285z"/></svg>