<svg xmlns="http://www.w3.org/2000/svg" viewBox="0 0 24 24" width="24" height="24"><path d="M11.832 20.797A12.488 12.488 0 0 1 .444 13.391a2.393 2.393 0 0 1-.079-1.73h0a12.461 12.461 0 0 1 23.191-1.052 2.401 2.401 0 0 1 .08 1.73 12.47 12.47 0 0 1-11.803 8.458zm.335-16.595a11.469 11.469 0 0 0-10.856 7.78h0a1.39 1.39 0 0 0 .045 1.002 11.463 11.463 0 0 0 21.332-.968 1.392 1.392 0 0 0-.046-1.002 11.488 11.488 0 0 0-10.476-6.812zM12 15.356A3.356 3.356 0 1 1 15.356 12 3.36 3.36 0 0 1 12 15.356zm0-5.713A2.356 2.356 0 1 0 14.356 12 2.359 2.359 0 0 0 12 9.643z"/></svg>