<svg xmlns="http://www.w3.org/2000/svg" viewBox="0 0 24 24"><path d="M13.831 23.486H8.948a.5.5 0 0 1-.5-.5v-8.044H5.287a.5.5 0 0 1-.5-.5V9.559a.5.5 0 0 1 .5-.5h3.162V7.117A6.611 6.611 0 0 1 15.052.514h3.662a.5.5 0 0 1 .5.5v4.882a.5.5 0 0 1-.5.5h-3.662a.721.721 0 0 0-.721.721v1.941h4.382a.5.5 0 0 1 .485.621l-1.22 4.883a.499.499 0 0 1-.485.379h-3.162v8.044a.5.5 0 0 1-.5.5zm-4.383-1h3.883v-8.044a.5.5 0 0 1 .5-.5h3.271l.971-3.883h-4.242a.5.5 0 0 1-.5-.5V7.117a1.723 1.723 0 0 1 1.721-1.721h3.162V1.514h-3.162a5.61 5.61 0 0 0-5.604 5.603v2.441a.5.5 0 0 1-.5.5H5.787v3.883h3.162a.5.5 0 0 1 .5.5z"/></svg>