<svg xmlns="http://www.w3.org/2000/svg" viewBox="0 0 24 24" width="24" height="24"><path d="M12.015 23.651A11.664 11.664 0 0 1 .363 12a11.533 11.533 0 0 1 1.026-4.785 6.473 6.473 0 0 1 2.288-2.685.5.5 0 0 1 .729.479 7.88 7.88 0 0 1 .855-.729c2.567-1.889 5.891-1.867 7.267-.665a.5.5 0 0 1-.166.849 6.582 6.582 0 0 0-3.805 4.611 2.956 2.956 0 0 1 2.736-1.153.5.5 0 0 1 .217.872 3.842 3.842 0 0 0-.684.923 2.791 2.791 0 0 0-.238 1.184 3.267 3.267 0 0 0 .997 2.304 3.723 3.723 0 0 0 3.066 1.028 4.613 4.613 0 0 0 3.317-2.059 5.981 5.981 0 0 0-.179-6.102 7.203 7.203 0 0 0-1.127-1.372 8.885 8.885 0 0 0-7.369-2.327 8.453 8.453 0 0 0-2.967 1.002.5.5 0 0 1-.608-.784A9.434 9.434 0 0 1 12.015.349a11.651 11.651 0 1 1 0 23.303zM2.51 7.242l-.217.402A10.529 10.529 0 0 0 1.363 12 10.651 10.651 0 1 0 11.731 1.353a9.837 9.837 0 0 1 5.62 2.624 8.219 8.219 0 0 1 1.287 1.567 7.029 7.029 0 0 1 .169 7.176 5.623 5.623 0 0 1-4.044 2.508 4.71 4.71 0 0 1-3.874-1.304 4.258 4.258 0 0 1-1.3-3.004 3.792 3.792 0 0 1 .322-1.603c.019-.042.051-.104.094-.18a2.589 2.589 0 0 0-.86.822 3.93 3.93 0 0 0-.173 3.288.5.5 0 0 1-.916.398 6.428 6.428 0 0 1-.591-1.912 7.942 7.942 0 0 1 3.63-7.776 6.381 6.381 0 0 0-5.24 1.13 7.275 7.275 0 0 0-2.628 3.806.5.5 0 0 1-.977-.185 8.608 8.608 0 0 1 .26-1.466z"/></svg>