<svg xmlns="http://www.w3.org/2000/svg" viewBox="0 0 24 24" width="24" height="24"><path d="M12 .492A11.502 11.502 0 1 1 1.504 7.275 6.195 6.195 0 0 1 3.633 4.75a11.073 11.073 0 0 0-1.197 3.893 7.999 7.999 0 0 1 2.9-4.194c2.378-1.748 5.579-1.826 6.854-.714a7.469 7.469 0 0 0-4.377 7.913 6.151 6.151 0 0 0 .563 1.821 4.527 4.527 0 0 1 .232-3.864 2.628 2.628 0 0 1 2.539-1.307c-.239-.051-.769.962-.847 1.14a3.419 3.419 0 0 0-.289 1.439 3.907 3.907 0 0 0 1.185 2.739c2.212 2.153 5.781 1.306 7.379-1.153a6.726 6.726 0 0 0-.178-6.85 7.958 7.958 0 0 0-1.247-1.519 9.71 9.71 0 0 0-8.035-2.538 9.181 9.181 0 0 0-3.25 1.1A9.281 9.281 0 0 1 12 .492z"/></svg>