<svg xmlns="http://www.w3.org/2000/svg" viewBox="0 0 24 24" width="24" height="24"><path d="M18.256 12.538H4.677a.5.5 0 0 1 0-1h13.58a.5.5 0 0 1 0 1zm-2.596 4.029H4.677a.5.5 0 0 1 0-1H15.66a.5.5 0 0 1 0 1zm5.583 5.131H2.757a2.503 2.503 0 0 1-2.5-2.5V4.919a2.503 2.503 0 0 1 2.497-2.5l3.591-.004h.003a2.499 2.499 0 0 1 1.244.332l3.802 2.183a1.502 1.502 0 0 0 .747.199h9.102a2.503 2.503 0 0 1 2.5 2.5v11.569a2.503 2.503 0 0 1-2.5 2.5zM2.755 3.419a1.502 1.502 0 0 0-1.498 1.5v14.279a1.502 1.502 0 0 0 1.5 1.5h18.486a1.502 1.502 0 0 0 1.5-1.5V7.629a1.502 1.502 0 0 0-1.5-1.5h-9.102a2.503 2.503 0 0 1-1.245-.332L7.095 3.614a1.497 1.497 0 0 0-.746-.199h-.002z"/></svg>