<svg xmlns="http://www.w3.org/2000/svg" viewBox="0 0 24 24" width="24" height="24"><path d="M21.277 3.397H2.723a2.503 2.503 0 0 0-2.5 2.5v12.206a2.503 2.503 0 0 0 2.5 2.5h18.555a2.503 2.503 0 0 0 2.5-2.5V5.897a2.503 2.503 0 0 0-2.5-2.5zm1.5 12.274h-.587a1.502 1.502 0 0 1-1.5-1.5V9.904a1.502 1.502 0 0 1 1.5-1.5h.587zM11.5 14.54a2.509 2.509 0 0 1 0-4.926zm1-4.919a2.51 2.51 0 0 1 0 4.911zM1.223 8.404h.587a1.502 1.502 0 0 1 1.5 1.5v4.268a1.502 1.502 0 0 1-1.5 1.5h-.587zm0 9.699v-1.431h.587a2.503 2.503 0 0 0 2.5-2.5V9.904a2.503 2.503 0 0 0-2.5-2.5h-.587V5.897a1.502 1.502 0 0 1 1.5-1.5H11.5v4.217a3.494 3.494 0 0 0 0 6.926v4.063H2.723a1.502 1.502 0 0 1-1.5-1.5zm20.055 1.5H12.5v-4.067a3.495 3.495 0 0 0 0-6.918V4.397h8.777a1.502 1.502 0 0 1 1.5 1.5v1.507h-.587a2.503 2.503 0 0 0-2.5 2.5v4.268a2.503 2.503 0 0 0 2.5 2.5h.587v1.431a1.502 1.502 0 0 1-1.5 1.5z"/></svg>