<svg xmlns="http://www.w3.org/2000/svg" viewBox="0 0 24 24"><path d="M23.051 9.763a3.495 3.495 0 0 0-1.849-.827l-.554-.135-3.062-.902-1.777-1.022.287-.287a.5.5 0 1 0-.707-.707l-.478.478-.606-.349.398-.398a.5.5 0 1 0-.707-.707l-.589.589-.647-.372.358-.358a.5.5 0 1 0-.707-.707l-.549.549-.645-.371a2.5 2.5 0 0 0-3.437.962l-.125.226a1.75 1.75 0 0 1-1.237.886l-1.138.198a1.766 1.766 0 0 1-1.37-.334 2.005 2.005 0 0 0-1.826-.326A2.027 2.027 0 0 0 .748 7.157c-1.106 3.314-.532 5.949 1.618 7.418a.501.501 0 0 0 .282.087h.454v.608a.5.5 0 0 0 1 0v-.608h2.143v.608a.5.5 0 0 0 1 0v-.608h.052a.492.492 0 0 0 .187-.036 5.233 5.233 0 0 1 1.959-.378h1.308a4.801 4.801 0 0 1 .873.058 3.224 3.224 0 0 1 .685.247l.152.067a.474.474 0 0 0 .074.02v.63a.5.5 0 0 0 1 0v-.531l2.143.076v.455a.5.5 0 0 0 1 0v-.466l1.825-.107v.573a.5.5 0 1 0 1 0v-.687a18.706 18.706 0 0 0 1.989-.374v.873a.5.5 0 0 0 1 0v-1.159l.386-.125c.72-.264.9-1.726.907-1.787a2.753 2.753 0 0 0-.733-2.248zm-.259 2.13a4.418 4.418 0 0 1-.258.966c-3.733 1.361-9.058.884-9.743.814l-.076-.033a4.07 4.07 0 0 0-.904-.316 5.626 5.626 0 0 0-1.061-.075H9.442a6.244 6.244 0 0 0-2.24.414H2.808c-2.105-1.545-1.772-4.208-1.11-6.188a1.038 1.038 0 0 1 .684-.672 1.024 1.024 0 0 1 .927.166 2.745 2.745 0 0 0 2.148.523l1.137-.198a2.741 2.741 0 0 0 1.941-1.389l.125-.225a1.5 1.5 0 0 1 2.063-.577l.411.236-.671.671a.5.5 0 1 0 .707.707l.861-.861.646.372-.631.631a.5.5 0 1 0 .707.707l.822-.822.606.348-.742.742a.5.5 0 1 0 .707.707l.932-.932 2.062 1.186a.494.494 0 0 0 .107.046l3.12.919.619.152a2.668 2.668 0 0 1 1.354.553 1.771 1.771 0 0 1 .453 1.428zm-2.708 5.156H3.916a.5.5 0 0 0 0 1h16.168a.5.5 0 0 0 0-1zM17.1 19.098H5.933a.5.5 0 0 0 0 1H17.1a.5.5 0 0 0 0-1z"/></svg>