<svg xmlns="http://www.w3.org/2000/svg" viewBox="0 0 24 24" width="24" height="24"><path d="M16.004 22.551H7.996a2.502 2.502 0 0 1-2.5-2.5v-8.038H4.281a2.502 2.502 0 0 1-2.5-2.5V3.949a2.502 2.502 0 0 1 2.5-2.5h4.63a.5.5 0 0 1 .5.5 2.594 2.594 0 0 0 5.178 0 .5.5 0 0 1 .5-.5h4.63a2.502 2.502 0 0 1 2.5 2.5v5.563a2.502 2.502 0 0 1-2.5 2.5h-1.215v8.038a2.502 2.502 0 0 1-2.5 2.5zM4.281 2.449a1.502 1.502 0 0 0-1.5 1.5v5.563a1.502 1.502 0 0 0 1.5 1.5h1.715a.5.5 0 0 1 .5.5v8.538a1.502 1.502 0 0 0 1.5 1.5h8.008a1.502 1.502 0 0 0 1.5-1.5v-8.538a.5.5 0 0 1 .5-.5h1.715a1.502 1.502 0 0 0 1.5-1.5V3.949a1.502 1.502 0 0 0-1.5-1.5h-4.17A3.599 3.599 0 0 1 12 5.384h-.154a.472.472 0 0 1-.092-.009 3.593 3.593 0 0 1-3.303-2.926zm8.013 15.283a.5.5 0 0 1-.5-.5V9.72l-1.682.849a.5.5 0 0 1-.451-.893l2.407-1.215a.491.491 0 0 1 .487.021.498.498 0 0 1 .238.426v8.324a.5.5 0 0 1-.5.5z"/></svg>