<svg xmlns="http://www.w3.org/2000/svg" viewBox="0 0 24 24" width="24" height="24"><path d="M22.453 16.933l-4.724-4.725a8.565 8.565 0 0 0 .308-3.544 8.368 8.368 0 0 0-7.322-7.205 8.143 8.143 0 0 0-3.178.243.499.499 0 0 0-.221.835l4.242 4.243a1.504 1.504 0 0 1 0 2.121l-2.656 2.657a1.503 1.503 0 0 1-2.121 0L2.538 7.316a.506.506 0 0 0-.48-.13.499.499 0 0 0-.354.35 8.117 8.117 0 0 0-.244 3.174 8.366 8.366 0 0 0 7.208 7.327 8.915 8.915 0 0 0 1.089.067 8.422 8.422 0 0 0 2.457-.37l4.72 4.72a.5.5 0 0 0 .707-.707l-4.397-4.397a8.468 8.468 0 0 0 4.106-4.107l4.397 4.398a.5.5 0 0 0 .707-.707zm-10.26-.236h-.001a7.519 7.519 0 0 1-3.402.348 7.36 7.36 0 0 1-6.338-6.45 7.115 7.115 0 0 1 .028-1.922l3.594 3.594a2.504 2.504 0 0 0 3.535 0l2.656-2.657a2.504 2.504 0 0 0 0-3.535L8.673 2.481a7.08 7.08 0 0 1 1.928-.028 7.36 7.36 0 0 1 6.444 6.334 7.548 7.548 0 0 1-.348 3.403 7.421 7.421 0 0 1-4.504 4.507z"/></svg>