<svg xmlns="http://www.w3.org/2000/svg" viewBox="0 0 24 24" width="24" height="24"><path d="M12.191 17.375a5.421 5.421 0 1 1 5.42-5.421 5.427 5.427 0 0 1-5.42 5.421zm0-9.841a4.421 4.421 0 1 0 4.42 4.42 4.426 4.426 0 0 0-4.42-4.42zm2.588 14.975a2.312 2.312 0 0 1-1.596-.614 1.486 1.486 0 0 0-1.999 0 2.386 2.386 0 0 1-2.354.495 10.833 10.833 0 0 1-1.706-.714 2.426 2.426 0 0 1-1.235-2.048 1.449 1.449 0 0 0-1.335-1.334 2.428 2.428 0 0 1-2.048-1.236 10.853 10.853 0 0 1-.713-1.706A2.387 2.387 0 0 1 2.288 13a1.449 1.449 0 0 0 0-1.999 2.388 2.388 0 0 1-.495-2.354 10.929 10.929 0 0 1 .713-1.706 2.428 2.428 0 0 1 2.048-1.236A1.451 1.451 0 0 0 5.889 4.37a2.429 2.429 0 0 1 1.235-2.047A10.862 10.862 0 0 1 8.83 1.61a2.389 2.389 0 0 1 2.354.495 1.485 1.485 0 0 0 1.999 0 2.393 2.393 0 0 1 2.354-.495 10.881 10.881 0 0 1 1.706.713 2.43 2.43 0 0 1 1.236 2.048 1.449 1.449 0 0 0 1.335 1.335 2.426 2.426 0 0 1 2.047 1.236 10.852 10.852 0 0 1 .713 1.706h0a2.39 2.39 0 0 1-.495 2.354 1.449 1.449 0 0 0 0 1.999 2.389 2.389 0 0 1 .495 2.354 10.832 10.832 0 0 1-.714 1.706 2.428 2.428 0 0 1-2.047 1.235 1.449 1.449 0 0 0-1.335 1.335 2.429 2.429 0 0 1-1.236 2.048 10.852 10.852 0 0 1-1.706.713 2.482 2.482 0 0 1-.758.118zm-2.595-2.013a2.441 2.441 0 0 1 1.689.675 1.374 1.374 0 0 0 1.358.268 9.857 9.857 0 0 0 1.548-.647 1.505 1.505 0 0 0 .702-1.237 2.447 2.447 0 0 1 2.257-2.256 1.504 1.504 0 0 0 1.236-.702 9.837 9.837 0 0 0 .648-1.548 1.377 1.377 0 0 0-.267-1.358 2.45 2.45 0 0 1 0-3.378 1.377 1.377 0 0 0 .267-1.358 9.903 9.903 0 0 0-.647-1.548 1.454 1.454 0 0 0-1.237-.702 2.449 2.449 0 0 1-2.257-2.257 1.457 1.457 0 0 0-.702-1.237 9.902 9.902 0 0 0-1.548-.647 1.374 1.374 0 0 0-1.358.267 2.51 2.51 0 0 1-3.378 0 1.374 1.374 0 0 0-1.358-.267 9.882 9.882 0 0 0-1.548.647 1.456 1.456 0 0 0-.702 1.237A2.449 2.449 0 0 1 4.63 6.703a1.456 1.456 0 0 0-1.238.702 9.932 9.932 0 0 0-.647 1.548 1.377 1.377 0 0 0 .267 1.358 2.45 2.45 0 0 1 0 3.378 1.376 1.376 0 0 0-.267 1.358 9.857 9.857 0 0 0 .647 1.548 1.456 1.456 0 0 0 1.237.702 2.449 2.449 0 0 1 2.256 2.256 1.454 1.454 0 0 0 .702 1.237 9.837 9.837 0 0 0 1.548.648 1.372 1.372 0 0 0 1.358-.268 2.441 2.441 0 0 1 1.689-.675z"/></svg>