<svg xmlns="http://www.w3.org/2000/svg" viewBox="0 0 24 24"><path d="M18.671 8.007h-4.216a14.977 14.977 0 0 0 1.605-1.166l.131-.105a4.26 4.26 0 0 0 1.634-3.152A2.073 2.073 0 0 0 16.824 1.9a2.112 2.112 0 0 0-1.768-.276 4.732 4.732 0 0 0-2.562 2.506l-.048.1-.51 1.158-.51-1.158-.047-.1a4.732 4.732 0 0 0-2.563-2.506 2.116 2.116 0 0 0-1.768.276 2.073 2.073 0 0 0-1.003 1.684A4.263 4.263 0 0 0 7.68 6.736l.131.106a14.992 14.992 0 0 0 1.606 1.166H5.329a2.503 2.503 0 0 0-2.5 2.5v9.454a2.503 2.503 0 0 0 2.5 2.5h13.343a2.503 2.503 0 0 0 2.5-2.5v-9.454a2.503 2.503 0 0 0-2.5-2.5zm1.5 2.5v4.075h-7.59V9.007h6.09a1.502 1.502 0 0 1 1.5 1.5zm-6.825-5.844l.049-.103a3.814 3.814 0 0 1 1.932-1.975 1.108 1.108 0 0 1 .954.153 1.085 1.085 0 0 1 .546.895 3.295 3.295 0 0 1-1.261 2.32l-.136.11c-2.151 1.744-2.633 1.546-2.711 1.487-.255-.193-.354-.853.627-2.889zM8.305 5.954a3.296 3.296 0 0 1-1.26-2.32 1.085 1.085 0 0 1 .547-.895 1.148 1.148 0 0 1 .633-.2 1.161 1.161 0 0 1 .32.047 3.814 3.814 0 0 1 1.932 1.975l.049.102c.981 2.037.883 2.696.627 2.89h-.001c-.074.059-.56.257-2.711-1.487zM5.329 9.007h6.253v5.575H3.829v-4.075a1.502 1.502 0 0 1 1.5-1.5zm-1.5 10.954v-4.379h7.753v5.879H5.329a1.502 1.502 0 0 1-1.5-1.5zm14.843 1.5h-6.09v-5.879h7.59v4.379a1.502 1.502 0 0 1-1.5 1.5z"/></svg>