<svg xmlns="http://www.w3.org/2000/svg" viewBox="0 0 24 24"><path d="M8.261 10.761H4.549a2.503 2.503 0 0 1-2.5-2.5V4.55a2.503 2.503 0 0 1 2.5-2.5h3.712a2.503 2.503 0 0 1 2.5 2.5v3.711a2.503 2.503 0 0 1-2.5 2.5zM4.549 3.05a1.502 1.502 0 0 0-1.5 1.5v3.711a1.502 1.502 0 0 0 1.5 1.5h3.712a1.502 1.502 0 0 0 1.5-1.5V4.55a1.502 1.502 0 0 0-1.5-1.5zm14.902 7.711h-3.712a2.503 2.503 0 0 1-2.5-2.5V4.55a2.503 2.503 0 0 1 2.5-2.5h3.712a2.503 2.503 0 0 1 2.5 2.5v3.711a2.503 2.503 0 0 1-2.5 2.5zM15.739 3.05a1.502 1.502 0 0 0-1.5 1.5v3.711a1.502 1.502 0 0 0 1.5 1.5h3.712a1.502 1.502 0 0 0 1.5-1.5V4.55a1.502 1.502 0 0 0-1.5-1.5zm-7.478 18.9H4.549a2.503 2.503 0 0 1-2.5-2.5v-3.712a2.503 2.503 0 0 1 2.5-2.5h3.712a2.503 2.503 0 0 1 2.5 2.5v3.712a2.503 2.503 0 0 1-2.5 2.5zm-3.712-7.712a1.502 1.502 0 0 0-1.5 1.5v3.712a1.502 1.502 0 0 0 1.5 1.5h3.712a1.502 1.502 0 0 0 1.5-1.5v-3.712a1.502 1.502 0 0 0-1.5-1.5zm14.902 7.712h-3.712a2.503 2.503 0 0 1-2.5-2.5v-3.712a2.503 2.503 0 0 1 2.5-2.5h3.712a2.503 2.503 0 0 1 2.5 2.5v3.712a2.503 2.503 0 0 1-2.5 2.5zm-3.712-7.712a1.502 1.502 0 0 0-1.5 1.5v3.712a1.502 1.502 0 0 0 1.5 1.5h3.712a1.502 1.502 0 0 0 1.5-1.5v-3.712a1.502 1.502 0 0 0-1.5-1.5z"/></svg>