<svg xmlns="http://www.w3.org/2000/svg" viewBox="0 0 24 24"><path d="M21.101 3.44a.974.974 0 0 0-.973-.973h-.812a2.492 2.492 0 0 0-2.138-1.224H6.561a2.499 2.499 0 0 0-2.419 1.9h-.743a.5.5 0 1 0 0 1h.662V5.93h-.662a.5.5 0 0 0 0 1h.662v1.785h-.662a.5.5 0 0 0 0 1h.662V11.5h-.662a.5.5 0 0 0 0 1h.662v1.785h-.662a.5.5 0 0 0 0 1h.662v1.785h-.662a.5.5 0 1 0 0 1h.662v1.785h-.662a.5.5 0 0 0 0 1h.743a2.499 2.499 0 0 0 2.419 1.901h10.617a2.503 2.503 0 0 0 2.5-2.5v-8.567h.45a.974.974 0 0 0 .973-.973V8.922a.944.944 0 0 0-.14-.473.944.944 0 0 0 .14-.473V6.181a.944.944 0 0 0-.14-.473.944.944 0 0 0 .14-.473zm-1.423 4.509V6.208h.423v1.741zm0-4.496l.423-.013v1.768h-.423V3.453zm-1 16.804a1.502 1.502 0 0 1-1.5 1.5H6.561a1.501 1.501 0 0 1-1.374-.901h.059a.5.5 0 0 0 0-1h-.185V18.07h.185a.5.5 0 0 0 0-1h-.185v-1.785h.185a.5.5 0 0 0 0-1h-.185V12.5h.185a.5.5 0 1 0 0-1h-.185V9.715h.185a.5.5 0 0 0 0-1h-.185V6.93h.185a.5.5 0 0 0 0-1h-.185V4.144h.185a.5.5 0 0 0 0-1h-.058a1.501 1.501 0 0 1 1.373-.9h10.617a1.502 1.502 0 0 1 1.5 1.5v16.513zm1-9.567V8.95h.423v1.74zm-5.17 3.183a1.801 1.801 0 0 0-1.742-.044l-.335.172c-.039.02-.136.06-.184.001l-.146-.184a7.629 7.629 0 0 1-1.382-2.695l-.063-.225a.105.105 0 0 1 .053-.121l.391-.2a1.804 1.804 0 0 0 .982-1.439 5.279 5.279 0 0 0-.812-3.071 1.452 1.452 0 0 0-1.768-.61 3.331 3.331 0 0 0-1.104.713 4.644 4.644 0 0 0-1.04 3.532l.018.708a9.184 9.184 0 0 0 3.588 6.729l.33.243a5.262 5.262 0 0 0 2.954 1.263 3.109 3.109 0 0 0 .521-.045 3.334 3.334 0 0 0 1.238-.49 1.432 1.432 0 0 0 .522-1.783 5.283 5.283 0 0 0-2.019-2.452zm.955 3.395a2.336 2.336 0 0 1-.867.345 3.797 3.797 0 0 1-2.73-1.05l-.296-.218a8.189 8.189 0 0 1-3.199-5.996l-.016-.637a3.79 3.79 0 0 1 .741-2.83 2.352 2.352 0 0 1 .775-.498.404.404 0 0 1 .151-.028.459.459 0 0 1 .388.225 4.293 4.293 0 0 1 .673 2.478.797.797 0 0 1-.441.63l-.391.2a1.108 1.108 0 0 0-.558 1.282l.063.225a8.616 8.616 0 0 0 1.561 3.046l.146.184a1.119 1.119 0 0 0 1.422.267l.335-.172a.807.807 0 0 1 .77.01 4.302 4.302 0 0 1 1.617 1.993.436.436 0 0 1-.146.546z"/></svg>