<svg xmlns="http://www.w3.org/2000/svg" viewBox="0 0 24 24" width="24" height="24"><path d="M13.63 4.059l-1.592-.242a5.074 5.074 0 0 0-1.519-.003L2.311 5.028A2.505 2.505 0 0 0 .186 7.715L.37 9.869a2.503 2.503 0 0 0 2.489 2.287l.061-.001.8-.019v4.955a2.497 2.497 0 0 0-1.861 2.407v.759a2.503 2.503 0 0 0 2.5 2.5h5.433a2.503 2.503 0 0 0 2.5-2.5v-.759a2.499 2.499 0 0 0-1.921-2.426l1.662-5.203a5.176 5.176 0 0 0 .679-.171l1.528-.509a1.652 1.652 0 0 0 1.125-1.712l-.335-3.925a1.648 1.648 0 0 0-1.399-1.494zm-2.678 7.906l-1.608 5.033H4.72v-4.885zm.339 7.533v.759a1.502 1.502 0 0 1-1.5 1.5H4.359a1.502 1.502 0 0 1-1.5-1.5v-.759a1.5 1.5 0 0 1 1.471-1.497h5.379l.009-.003h.074a1.502 1.502 0 0 1 1.5 1.5zm2.631-9.257l-1.527.509a4.137 4.137 0 0 1-1.203.209l-8.296.196a1.548 1.548 0 0 1-1.53-1.372l-.184-2.154a1.503 1.503 0 0 1 1.275-1.611l8.209-1.215a4.128 4.128 0 0 1 1.221.003l1.592.242a.653.653 0 0 1 .554.592l.335 3.925a.653.653 0 0 1-.446.677zm5.986-2.389l-.033-.387 3.376-.288a.5.5 0 1 0-.085-.996l-3.375.288-.027-.316a.911.911 0 0 0-.75-.816l-2.265-.395a.884.884 0 0 0-.771.226.901.901 0 0 0-.291.747l.245 2.866a.907.907 0 0 0 1.212.778l2.164-.774a.908.908 0 0 0 .599-.933zm-2.989.726l-.225-2.631 2.079.363.133 1.557z"/><circle cx="8.392" cy="13.813" r=".65"/><path d="M21.02 5.095a.5.5 0 1 0 .754-.656l-1.702-1.956a.5.5 0 0 0-.754.656zm.129 3.504l-1.878 2.288a.5.5 0 0 0 .773.635l1.878-2.288a.5.5 0 0 0-.773-.635zm2.535.335a.489.489 0 0 0-.525-.474.5.5 0 0 0-.474.524l.139 2.715a.5.5 0 0 0 .499.475l.026-.001a.5.5 0 0 0 .474-.524zm-.761-3.976l.026-.001a.5.5 0 0 0 .474-.524l-.139-2.714a.494.494 0 0 0-.525-.474.5.5 0 0 0-.474.524l.139 2.714a.5.5 0 0 0 .499.475z"/></svg>