<svg xmlns="http://www.w3.org/2000/svg" viewBox="0 0 24 24" width="24" height="24"><path d="M23.157 13.614a.498.498 0 0 0-.503.005l-1.598.953-.849-4.517a.5.5 0 0 0-.823-.281l-.996.883-1.431-2.288h-.001v-.001l-.894-1.417-1.003-1.592a.5.5 0 0 0-.698-.15l-1.415.933-.771-4.319a.5.5 0 0 0-.492-.412H3.27a2.683 2.683 0 0 0-2.68 2.68v11.27l.001.005-.001.005v4.545a2.683 2.683 0 0 0 2.68 2.68h17.46a2.683 2.683 0 0 0 2.68-2.68v-5.864a.5.5 0 0 0-.253-.435zm-4.95-1.696a.513.513 0 0 0 .403-.121l.778-.69.707 3.762H8.86V9.133h7.397l1.597 2.555a.5.5 0 0 0 .352.23zM7.86 14.857H1.59V9.133h6.27zM1.59 4.088a1.682 1.682 0 0 1 1.68-1.68h7.996l.831 4.655a.496.496 0 0 0 .295.371.503.503 0 0 0 .473-.042l1.623-1.07.653 1.038v.772H1.59zm0 15.825v-4.045h13.55v5.725H3.27a1.682 1.682 0 0 1-1.68-1.68zm20.819 0a1.682 1.682 0 0 1-1.68 1.68h-4.59v-5.725h6.27z"/></svg>