<svg xmlns="http://www.w3.org/2000/svg" viewBox="0 0 24 24" width="24" height="24"><path d="M22.263 5.052a.516.516 0 0 0-.472-.239l-1.342.119.175-2.841a.5.5 0 0 0-.794-.434l-1.797 1.315-.568-.949a.498.498 0 0 0-.37-.239.482.482 0 0 0-.416.146l-.776.789-.885-.991a.5.5 0 0 0-.839.151l-.76 1.949a.5.5 0 0 0 .932.363l.464-1.189.697.781a.501.501 0 0 0 .361.167.43.43 0 0 0 .369-.149l.697-.709.518.865a.501.501 0 0 0 .33.233.495.495 0 0 0 .395-.087l1.38-1.01-.145 2.356a.501.501 0 0 0 .15.389.514.514 0 0 0 .393.14l.902-.08-.566.881a.5.5 0 0 0 .019.569l.552.741-1.146.49a.5.5 0 0 0 .393.92l1.73-.74a.496.496 0 0 0 .286-.33.502.502 0 0 0-.081-.429l-.724-.972.932-1.448a.5.5 0 0 0 .008-.529zM10.565 4.64a8.9 8.9 0 1 0 8.9 8.899 8.91 8.91 0 0 0-8.9-8.899zm7.762 7.462l-3.142-.849a14.699 14.699 0 0 0-2.312-3.328l.847-1.623a7.92 7.92 0 0 1 4.607 5.8zm-5.351 8.026l1.554.233a7.832 7.832 0 0 1-3.246 1.042l1.692-1.275zm-3.488 1.229a7.85 7.85 0 0 1-3.709-1.547 17.549 17.549 0 0 1-1.014-3.422l2.581-2.172 4.091 1.582.832 3.616a21.636 21.636 0 0 1-2.781 1.943zM3.77 16.519l.38 1.615a7.874 7.874 0 0 1-1.039-2l.659.385zm7.977-1.672l-3.985-1.542a24.87 24.87 0 0 1 .294-3.916 11.736 11.736 0 0 1 4.002-.869 13.701 13.701 0 0 1 2.222 3.146 16.23 16.23 0 0 1-2.533 3.182zM12.77 5.96l-.819 1.57a12.623 12.623 0 0 0-4.308.949L5.575 7.422A7.847 7.847 0 0 1 12.77 5.96zM4.804 8.152l2.263 1.155a25.477 25.477 0 0 0-.29 4.082L4.162 15.59a9 9 0 0 1-1.409-.936 7.73 7.73 0 0 1 2.051-6.502zm10.9 11.375l-2.468-.37-.822-3.571a17.413 17.413 0 0 0 2.675-3.323l3.357.907.019.37a7.88 7.88 0 0 1-2.76 5.987z"/></svg>