<svg xmlns="http://www.w3.org/2000/svg" viewBox="0 0 24 24" width="24" height="24"><path d="M19.517 6.459L8.616 1.73a2.506 2.506 0 0 0-3.288 1.299l-1.49 3.436a2.501 2.501 0 0 0 1.299 3.289l4.341 1.883-2.008 4.454a2.04 2.04 0 0 0-1.025.609H4.623a2.045 2.045 0 0 0-1.022-.609v-.928a1.726 1.726 0 1 0-3.451 0v5.588a1.726 1.726 0 1 0 3.451 0v-.696a2.048 2.048 0 0 0 1.021-.608h1.823a2.05 2.05 0 0 0 3.572-1.373 1.98 1.98 0 0 0-.12-.678l2.1-4.666 4.038 1.752a2.501 2.501 0 0 0 3.288-1.299l1.491-3.435a2.504 2.504 0 0 0-1.299-3.289zM2.601 20.751a.726.726 0 1 1-1.451 0v-5.588a.726.726 0 1 1 1.451 0v5.588zm6.295-3.566a.499.499 0 0 0 .008.427 1.033 1.033 0 0 1 .114.462 1.05 1.05 0 0 1-1.918.591.499.499 0 0 0-.413-.218H4.381a.499.499 0 0 0-.413.218 1.059 1.059 0 0 1-.368.332V17.15a1.06 1.06 0 0 1 .367.333.502.502 0 0 0 .413.218h2.306a.5.5 0 0 0 .413-.219 1.04 1.04 0 0 1 .766-.445.501.501 0 0 0 .408-.293l2.068-4.59.685.297zM19.897 9.35l-1.491 3.435a1.498 1.498 0 0 1-1.973.779L5.535 8.836a1.5 1.5 0 0 1-.779-1.973l1.49-3.436a1.502 1.502 0 0 1 1.973-.779l10.9 4.729a1.502 1.502 0 0 1 .779 1.973zm3.26-.075l-.367-.159a1.151 1.151 0 0 0-1.513.598l-1.661 3.829a1.151 1.151 0 0 0 .598 1.513l.367.159a1.148 1.148 0 0 0 1.512-.598l1.661-3.828a1.153 1.153 0 0 0-.597-1.514zm-.32 1.115l-1.661 3.828a.149.149 0 0 1-.083.081.139.139 0 0 1-.114-.002l-.001-.001-.367-.159a.168.168 0 0 1-.078-.196l1.661-3.829a.152.152 0 0 1 .139-.091.14.14 0 0 1 .059.013l.366.158a.152.152 0 0 1 .079.198z"/></svg>