<svg xmlns="http://www.w3.org/2000/svg" viewBox="0 0 24 24" width="24" height="24"><path d="M14.684 6.406l2.18-2.697a.5.5 0 0 0 .051-.552L15.484.505a.499.499 0 0 0-.44-.263H8.956a.499.499 0 0 0-.44.263l-1.43 2.652a.5.5 0 0 0 .051.552l2.18 2.697a8.884 8.884 0 1 0 5.367 0zm-5.43-5.164h5.492l1.13 2.097-2.221 2.748a8.061 8.061 0 0 0-3.312 0l-2.22-2.748zM12 22.758a7.884 7.884 0 1 1 7.884-7.884A7.893 7.893 0 0 1 12 22.758zM12 7.85a7.023 7.023 0 1 0 7.023 7.023A7.031 7.031 0 0 0 12 7.85zm0 13.046a6.023 6.023 0 1 1 6.023-6.022A6.03 6.03 0 0 1 12 20.896z"/></svg>