<svg xmlns="http://www.w3.org/2000/svg" viewBox="0 0 24 24" width="24" height="24"><path d="M9.991 16.14l.928-.928a.5.5 0 0 0 0-.707L9.495 13.08a.515.515 0 0 0-.707 0l-.928.929-.929-.929a.515.515 0 0 0-.707 0L4.8 14.505a.5.5 0 0 0 0 .707l.928.928-.928.929a.5.5 0 0 0 0 .707l1.424 1.425a.5.5 0 0 0 .707 0l.929-.929.928.929a.5.5 0 0 0 .707 0l1.424-1.425a.5.5 0 0 0 0-.707zm-1.061.354l.928.929-.717.718-.928-.929a.5.5 0 0 0-.707 0l-.929.929-.717-.718.928-.929a.5.5 0 0 0 0-.707l-.928-.928.717-.718.929.929a.515.515 0 0 0 .707 0l.928-.929.717.718-.928.928a.5.5 0 0 0 0 .707zm13.906-9.31A5.512 5.512 0 0 0 21.21 3.26l-.469-.47a5.55 5.55 0 0 0-7.85 0L2.79 12.89a5.557 5.557 0 0 0 0 7.851l.469.469a5.55 5.55 0 0 0 7.85 0l5.011-5.011.001-.001.001-.001 5.087-5.087a5.516 5.516 0 0 0 1.626-3.925zM10.402 20.503a4.551 4.551 0 0 1-6.436 0l-.469-.469a4.557 4.557 0 0 1 0-6.437l4.658-4.658 6.906 6.905zm5.365-5.365L8.862 8.232l4.735-4.735a4.551 4.551 0 0 1 6.436 0l.469.47a4.55 4.55 0 0 1 0 6.436z"/></svg>