<svg xmlns="http://www.w3.org/2000/svg" viewBox="0 0 24 24" width="24" height="24"><path d="M22.085 5.179a.5.5 0 0 0-.707 0l-2.456 2.456-.083-.101-2.374-2.373c-.031-.031-.069-.053-.102-.082l2.457-2.457a.5.5 0 1 0-.707-.707l-2.659 2.659a2.546 2.546 0 0 0-2.524.587l-.935.934-.082-.082a2.503 2.503 0 0 0-3.536 0L2.64 11.753a2.499 2.499 0 0 0 0 3.535l1.878 1.878a1.718 1.718 0 0 0 0 1.611l-2.602 2.602a.5.5 0 1 0 .707.707l2.602-2.602a1.66 1.66 0 0 0 1.61 0l1.877 1.877a2.502 2.502 0 0 0 3.536 0l5.739-5.738a2.504 2.504 0 0 0 0-3.536l-.082-.082.935-.935a2.443 2.443 0 0 0 .6-2.537l2.646-2.646a.5.5 0 0 0 0-.707zM5.519 18.481a.72.72 0 0 1-.21-.523l.734.734a.775.775 0 0 1-.523-.211zm11.76-3.566l-5.739 5.738a1.504 1.504 0 0 1-2.122 0l-6.072-6.072a1.499 1.499 0 0 1 0-2.121l5.739-5.739a1.504 1.504 0 0 1 2.122 0l.434.434.001.001 5.202 5.202.003.002.433.433a1.503 1.503 0 0 1 0 2.122zm.853-4.553l-.935.935-4.495-4.495.935-.934a1.536 1.536 0 0 1 2.121 0l2.374 2.373a1.501 1.501 0 0 1 0 2.121z"/></svg>