<svg xmlns="http://www.w3.org/2000/svg" viewBox="0 0 24 24"><path d="M10.051 22.769a3.257 3.257 0 0 1-.834-.112 4.058 4.058 0 0 1-2.568-2.617 5.925 5.925 0 0 0-1.056-1.692 5.739 5.739 0 0 0-1.573-.967c-1.094-.527-2.333-1.125-2.737-2.66a3.044 3.044 0 0 1 .358-2.437 5.39 5.39 0 0 1 3.426-2.141c1.763-.355 5.712-.183 7.313 1.417s1.771 5.55 1.416 7.312a5.386 5.386 0 0 1-2.153 3.437 2.992 2.992 0 0 1-1.592.461zM6.858 10.994a8.479 8.479 0 0 0-1.594.13 4.369 4.369 0 0 0-2.775 1.689 2.04 2.04 0 0 0-.239 1.654c.286 1.088 1.175 1.517 2.205 2.013A6.517 6.517 0 0 1 6.3 17.64a6.767 6.767 0 0 1 1.25 1.967c.484 1.008.867 1.804 1.924 2.083a2.023 2.023 0 0 0 1.642-.231 4.371 4.371 0 0 0 1.7-2.784c.311-1.545.113-5.151-1.143-6.407-.921-.921-3.106-1.273-4.814-1.273zm.698-3.46c-1.043 0-1.86-1.213-1.86-2.761s.817-2.76 1.86-2.76 1.86 1.212 1.86 2.76-.817 2.761-1.86 2.761zm0-4.521c-.406 0-.86.753-.86 1.76s.454 1.761.86 1.761.86-.753.86-1.761-.454-1.76-.86-1.76zm11.24 16.581c-1.548 0-2.76-.816-2.76-1.859s1.212-1.86 2.76-1.86 2.76.817 2.76 1.86-1.212 1.859-2.76 1.859zm0-2.72c-1.007 0-1.76.454-1.76.86s.753.859 1.76.859 1.76-.454 1.76-.859-.752-.86-1.76-.86zm-.326-3.014a3.124 3.124 0 0 1-2.049-.687 2.245 2.245 0 0 1-.796-1.776 3.472 3.472 0 0 1 1.43-2.574c1.57-1.262 3.757-1.424 4.978-.367a2.24 2.24 0 0 1 .794 1.774 3.475 3.475 0 0 1-1.429 2.575 4.791 4.791 0 0 1-2.928 1.055zm1.521-5.093a3.804 3.804 0 0 0-2.312.836l-.002.002a2.522 2.522 0 0 0-1.052 1.81 1.246 1.246 0 0 0 .446.999c.838.716 2.535.539 3.705-.392a2.524 2.524 0 0 0 1.052-1.81 1.247 1.247 0 0 0-.446-.999 2.112 2.112 0 0 0-1.39-.446zm-2.625.446h0zm-3.239-.885c-.047 0-.095-.001-.142-.004a2.262 2.262 0 0 1-1.72-.923c-.957-1.304-.628-3.473.747-4.939a3.507 3.507 0 0 1 2.666-1.229 2.266 2.266 0 0 1 1.721.923c.948 1.29.62 3.458-.744 4.937l-.001.002a3.543 3.543 0 0 1-2.525 1.233zm1.411-6.099a2.589 2.589 0 0 0-1.795.915c-1.022 1.091-1.33 2.768-.673 3.663a1.26 1.26 0 0 0 .971.519 2.581 2.581 0 0 0 1.879-.912c1.016-1.101 1.324-2.778.674-3.664a1.258 1.258 0 0 0-.971-.518l-.084-.003zm.749 4.524h0z"/></svg>