<svg xmlns="http://www.w3.org/2000/svg" viewBox="0 0 24 24"><path d="M12 13.506c-7.119 0-11.901-1.222-11.901-3.039 0-.623.474-1.427 4.171-2.122a1.243 1.243 0 0 0 .962-.849l1.032-3.299a2.497 2.497 0 0 1 2.854-1.709l2.325.443a2.969 2.969 0 0 0 1.114 0l2.325-.443a2.497 2.497 0 0 1 2.854 1.709l1.033 3.3a1.242 1.242 0 0 0 .961.848c3.697.695 4.171 1.499 4.171 2.122 0 1.817-4.783 3.039-11.901 3.039zM8.648 3.443a1.5 1.5 0 0 0-1.43 1.053L6.186 7.795a2.24 2.24 0 0 1-1.731 1.532c-2.566.482-3.295 1.003-3.359 1.163.003.408 2.729 2.016 10.905 2.016s10.901-1.607 10.901-2.039c-.061-.137-.79-.657-3.356-1.14a2.238 2.238 0 0 1-1.731-1.532l-1.033-3.299a1.492 1.492 0 0 0-1.712-1.025l-2.325.443a3.978 3.978 0 0 1-1.489 0l-2.325-.443a1.465 1.465 0 0 0-.282-.027zm.097 16.353a4.077 4.077 0 0 1-.688-.06 3.506 3.506 0 0 1-1.429-.562 1.121 1.121 0 0 1 .366-2.123A3.523 3.523 0 0 1 8.529 17a3.507 3.507 0 0 1 1.428.563 1.12 1.12 0 0 1-.366 2.122 3.034 3.034 0 0 1-.846.111zm-.9-1.855a1.242 1.242 0 0 0-.853.218 1.9 1.9 0 0 0 1.234.592 1.813 1.813 0 0 0 1.357-.159 1.804 1.804 0 0 0-1.225-.604 2.946 2.946 0 0 0-.514-.046z"/><path d="M8.573 21.557a3.145 3.145 0 0 1-.33-.018c-1.624-.171-4.356-1.395-4.775-3.951a2.035 2.035 0 0 1 .49-1.966 2.391 2.391 0 0 1 2.082-.312h0a42.852 42.852 0 0 0 5.805.413 41.782 41.782 0 0 0 5.838-.422 2.357 2.357 0 0 1 2.047.32 2.033 2.033 0 0 1 .49 1.966c-.418 2.557-3.151 3.78-4.775 3.951a4.101 4.101 0 0 1-3.143-1.193.661.661 0 0 0-.916 0 4.148 4.148 0 0 1-2.812 1.211zm3.285-2.395a1.668 1.668 0 0 1 1.203.534 3.128 3.128 0 0 0 2.279.85c1.123-.118 3.552-1.036 3.893-3.119.06-.36.079-.837-.164-1.054a1.455 1.455 0 0 0-1.142-.101l-.059.013a41.668 41.668 0 0 1-6.024.439 41.679 41.679 0 0 1-6.024-.44c-.261-.07-.904-.175-1.2.088-.243.217-.224.693-.165 1.054.341 2.083 2.771 3.001 3.893 3.119a3.074 3.074 0 0 0 2.278-.85 1.699 1.699 0 0 1 1.224-.534zm5.93-3.37h0z"/><path d="M14.943 19.796a3.033 3.033 0 0 1-.846-.111 1.207 1.207 0 0 1-.983-.923h0a1.209 1.209 0 0 1 .617-1.199A3.506 3.506 0 0 1 15.159 17a3.549 3.549 0 0 1 1.534.051 1.121 1.121 0 0 1 .366 2.123 3.506 3.506 0 0 1-1.429.563 4.077 4.077 0 0 1-.688.06zm-.839-1.205a1.81 1.81 0 0 0 1.357.159c.797-.137 1.208-.504 1.229-.62a1.896 1.896 0 0 0-1.361-.144 1.805 1.805 0 0 0-1.226.604z"/></svg>