<svg xmlns="http://www.w3.org/2000/svg" viewBox="0 0 24 24" width="24" height="24"><path d="M20.277 9.756h-.832a1.413 1.413 0 0 0-.414.068l-.027-.834c-.015-.174-.012-.351-.01-.528a4.804 4.804 0 0 0-.046-.881 1.821 1.821 0 0 0-.902-1.333 2.54 2.54 0 0 0-.744-.216 1.041 1.041 0 0 1-.505-.163 1.072 1.072 0 0 1-.158-.473 2.558 2.558 0 0 0-.2-.656 2.012 2.012 0 0 1 .772-1.659 1.533 1.533 0 0 1 .25-.148l.003.163a2.63 2.63 0 0 0 .724 1.859 1.733 1.733 0 0 0 1.17.461l.052-.001a1.379 1.379 0 0 0 .979-.427l.107-.18a2.334 2.334 0 0 0-1.789-2.988.368.368 0 0 1 .019-.033 1.138 1.138 0 0 1 .877-.59.501.501 0 0 0 .479-.521.506.506 0 0 0-.521-.479 2.129 2.129 0 0 0-1.697 1.082 2.682 2.682 0 0 0-.246.552 2.639 2.639 0 0 0-.997.441 2.932 2.932 0 0 0-1.108 1.743l-.291-.08a1.382 1.382 0 0 1-.517-.196 1.079 1.079 0 0 1-.237-.609l-.023-.155a2.74 2.74 0 0 0-.281-.996c-.519-.924-1.741-.869-2.55-.834l-.385.012H9.034c-2.232 0-4.048 1.476-4.048 3.289V9.83a1.413 1.413 0 0 0-.431-.074h-.832a1.432 1.432 0 0 0-1.431 1.431v8.544a1.012 1.012 0 0 0 1.011 1.011h.585l.58 2.634a.5.5 0 0 0 .488.393H6.28a.5.5 0 0 0 .488-.393l.58-2.634h9.29l.586 2.669a.5.5 0 0 0 .488.393h1.32a.5.5 0 0 0 .488-.393l.585-2.669h.592a1.012 1.012 0 0 0 1.011-1.011v-8.544a1.432 1.432 0 0 0-1.431-1.431zm-1.815-6.965a1.409 1.409 0 0 1 .493.178 1.379 1.379 0 0 1 .626 1.396.453.453 0 0 1-.205.052.723.723 0 0 1-.502-.187 1.735 1.735 0 0 1-.412-1.172v-.266zM5.985 4.445c0-1.262 1.368-2.289 3.048-2.289h2.196l.429-.013c.598-.029 1.416-.062 1.635.325a1.951 1.951 0 0 1 .162.647l.024.168a1.92 1.92 0 0 0 .573 1.213 2.122 2.122 0 0 0 .926.408 1.118 1.118 0 0 1 .525.213 1.16 1.16 0 0 1 .154.472 1.817 1.817 0 0 0 .42.975 1.782 1.782 0 0 0 1.052.453 1.713 1.713 0 0 1 .459.119.844.844 0 0 1 .375.613 4.053 4.053 0 0 1 .032.702l.014.624a11.886 11.886 0 0 1 .016 1.274l-.009.617v2.479H5.985v-9zm12.03 15.285v.011H5.985v-5.294h12.029zm-14.723 0v-8.544a.431.431 0 0 1 .431-.431h.832a.431.431 0 0 1 .431.431v8.544a.011.011 0 0 1-.011.011zm2.586 3.037h-.521l-.423-1.922H6.3zm12.751.035h-.515l-.422-1.922h1.358zm2.079-3.072a.011.011 0 0 1-.011.011l-1.683-.011v-8.544a.431.431 0 0 1 .431-.431h.832a.431.431 0 0 1 .431.431zM10.305 6.524a.509.509 0 0 0 .114-.013l2.057-.48a.501.501 0 0 0-.228-.975l-2.057.481a.5.5 0 0 0 .113.987zm1.866 2.494a.501.501 0 0 0 .706-.046l1.322-1.506a.5.5 0 1 0-.752-.66l-1.322 1.506a.501.501 0 0 0 .046.706zm3.303 1.3a.473.473 0 0 0 .082.007.5.5 0 0 0 .493-.418l.297-1.799a.5.5 0 0 0-.986-.164l-.297 1.799a.5.5 0 0 0 .412.575z"/></svg>