<svg xmlns="http://www.w3.org/2000/svg" viewBox="0 0 24 24" width="24" height="24"><path d="M5.716 13.194a.501.501 0 0 0-.703-.073 1.907 1.907 0 0 0 2.407 2.958l3.993-3.24a.5.5 0 0 0-.63-.777l-3.993 3.24a.912.912 0 0 1-1.278-.131.904.904 0 0 1 .131-1.272.501.501 0 0 0 .073-.704zM20.21 9.106A7.248 7.248 0 0 0 6.341 6.753a4.617 4.617 0 0 0-.915-.096 5.123 5.123 0 0 0-3.707 8.672.5.5 0 0 0 .721-.693 4.123 4.123 0 0 1 2.986-6.979 4.05 4.05 0 0 1 1.085.164l.442.121.159-.431A6.249 6.249 0 0 1 19.23 9.583l.033.517.521-.028a2.918 2.918 0 1 1 0 5.836l-4.715.005a.471.471 0 0 0-.067.014 1.06 1.06 0 0 0-.242.094l-5.143 4.052a1.435 1.435 0 0 1-1.956-.153l9.611-7.798a.5.5 0 0 0-.63-.777l-9.35 7.586c.001-.039-.015-.076-.011-.115a1.419 1.419 0 0 1 .522-.964.5.5 0 0 0-.63-.777 2.429 2.429 0 0 0-.794 2.596l-.621.504a1.879 1.879 0 0 1-2.638-.271 1.867 1.867 0 0 1 .271-2.63.5.5 0 0 0-.63-.777 2.872 2.872 0 0 0 3.626 4.455l.491-.398a2.427 2.427 0 0 0 3.362.3l5.001-3.941 4.542-.005a3.911 3.911 0 0 0 .426-7.801z"/></svg>