<svg xmlns="http://www.w3.org/2000/svg" viewBox="0 0 24 24"><path d="M23.742 17.255C22.611 11.044 17.673 6.535 12 6.535S1.389 11.044.259 17.254a2.78 2.78 0 0 0 .59 2.292 2.42 2.42 0 0 0 1.852.899h18.6a2.419 2.419 0 0 0 1.854-.897 2.782 2.782 0 0 0 .589-2.293zm-1.357 1.654a1.426 1.426 0 0 1-1.085.536H2.7a1.423 1.423 0 0 1-1.083-.539 1.781 1.781 0 0 1-.375-1.472C2.286 11.698 6.811 7.535 12 7.535s9.714 4.163 10.759 9.9a1.79 1.79 0 0 1-.374 1.474zM12 5.495a.72.72 0 1 0-.72-.72.72.72 0 0 0 .72.72zm-2.207 7.998c-.021-.013-.047-.017-.069-.029a2.031 2.031 0 1 0-2.679.008 2.812 2.812 0 0 0-1.475 2.463 2.846 2.846 0 0 0 .073.654.499.499 0 0 0 .486.386.463.463 0 0 0 .114-.014.499.499 0 0 0 .372-.601 1.897 1.897 0 0 1-.046-.426 1.822 1.822 0 0 1 1.814-1.82 1.788 1.788 0 0 1 .903.241.5.5 0 1 0 .506-.863zM8.38 10.925a1.03 1.03 0 1 1-1.03 1.03 1.031 1.031 0 0 1 1.03-1.03zm8.815 2.784a1.839 1.839 0 1 0-2.578-.007.499.499 0 0 0 .52.852 1.523 1.523 0 0 1 2.293 1.312 1.602 1.602 0 0 1-.062.426.499.499 0 0 0 .348.615.491.491 0 0 0 .134.019.499.499 0 0 0 .481-.366 2.595 2.595 0 0 0 .099-.693 2.513 2.513 0 0 0-1.235-2.156zm-1.285-2.154a.84.84 0 1 1-.84.841.841.841 0 0 1 .84-.841zm-2.602 4.421a1.47 1.47 0 1 0-2.264-.01 1.956 1.956 0 0 0-.834 1.599 1.753 1.753 0 0 0 .058.472.5.5 0 1 0 .965-.264.767.767 0 0 1-.022-.208.961.961 0 0 1 .96-.96.973.973 0 0 1 .96.96.772.772 0 0 1-.034.241.5.5 0 0 0 .949.316 1.79 1.79 0 0 0 .085-.558 1.955 1.955 0 0 0-.822-1.59zm-1.128-1.401a.47.47 0 1 1-.47.47.471.471 0 0 1 .47-.47z"/></svg>