<svg xmlns="http://www.w3.org/2000/svg" viewBox="0 0 24 24" width="24" height="24"><path d="M23.476 8.854L13.384 2.038a2.487 2.487 0 0 0-2.801.002L8.218 3.643V3.11a1.502 1.502 0 0 0-1.5-1.5H5.415a1.502 1.502 0 0 0-1.5 1.5v3.448L.524 8.855a.5.5 0 1 0 .561.828l1.305-.884-.028 11.092a2.503 2.503 0 0 0 2.5 2.5h14.275a2.502 2.502 0 0 0 2.5-2.499l.028-11.052 1.249.844a.5.5 0 0 0 .561-.829zM4.915 3.11a.501.501 0 0 1 .5-.5h1.303a.501.501 0 0 1 .5.5v1.196l.002.012L4.915 5.88zM9.52 21.39v-5.008a1.502 1.502 0 0 1 1.5-1.5h1.962a1.502 1.502 0 0 1 1.5 1.5v5.008zm11.118-1.5a1.502 1.502 0 0 1-1.5 1.5h-3.656v-5.008a2.503 2.503 0 0 0-2.5-2.5H11.02a2.503 2.503 0 0 0-2.5 2.5v5.008H4.862a1.501 1.501 0 0 1-1.5-1.499l.03-11.771 7.752-5.252a1.493 1.493 0 0 1 1.681 0l7.844 5.298zM9.894 9.269a2.111 2.111 0 1 0 2.111-2.111 2.114 2.114 0 0 0-2.111 2.111zm3.223 0a1.111 1.111 0 1 1-1.111-1.111 1.113 1.113 0 0 1 1.111 1.111z"/></svg>