<svg xmlns="http://www.w3.org/2000/svg" viewBox="0 0 24 24"><circle cx="18.176" cy="5.899" r="1.03"/><path d="M23.447 19.444l-.036-.203a2.976 2.976 0 0 0-.499-1.397 4.546 4.546 0 0 0-1.463-1.153l-.654-.29a4.467 4.467 0 0 1-1.03-.53 5.355 5.355 0 0 1-.997-1.195 5.425 5.425 0 0 0-1.408-1.561 4.242 4.242 0 0 0-1.303-.588 9.951 9.951 0 0 1 1.042-3.645 1.365 1.365 0 0 0 2.317-.283l.14-.311.345.036a1.371 1.371 0 0 0 1.246-2.162l-.199-.273.201-.276a1.37 1.37 0 0 0-1.252-2.157l-.342.035-.14-.31a1.342 1.342 0 0 0-1.224-.805 1.434 1.434 0 0 0-1.274.804l-.14.311-.345-.036a1.369 1.369 0 0 0-1.318.68 1.355 1.355 0 0 0 .073 1.482l.198.272-.201.277a1.353 1.353 0 0 0-.07 1.479 1.335 1.335 0 0 0 1.15.672 11.075 11.075 0 0 0-1.2 4.097 6.438 6.438 0 0 0-1.552.255.5.5 0 1 0 .263.965 3.269 3.269 0 0 1 3.033.315 4.612 4.612 0 0 1 1.136 1.292 6.147 6.147 0 0 0 1.205 1.417 5.292 5.292 0 0 0 1.264.667l.586.258a3.559 3.559 0 0 1 1.139.892 2.341 2.341 0 0 1 .289.937l.04.227a.835.835 0 0 1-.169.698.773.773 0 0 1-.608.288H11.686A2.248 2.248 0 0 1 9.74 19.61l1.656-1.039a.5.5 0 0 0 .039-.82l-1.551-1.192 1.265-1.569a.499.499 0 0 0-.013-.643l-.785-.896 1.536-.63a.501.501 0 0 0 .255-.691l-.703-1.368 1.97-.85a.5.5 0 0 0 .156-.812L8.105 3.641a.5.5 0 0 0-.707 0L4.823 6.216a.5.5 0 0 0 0 .707l.459.459-4.371 6.954a2.544 2.544 0 0 0 .357 3.176l3.111 3.111a2.542 2.542 0 0 0 3.174.358l1.341-.841a3.203 3.203 0 0 0 2.792 1.484h10.002a1.777 1.777 0 0 0 1.382-.654 1.832 1.832 0 0 0 .376-1.525zm-7.468-12.3a.355.355 0 0 1 .016-.395l.412-.567a.501.501 0 0 0 0-.588l-.409-.562a.358.358 0 0 1-.019-.398.373.373 0 0 1 .354-.185l.7.072a.493.493 0 0 0 .507-.291l.286-.632a.379.379 0 0 1 .349-.223.373.373 0 0 1 .327.211l.002.005.289.639a.5.5 0 0 0 .507.291l.697-.071a.37.37 0 0 1 .341.578l-.412.566a.501.501 0 0 0 0 .588l.41.563a.358.358 0 0 1 .019.398.363.363 0 0 1-.354.185l-.7-.072a.506.506 0 0 0-.507.291l-.288.638a.372.372 0 0 1-.676.001l-.254-.563-.005-.011-.029-.065a.486.486 0 0 0-.157-.181.468.468 0 0 0-.046-.038l-.005-.004a.493.493 0 0 0-.203-.057c-.016-.002-.029-.013-.045-.013a.452.452 0 0 0-.051.003l-.697.071a.353.353 0 0 1-.357-.184zm-8.958 12.99a1.55 1.55 0 0 1-1.934-.219l-3.111-3.111a1.55 1.55 0 0 1-.219-1.936l4.584-7.293a.499.499 0 0 0-.07-.619l-.388-.388 1.868-1.868 4.585 4.585-1.785.77a.5.5 0 0 0-.247.688l.699 1.359-1.68.688a.5.5 0 0 0-.186.792l.969 1.106-1.322 1.641a.499.499 0 0 0 .084.71l1.387 1.065-1.355.85-.004.001a.497.497 0 0 0-.174.111z"/></svg>