<svg xmlns="http://www.w3.org/2000/svg" viewBox="0 0 24 24"><path d="M8.423 10.765a.5.5 0 0 0 .494-.869A5.926 5.926 0 0 0 7.762 9.4a4.011 4.011 0 1 0-3.524-.011A5.819 5.819 0 0 0 .2 14.92a5.575 5.575 0 0 0 .164 1.361.5.5 0 0 0 .485.379.519.519 0 0 0 .121-.015.501.501 0 0 0 .364-.606A4.556 4.556 0 0 1 1.2 14.92a4.813 4.813 0 0 1 4.777-4.806c.011.001.021.007.032.007a4.82 4.82 0 0 1 2.413.645zM3 5.81a3.01 3.01 0 1 1 3.01 3.01A3.014 3.014 0 0 1 3 5.81zm17.354 4.137a3.56 3.56 0 1 0-3.378-.005 5.118 5.118 0 0 0-.921.418.5.5 0 0 0 .51.859A4.127 4.127 0 0 1 22.8 14.77a4.05 4.05 0 0 1-.159 1.139.5.5 0 1 0 .959.281 5.034 5.034 0 0 0 .2-1.42 5.12 5.12 0 0 0-3.446-4.823zM16.11 6.83a2.56 2.56 0 1 1 2.56 2.561 2.563 2.563 0 0 1-2.56-2.561zm.06 7.63h-1.59a.3.3 0 0 1-.3-.3v-1.59a1.301 1.301 0 0 0-1.3-1.3h-1.95a1.301 1.301 0 0 0-1.3 1.3v1.59a.301.301 0 0 1-.301.3H7.84a1.301 1.301 0 0 0-1.3 1.3v1.95a1.301 1.301 0 0 0 1.3 1.3h1.59a.305.305 0 0 1 .301.301v1.59a1.301 1.301 0 0 0 1.3 1.3h1.95a1.301 1.301 0 0 0 1.3-1.3v-1.59a.301.301 0 0 1 .3-.301h1.59a1.301 1.301 0 0 0 1.3-1.3v-1.95a1.301 1.301 0 0 0-1.3-1.3zm.3 3.25a.301.301 0 0 1-.3.3h-1.59a1.302 1.302 0 0 0-1.3 1.301v1.59a.304.304 0 0 1-.3.3h-1.95a.304.304 0 0 1-.3-.3v-1.59a1.303 1.303 0 0 0-1.3-1.301H7.84a.304.304 0 0 1-.3-.3v-1.95a.304.304 0 0 1 .3-.3h1.59a1.302 1.302 0 0 0 1.301-1.3v-1.59a.301.301 0 0 1 .3-.3h1.95a.304.304 0 0 1 .3.3v1.59a1.301 1.301 0 0 0 1.3 1.3h1.59a.304.304 0 0 1 .3.3z"/></svg>