<svg xmlns="http://www.w3.org/2000/svg" viewBox="0 0 24 24" width="24" height="24"><path d="M23.471 8.856L13.379 2.035a2.505 2.505 0 0 0-2.789.011L8.21 3.657V3.11a1.502 1.502 0 0 0-1.5-1.5h-1.3a1.502 1.502 0 0 0-1.5 1.5v3.457L.529 8.856a.5.5 0 1 0 .561.828l1.298-.879L2.36 19.89a2.502 2.502 0 0 0 2.5 2.5h14.28a2.502 2.502 0 0 0 2.5-2.499l.028-11.047 1.242.84a.5.5 0 1 0 .561-.828zM4.91 3.11a.501.501 0 0 1 .5-.5h1.3a.501.501 0 0 1 .5.5v1.2c0 .007.004.013.004.021L4.91 5.891zm15.73 16.78a1.502 1.502 0 0 1-1.5 1.5H4.86a1.501 1.501 0 0 1-1.5-1.499l.03-11.763 7.764-5.256a1.494 1.494 0 0 1 1.666-.008l7.85 5.306zM7.778 7.698A1.679 1.679 0 0 0 6.72 9.24v4.01a6.769 6.769 0 0 0 3.136 5.638l1.249.82a1.69 1.69 0 0 0 1.853-.002l1.23-.82a6.771 6.771 0 0 0 3.093-5.605V9.24a1.678 1.678 0 0 0-1.057-1.541 10.962 10.962 0 0 0-8.445-.001zM16.28 9.24v4.04a5.773 5.773 0 0 1-2.647 4.773l-1.23.82a.679.679 0 0 1-.745 0l-.003-.002-1.25-.82A5.773 5.773 0 0 1 7.72 13.25V9.24a.684.684 0 0 1 .443-.619 9.961 9.961 0 0 1 7.676.001.674.674 0 0 1 .441.618z"/></svg>