<svg xmlns="http://www.w3.org/2000/svg" viewBox="0 0 24 24"><path d="M10.343 20.663h-.233v-.195a1.796 1.796 0 0 0-1.793-1.793H2.686a1.796 1.796 0 0 0-1.793 1.793v.195H.66a.5.5 0 0 0-.5.5v1.988a.5.5 0 0 0 .5.5h9.683a.5.5 0 0 0 .5-.5v-1.988a.5.5 0 0 0-.5-.5zm-8.451-.195a.794.794 0 0 1 .793-.793h5.631a.794.794 0 0 1 .793.793v.195H1.893zm7.951 2.184H1.16v-.988h8.683zm13.922-8.529a1.231 1.231 0 0 0-.643-.701L10.888 7.721l.696-1.493a1.204 1.204 0 0 0 .728-.029 1.185 1.185 0 0 0 .674-.619l.227-.486a1.194 1.194 0 0 0-.579-1.588L6.1.461a1.194 1.194 0 0 0-1.588.579l-.227.486a1.196 1.196 0 0 0 .406 1.49L2.089 8.6a1.213 1.213 0 0 0-.728.029 1.185 1.185 0 0 0-.674.619l-.227.486a1.194 1.194 0 0 0 .579 1.588l6.533 3.044a1.186 1.186 0 0 0 .504.112 1.216 1.216 0 0 0 .41-.072 1.186 1.186 0 0 0 .674-.618l.227-.486a1.199 1.199 0 0 0-.406-1.49l.703-1.51 12.234 5.7a1.238 1.238 0 0 0 .525.117 1.257 1.257 0 0 0 .425-.075 1.232 1.232 0 0 0 .701-.644l.154-.329a1.234 1.234 0 0 0 .042-.949zM5.191 1.948l.227-.486a.22.22 0 0 1 .26-.095l6.533 3.044a.22.22 0 0 1 .095.26l-.227.486a.224.224 0 0 1-.26.095l-.272-.126h-.001L5.562 2.337l-.002-.001-.274-.128a.196.196 0 0 1-.095-.26zm3.29 10.932l-.227.486a.224.224 0 0 1-.26.095l-6.533-3.044a.22.22 0 0 1-.095-.26l.227-.486a.221.221 0 0 1 .193-.108.146.146 0 0 1 .066.014l.273.128h.002l5.985 2.789h.001l.273.127a.196.196 0 0 1 .095.26zm-.399-1.504l-5.08-2.367L5.59 3.453l5.08 2.367-.9 1.931-.001.001-.781 1.676h0zm14.736 3.274l-.154.33a.241.241 0 0 1-.136.126.234.234 0 0 1-.184-.009h-.001l-12.235-5.7.359-.769 12.233 5.7a.241.241 0 0 1 .117.321z"/></svg>