<svg xmlns="http://www.w3.org/2000/svg" viewBox="0 0 24 24"><path d="M17.058 23.734H6.909a1.144 1.144 0 0 1-1.142-1.143v-.446a1.143 1.143 0 0 1 1.142-1.142h10.149a1.143 1.143 0 0 1 1.143 1.142v.446a1.144 1.144 0 0 1-1.143 1.143zm-10.149-1.73a.142.142 0 0 0-.142.142v.446a.142.142 0 0 0 .142.143h10.149a.142.142 0 0 0 .143-.143v-.446a.142.142 0 0 0-.143-.142zm5.07-1.662a9.307 9.307 0 0 1-.959-.05 8.203 8.203 0 0 1-7.345-8.223c0-.16.033-3.943 2.927-5.986a5.511 5.511 0 0 0 2.374-4.646A1.127 1.127 0 0 1 9.45.515a1.315 1.315 0 0 1 1.163-.187c2.92.936 9.71 4.019 9.71 12.43a7.205 7.205 0 0 1-2.463 5.382 8.76 8.76 0 0 1-5.882 2.202zM4.676 12.07a7.207 7.207 0 0 0 6.446 7.228 7.848 7.848 0 0 0 6.069-1.9 6.219 6.219 0 0 0 2.133-4.64c0-7.753-6.305-10.608-9.015-11.477a.292.292 0 0 0-.266.039.142.142 0 0 0-.066.109 6.488 6.488 0 0 1-2.797 5.47c-2.463 1.739-2.504 5.133-2.504 5.171zm7.196 6.376a3.917 3.917 0 0 1-1.389-.254 3.344 3.344 0 0 1-1.961-4.237 3.63 3.63 0 0 1 2.019-2.156 2.028 2.028 0 0 0 1.292-1.336.764.764 0 0 1 .478-.489.829.829 0 0 1 .72.081 5.161 5.161 0 0 1 2.282 6.037 3.347 3.347 0 0 1-1.777 1.979 3.855 3.855 0 0 1-1.664.375zm-2.4-4.182a2.357 2.357 0 0 0 1.365 2.992 2.896 2.896 0 0 0 2.266-.087 2.361 2.361 0 0 0 1.258-1.387 4.072 4.072 0 0 0-1.674-4.752 3.02 3.02 0 0 1-1.809 1.709 2.651 2.651 0 0 0-1.406 1.524zm-.475-.155h0z"/></svg>