<svg xmlns="http://www.w3.org/2000/svg" viewBox="0 0 24 24"><path d="M20.378 21.736h-2.693v-5.052a2.502 2.502 0 0 0-1.079-2.057l-3.75-2.589 3.747-2.588a2.501 2.501 0 0 0 1.079-2.057V2.264h2.741a.5.5 0 0 0 0-1H3.622a.5.5 0 1 0 0 1H6.27v5.129A2.502 2.502 0 0 0 7.35 9.45l3.747 2.587-3.75 2.59a2.501 2.501 0 0 0-1.079 2.057v5.052h-2.69a.5.5 0 0 0 0 1h16.801a.5.5 0 0 0 0-1zM7.918 8.627a1.503 1.503 0 0 1-.647-1.234V2.264h9.411v5.129a1.501 1.501 0 0 1-.647 1.234l-4.058 2.803zm-.65 8.057a1.501 1.501 0 0 1 .647-1.234l4.061-2.805 4.061 2.804a1.503 1.503 0 0 1 .647 1.234v5.052H7.267zm2.391-9.075a1.5 1.5 0 0 1-.644-1.232V4.212a.5.5 0 1 0-1 0v2.166A2.502 2.502 0 0 0 9.089 8.43l1.219.846a.5.5 0 1 0 .57-.821zm5.359 8.032l-1.219-.847a.5.5 0 0 0-.57.821l1.219.847a1.499 1.499 0 0 1 .644 1.232v2.165a.5.5 0 0 0 1 0v-2.165a2.5 2.5 0 0 0-1.073-2.053z"/></svg>