<svg xmlns="http://www.w3.org/2000/svg" viewBox="0 0 24 24"><path d="M21.162 3.097H2.838a2.503 2.503 0 0 0-2.5 2.5v12.807a2.503 2.503 0 0 0 2.5 2.5h18.324a2.503 2.503 0 0 0 2.5-2.5V5.597a2.503 2.503 0 0 0-2.5-2.5zm1.5 15.307a1.502 1.502 0 0 1-1.5 1.5H2.838a1.502 1.502 0 0 1-1.5-1.5V5.597a1.502 1.502 0 0 1 1.5-1.5h18.324a1.502 1.502 0 0 1 1.5 1.5zm-4.432-6.353a3.706 3.706 0 1 0-3.398 0 5.317 5.317 0 0 0-3.497 6.286.5.5 0 0 0 .973-.232 4.342 4.342 0 1 1 8.397.187.5.5 0 0 0 .342.618.488.488 0 0 0 .139.02.5.5 0 0 0 .48-.362 5.317 5.317 0 0 0-3.436-6.516zm-4.404-3.274a2.706 2.706 0 1 1 2.706 2.706 2.709 2.709 0 0 1-2.706-2.706zm-2.16-.517a.5.5 0 0 0-.5-.5h-8.05a.5.5 0 1 0 0 1h8.051a.5.5 0 0 0 .5-.5zM7.051 9.95H3.116a.5.5 0 1 0 0 1h3.935a.5.5 0 1 0 0-1z"/></svg>