<svg xmlns="http://www.w3.org/2000/svg" viewBox="0 0 24 24" width="24" height="24"><path d="M9.095 11.642a.499.499 0 0 0-.182-.683 5.745 5.745 0 0 0-1.144-.493 4.015 4.015 0 1 0-3.533-.006 5.812 5.812 0 0 0-3.877 6.885.5.5 0 0 0 .486.383.511.511 0 0 0 .117-.014.5.5 0 0 0 .37-.603 4.81 4.81 0 0 1 7.081-5.287.495.495 0 0 0 .25.067.5.5 0 0 0 .433-.25zM2.993 6.876A3.014 3.014 0 1 1 6.008 9.89a3.018 3.018 0 0 1-3.015-3.014zm17.361 4.136a3.563 3.563 0 1 0-3.373-.007 5.092 5.092 0 0 0-.926.42.5.5 0 1 0 .512.859 4.129 4.129 0 0 1 6.074 4.689.5.5 0 1 0 .961.276 5.104 5.104 0 0 0-3.247-6.238zm-4.243-3.123a2.563 2.563 0 1 1 2.563 2.563 2.566 2.566 0 0 1-2.563-2.563zm-2.163 8.301a2.719 2.719 0 1 0-3.091 0 3.849 3.849 0 0 0-2.2 4.421.5.5 0 1 0 .973-.232 2.852 2.852 0 1 1 5.515.122.5.5 0 1 0 .961.276 3.847 3.847 0 0 0-2.156-4.587zm-1.546-3.951a1.719 1.719 0 1 1-1.719 1.719 1.722 1.722 0 0 1 1.719-1.719z"/></svg>