<svg xmlns="http://www.w3.org/2000/svg" viewBox="0 0 24 24"><path d="M23.475 8.854l-10.09-6.816a2.488 2.488 0 0 0-2.802.002L8.218 3.642V3.11a1.502 1.502 0 0 0-1.5-1.5H5.415a1.502 1.502 0 0 0-1.5 1.5v3.448L.525 8.855a.5.5 0 1 0 .561.828l1.304-.884-.028 11.091a2.503 2.503 0 0 0 2.5 2.5h14.276a2.503 2.503 0 0 0 2.5-2.499l.028-11.052 1.249.844a.5.5 0 1 0 .56-.829zM4.915 3.11a.5.5 0 0 1 .5-.5h1.303a.5.5 0 0 1 .5.5v1.196l.002.012L4.915 5.88zm10.749 10.485a1.829 1.829 0 0 0-1.098 1.674v1.297a.164.164 0 0 1-.164.164H9.665a.164.164 0 0 1-.164-.164v-1.297a1.824 1.824 0 0 0-1.031-1.637v-2.955a.828.828 0 0 1 .827-.828h5.539a.828.828 0 0 1 .828.828zm-8.128.846h.138a.828.828 0 0 1 .828.828v1.297a1.165 1.165 0 0 0 1.164 1.164h4.737a1.165 1.165 0 0 0 1.164-1.164v-1.297a.828.828 0 0 1 .827-.828h.139a.828.828 0 0 1 .827.828v3.397a.828.828 0 0 1-.827.827H7.536a.828.828 0 0 1-.827-.827v-3.397a.828.828 0 0 1 .827-.828zm.891 6.052h7.193v.896H8.427zm12.211-.604a1.502 1.502 0 0 1-1.5 1.5H16.62v-.905a1.825 1.825 0 0 0 1.738-1.818v-3.398a1.824 1.824 0 0 0-1.695-1.814v-2.778a1.83 1.83 0 0 0-1.828-1.828H9.297a1.83 1.83 0 0 0-1.827 1.828v2.771a1.826 1.826 0 0 0-1.762 1.821v3.397a1.825 1.825 0 0 0 1.718 1.816v.907H4.862a1.501 1.501 0 0 1-1.5-1.499l.03-11.771 7.751-5.252a1.493 1.493 0 0 1 1.682-.001l7.843 5.298z"/></svg>