<svg xmlns="http://www.w3.org/2000/svg" viewBox="0 0 24 24" width="24" height="24"><path d="M19.802 10.125a7.032 7.032 0 0 0-13.261 0h13.261zM6.239 13.639a7.032 7.032 0 0 0 12.981 2.41h3.871a10.548 10.548 0 0 1-13.503 6.339q-.496-.179-.972-.407c-3.215 1.747-5.99 2.109-7.524.575-1.575-1.57-.736-5.683 1.538-9.81a27.678 27.678 0 0 1 2.928-4.294l1.318-1.467a10.372 10.372 0 0 0-3.997 3.18 10.549 10.549 0 0 1 11.093-8.212c3.626-1.643 6.999-2.022 8.426-.598 1.318 1.316 1.244 3.509.146 6.142l-.032.075a10.497 10.497 0 0 1 1.203 4.895 10.743 10.743 0 0 1-.064 1.172zm1.666 7.966a10.579 10.579 0 0 1-4.654-5.556c-1.36 2.674-1.711 4.909-.549 6.069.953.951 2.856.731 5.2-.511zM22.16 6.952l.018-.04c.879-1.9.953-3.508.146-4.459-1.018-1.017-2.976-.879-5.298.197a10.582 10.582 0 0 1 5.134 4.302z"/></svg>