<svg xmlns="http://www.w3.org/2000/svg" viewBox="0 0 24 24" width="24" height="24"><path d="M20.299 5.269h-4.721a.535.535 0 0 0 .035-.181 2.503 2.503 0 0 0-2.5-2.5h-2.226a2.503 2.503 0 0 0-2.5 2.5v.071a.44.44 0 0 0 .023.109H3.701a2.503 2.503 0 0 0-2.5 2.5v11.144a2.503 2.503 0 0 0 2.5 2.5h16.598a2.503 2.503 0 0 0 2.5-2.5V7.769a2.503 2.503 0 0 0-2.5-2.5zM9.388 5.088a1.502 1.502 0 0 1 1.5-1.5h2.226a1.519 1.519 0 0 1 1.5 1.571.44.44 0 0 0 .023.109H9.352a.535.535 0 0 0 .035-.181zM3.701 6.269h16.598a1.502 1.502 0 0 1 1.5 1.5v2.857H2.201V7.769a1.502 1.502 0 0 1 1.5-1.5zm16.598 14.144H3.701a1.502 1.502 0 0 1-1.5-1.5v-7.286h19.598v7.286a1.502 1.502 0 0 1-1.5 1.5zM10.86 9.442h2.28a.5.5 0 0 0 0-1h-2.28a.5.5 0 1 0 0 1z"/></svg>