<svg xmlns="http://www.w3.org/2000/svg" viewBox="0 0 24 24"><path d="M12.007 23.848A11.848 11.848 0 1 1 23.855 12a11.861 11.861 0 0 1-11.848 11.848zm0-22.695A10.848 10.848 0 1 0 22.855 12 10.86 10.86 0 0 0 12.007 1.152zm4.776 7.843H9.651a.5.5 0 0 1 0-1h7.132a.5.5 0 0 1 0 1zm-9.017 0H7.23a.5.5 0 0 1 0-1h.535a.5.5 0 0 1 0 1zm9.017 3.504H9.651a.5.5 0 0 1 0-1h7.132a.5.5 0 0 1 0 1zm-9.017 0H7.23a.5.5 0 0 1 0-1h.535a.5.5 0 0 1 0 1zm9.017 3.504H9.651a.5.5 0 0 1 0-1h7.132a.5.5 0 1 1 0 1zm-9.017 0H7.23a.5.5 0 1 1 0-1h.535a.5.5 0 0 1 0 1z"/></svg>