<svg xmlns="http://www.w3.org/2000/svg" viewBox="0 0 24 24"><path d="M23.589 10.971a.5.5 0 0 0-.707 0l-.771.771a10.924 10.924 0 1 0-10.916 11.187q.316 0 .627-.018a.499.499 0 0 0 .472-.526.492.492 0 0 0-.526-.472l-.573.016a9.929 9.929 0 1 1 9.926-9.999l-.96-.959a.5.5 0 0 0-.707.707l1.714 1.714a.5.5 0 0 0 .707 0l1.714-1.714a.5.5 0 0 0 0-.707zm-7.92-1.689l-8.229.003a3.865 3.865 0 0 1 6.647-2.216.5.5 0 0 0 .726-.687 4.862 4.862 0 0 0-8.38 2.973 1.617 1.617 0 0 0-1.175 1.549v6.024a1.621 1.621 0 0 0 1.62 1.619l8.792-.002a1.621 1.621 0 0 0 1.62-1.619v-6.024a1.622 1.622 0 0 0-1.62-1.62zm.62 7.645a.62.62 0 0 1-.62.619l-8.792.002a.62.62 0 0 1-.62-.619v-6.024a.62.62 0 0 1 .62-.619l8.792-.003a.621.621 0 0 1 .62.62zm-5.016-6.214a1.819 1.819 0 0 0-.5 3.569v1.745a.5.5 0 0 0 1 0v-1.746a1.819 1.819 0 0 0-.5-3.569zm0 2.647a.824.824 0 1 1 .824-.824.825.825 0 0 1-.824.824z"/></svg>