<svg xmlns="http://www.w3.org/2000/svg" viewBox="0 0 24 24"><path d="M19.556 8.442a7.567 7.567 0 0 0-15.112.004 2.497 2.497 0 0 0-1.857 2.406v9.353a2.503 2.503 0 0 0 2.5 2.5H12l6.914-.003a2.503 2.503 0 0 0 2.5-2.5v-9.354a2.497 2.497 0 0 0-1.858-2.406zM12 2.294a6.583 6.583 0 0 1 6.551 6.055l-13.102.004A6.583 6.583 0 0 1 12 2.294zm8.414 17.909a1.502 1.502 0 0 1-1.5 1.5l-13.827.003a1.502 1.502 0 0 1-1.5-1.5v-9.354a1.502 1.502 0 0 1 1.5-1.5l13.827-.004a1.502 1.502 0 0 1 1.5 1.5zM12 10.662a2.638 2.638 0 0 0-.5 5.228v3.054a.5.5 0 0 0 1 0V15.89a2.638 2.638 0 0 0-.5-5.228zm0 4.278a1.639 1.639 0 1 1 1.639-1.64A1.641 1.641 0 0 1 12 14.94z"/></svg>