<svg xmlns="http://www.w3.org/2000/svg" viewBox="0 0 24 24"><path d="M16.248 7.018a2.56 2.56 0 0 0-3.536 0L.929 18.801a2.503 2.503 0 0 0 0 3.536l.606.606a2.499 2.499 0 0 0 3.535 0l11.784-11.784a2.499 2.499 0 0 0 0-3.535zM4.363 22.236a1.536 1.536 0 0 1-2.121 0l-.606-.606a1.502 1.502 0 0 1 0-2.122l8.429-8.429 2.728 2.728zm11.784-11.784L13.499 13.1l-2.728-2.728 2.648-2.648a1.5 1.5 0 0 1 2.122 0l.606.606a1.499 1.499 0 0 1 0 2.121zm7.157-6.633h-.724v-.724a.5.5 0 0 0-1 0v.724h-.724a.5.5 0 0 0 0 1h.724v.724a.5.5 0 0 0 1 0v-.724h.724a.5.5 0 1 0 0-1zm-2.349 9.423h-.724v-.724a.5.5 0 1 0-1 0v.724h-.724a.5.5 0 0 0 0 1h.724v.724a.5.5 0 0 0 1 0v-.724h.724a.5.5 0 0 0 0-1zM5.472 5.956h.724v.724a.5.5 0 0 0 1 0v-.724h.724a.5.5 0 0 0 0-1h-.724v-.724a.5.5 0 0 0-1 0v.724h-.724a.5.5 0 0 0 0 1zm6.04-2.93h1.201v1.201a.5.5 0 1 0 1 0V3.026h1.202a.5.5 0 0 0 0-1h-1.202V.824a.5.5 0 1 0-1 0v1.201h-1.201a.5.5 0 0 0 0 1z"/></svg>