<svg xmlns="http://www.w3.org/2000/svg" viewBox="0 0 24 24" width="24" height="24"><path d="M21.162 3.096H2.838a2.503 2.503 0 0 0-2.5 2.5v12.807a2.503 2.503 0 0 0 2.5 2.5h18.324a2.503 2.503 0 0 0 2.5-2.5V5.596a2.503 2.503 0 0 0-2.5-2.5zm-5.72 8.763l7.014-7.008a1.482 1.482 0 0 1 .206.744v12.807a1.489 1.489 0 0 1-.112.565zm5.72-7.763a1.486 1.486 0 0 1 .533.103l-8.688 8.68a1.502 1.502 0 0 1-2.121-.001L2.234 4.225a1.488 1.488 0 0 1 .604-.129zM1.461 18.995a1.49 1.49 0 0 1-.123-.592V5.596a1.481 1.481 0 0 1 .171-.682l7.016 7.016zm1.377.908a1.48 1.48 0 0 1-.693-.178l7.088-7.088.947.947a2.502 2.502 0 0 0 3.535.001l1.02-1.019 7.145 7.146a1.481 1.481 0 0 1-.718.191z"/></svg>