<svg xmlns="http://www.w3.org/2000/svg" viewBox="0 0 24 24"><path d="M11.998 23.779a2.649 2.649 0 0 1-2.243-1.231L4.01 13.525a9.194 9.194 0 0 1-.685-7.372 8.984 8.984 0 0 1 3.788-4.594A9.123 9.123 0 0 1 12.01.222a8.918 8.918 0 0 1 4.878 1.337 8.981 8.981 0 0 1 3.788 4.594 9.196 9.196 0 0 1-.669 7.346l-5.757 9.043a2.66 2.66 0 0 1-2.252 1.237zm-.187-22.557a8.216 8.216 0 0 0-4.179 1.189 7.98 7.98 0 0 0-3.365 4.076 8.16 8.16 0 0 0 .602 6.524l5.73 8.998a1.63 1.63 0 0 0 1.399.769 1.664 1.664 0 0 0 1.408-.774l5.741-9.017a8.165 8.165 0 0 0 .586-6.499 7.977 7.977 0 0 0-3.365-4.076 8.23 8.23 0 0 0-4.183-1.19.547.547 0 0 1-.057.002 4.48 4.48 0 0 0-.257 0l-.06-.002zM12 14.369a5.051 5.051 0 1 1 5.089-5.051A5.076 5.076 0 0 1 12 14.369zm0-9.102a4.051 4.051 0 1 0 4.089 4.051A4.075 4.075 0 0 0 12 5.267z"/></svg>