<svg xmlns="http://www.w3.org/2000/svg" viewBox="0 0 24 24" width="24" height="24"><path d="M18.78 1.935A3.273 3.273 0 0 0 15.958.342h-2.103l-1.722 3.27-1.722-3.27H8.309a3.298 3.298 0 0 0-2.918 4.833l2.868 5.472a6.969 6.969 0 1 0 7.521.404l3.095-5.875a3.273 3.273 0 0 0-.095-3.241zm-12.437.518a2.279 2.279 0 0 1 1.966-1.11h1.499l1.761 3.343L8.91 9.735 6.276 4.71a2.279 2.279 0 0 1 .066-2.257zm11.331 14.239a5.966 5.966 0 1 1-5.966-5.967 5.972 5.972 0 0 1 5.966 5.967zM17.99 4.71l-3.061 5.811a6.859 6.859 0 0 0-5.013-.554l4.542-8.625h1.499A2.298 2.298 0 0 1 17.99 4.71zm-6.73 8.836l-.776 1.573-1.734.251a.5.5 0 0 0-.277.854l1.255 1.224-.297 1.728a.5.5 0 0 0 .726.527l1.553-.816 1.552.816a.491.491 0 0 0 .232.058.501.501 0 0 0 .493-.585l-.297-1.728 1.255-1.224a.5.5 0 0 0-.277-.854l-1.734-.251-.775-1.572a.5.5 0 0 0-.896-.001zm.892 2.251a.498.498 0 0 0 .377.274l.991.144-.717.699a.502.502 0 0 0-.145.443l.17.988-.888-.467a.501.501 0 0 0-.465 0l-.889.467.17-.988a.502.502 0 0 0-.145-.443l-.717-.699.991-.144a.499.499 0 0 0 .377-.273l.444-.9z"/></svg>