<svg xmlns="http://www.w3.org/2000/svg" viewBox="0 0 24 24"><path d="M22.645 14.091a.745.745 0 0 0 .641-.436.753.753 0 0 0-.106-.795 4.092 4.092 0 0 0-2.999-1.516 5.355 5.355 0 0 0-2.735.595 5.61 5.61 0 0 0-.449-2.617l-1.513-3.431a.5.5 0 0 0-.915.404l1.513 3.431a4.621 4.621 0 0 1 .201 3.179l-.097.329c-.454 1.026-2.198 1.188-2.849 1.174h-1.671c-.597 0-.975-.133-1.124-.394-.271-.476.027-1.535.798-2.835a.926.926 0 0 0 .098-.705 1.052 1.052 0 0 0 .498-.349 1.311 1.311 0 0 0 .145-1.067 1.273 1.273 0 0 0-.6-.956 1.263 1.263 0 0 0-.764-.072l-.008.001-.175.026q-.374.051-.75.093l-.747.072q-.376.029-.75.05l-.756.027-.751.007q-.376-.003-.752-.016l-.754-.037-.746-.059a5.433 5.433 0 0 0-.565-.03 1.085 1.085 0 0 0-.958.515A1.291 1.291 0 0 0 3 9.748a2.32 2.32 0 0 0 .601 1.02c-2.065.729-2.965 3.251-3.268 4.381a.741.741 0 0 0 .141.66.729.729 0 0 0 .612.267l.469-.029a3.047 3.047 0 1 0 6.061.632 1.496 1.496 0 0 0 1.001.4h4.516a3.819 3.819 0 0 0 2.925-1.187 1.695 1.695 0 0 0 .948.439 1.387 1.387 0 0 0 .144.008 1.734 1.734 0 0 0 .431-.066c-.001.034-.009.066-.009.1a3.06 3.06 0 1 0 5.073-2.28zM3.984 9.165l.45.026q.387.035.775.061l.785.039.781.016.779-.007q.392-.009.786-.029l.78-.052q.388-.032.776-.074l.789-.099.173-.025c.061-.009.161-.023.158-.037a.703.703 0 0 1 .084.271l.044.262a.775.775 0 0 1-.219.07 23.083 23.083 0 0 1-6.08.575 1.177 1.177 0 0 1-.555-.105 1.286 1.286 0 0 1-.344-.632c-.057-.164-.067-.234-.083-.234a.271.271 0 0 1 .12-.025zm.603 9.268a2.05 2.05 0 0 1-2.021-2.448l3.659-.204a2.435 2.435 0 0 1 .33.017 2.041 2.041 0 0 1 .092.575 2.063 2.063 0 0 1-2.06 2.061zm8.545-2.354H8.617a.504.504 0 0 1-.46-.295 1.808 1.808 0 0 0-1.816-1.005l-.161.004-4.777.271c.333-1.059 1.221-3.199 2.987-3.464l6.026-.811c-.96 1.654-1.21 2.909-.743 3.73a2.101 2.101 0 0 0 1.993.898h1.652a6.176 6.176 0 0 0 2.155-.351 2.828 2.828 0 0 1-2.34 1.021zm3.99-.741a.654.654 0 0 1-.431-.226.149.149 0 0 1-.027-.06 4.223 4.223 0 0 0 .473-1.511l.041-.137a3.863 3.863 0 0 1 2.958-1.059 3.034 3.034 0 0 1 1.912.78 4.733 4.733 0 0 0-2.528.775c-1.739 1.435-2.308 1.438-2.398 1.438zm3.509 3.096a2.037 2.037 0 0 1-1.96-2.669 13.976 13.976 0 0 0 1.485-1.092 2.187 2.187 0 0 1 .745-.335 2.057 2.057 0 0 1-.271 4.096zM18.012 7.619c.621 0 1.038-.613 1.038-1.525s-.417-1.525-1.038-1.525a1.699 1.699 0 0 0-1.86 1.525 1.699 1.699 0 0 0 1.86 1.525zm-.086-2.08a.987.987 0 0 1 .125.555 1.155 1.155 0 0 1-.103.523c-.472-.021-.796-.285-.796-.523 0-.248.354-.525.774-.555z"/></svg>