<svg xmlns="http://www.w3.org/2000/svg" viewBox="0 0 24 24"><path d="M20.319 12.579a3.426 3.426 0 0 0-.739.084l-.685-1.792a8.628 8.628 0 0 1 3.688-.257.492.492 0 0 0 .559-.434.5.5 0 0 0-.434-.559 9.527 9.527 0 0 0-4.169.323l-.812-2.037a1.677 1.677 0 0 0-1.434-.869l-.891-2.186a.5.5 0 0 0-.463-.312h-2.641a.5.5 0 0 0 0 1h2.305l.608 1.49a2.474 2.474 0 0 0-1.438.617c-2.704 2.299-11.172 1.117-12.707.881-.14-.024-.229-.036-.255-.04a.5.5 0 0 0-.152.988l.205.033c.986.176 5.567 1.16 7.361 4.383l-1.511.531a3.324 3.324 0 1 0 .344.939l1.642-.577a3.628 3.628 0 0 0 3.018 1.833 3.665 3.665 0 0 0 3.183-2.229 6.343 6.343 0 0 1 3.065-3.153l.685 1.793a3.414 3.414 0 1 0 1.67-.451zm-14.197 3.44a2.465 2.465 0 1 1-.361-1.26l-2.244.789a.5.5 0 0 0 .166.972.49.49 0 0 0 .166-.028l2.242-.788a2.403 2.403 0 0 1 .032.316zm7.85-2.003a2.659 2.659 0 0 1-2.256 1.604 2.822 2.822 0 0 1-2.328-1.645 8.482 8.482 0 0 0-4.003-3.99c3.205.169 7.174.007 9.035-1.575a1.621 1.621 0 0 1 1.285-.403c.596.008.992.067 1.124.339.072.148.374.915.782 1.97a7.59 7.59 0 0 0-3.638 3.701zm6.348 4.443a2.436 2.436 0 0 1-1.312-4.491l.845 2.228a.5.5 0 1 0 .936-.354l-.844-2.226a2.417 2.417 0 0 1 .376-.038 2.44 2.44 0 0 1 0 4.881z"/></svg>