<svg xmlns="http://www.w3.org/2000/svg" viewBox="0 0 24 24"><path d="M12 1.948a11.847 11.847 0 0 0-8.647 19.946.501.501 0 0 0 .365.158l16.567-.002a.502.502 0 0 0 .365-.158A11.848 11.848 0 0 0 12 1.948zm0 16.575a2.902 2.902 0 0 1 2.854 2.396H9.146A2.902 2.902 0 0 1 12 18.523zm8.065 2.527H15.86a3.878 3.878 0 0 0-3.36-3.477v-4.749a.5.5 0 0 0-1 0v4.749a3.878 3.878 0 0 0-3.359 3.478H3.938a10.804 10.804 0 0 1-2.785-7.257c0-.159.017-.313.024-.471h2.812a.5.5 0 1 0 0-1H1.264a10.817 10.817 0 0 1 3.21-6.324l1.902 1.902a.5.5 0 1 0 .707-.707L5.224 5.338A10.785 10.785 0 0 1 11.5 2.973v2.814a.5.5 0 0 0 1 0V2.973a10.783 10.783 0 0 1 6.241 2.338l-1.885 1.884a.5.5 0 1 0 .707.707l1.931-1.931a10.817 10.817 0 0 1 3.242 6.353h-2.724a.5.5 0 0 0 0 1h2.812l.024.471a10.806 10.806 0 0 1-2.783 7.255z"/></svg>