<svg xmlns="http://www.w3.org/2000/svg" viewBox="0 0 24 24" width="24" height="24"><path d="M14.307 4.327h-1.908a.5.5 0 0 0 0 1h1.908a.5.5 0 0 0 0-1zm5.249.003h-1.662V3.104a2.502 2.502 0 0 0-2.5-2.5H6.217a2.502 2.502 0 0 0-2.5 2.5v3.317a2.502 2.502 0 0 0 2.5 2.5h9.177a2.502 2.502 0 0 0 2.5-2.5V5.33h1.662a3.16 3.16 0 0 1 1.974 5.626.499.499 0 1 0 .625.779 4.159 4.159 0 0 0-2.599-7.405zm-2.662 2.092a1.502 1.502 0 0 1-1.5 1.5H6.217a1.502 1.502 0 0 1-1.5-1.5V3.104a1.502 1.502 0 0 1 1.5-1.5h9.177a1.502 1.502 0 0 1 1.5 1.5zm2.289 4a2.014 2.014 0 0 0-3.716.191 1.996 1.996 0 0 0 .079 1.539l2.008 4.221a2.002 2.002 0 0 0 .475.636l-1.606 1.423a9.242 9.242 0 0 1-2.169 1.435l-5.239 2.497a.334.334 0 0 1-.303-.595l3.287-1.568a.5.5 0 0 0-.43-.902l-.966.461c-.009.004-.019.003-.029.007L8.295 20.85c-.013.006-.02.018-.033.025l-1.289.615a.344.344 0 0 1-.259.014.338.338 0 0 1-.031-.624l2.278-1.084.013-.01 2.169-1.028a.5.5 0 0 0-.428-.904L5.911 20.13a.35.35 0 1 1-.29-.61l.349-.166c.012-.005.025-.007.037-.013l3.976-1.892a.5.5 0 1 0-.43-.902l-1.781.847c-.007.003-.014.002-.02.005l-2.183 1.039a.336.336 0 0 1-.281-.61l2.278-1.084a.5.5 0 0 0-.43-.902l-2.277 1.083a1.337 1.337 0 0 0-.634 1.783 1.309 1.309 0 0 0 .356.439 1.318 1.318 0 0 0-.116 1.297 1.302 1.302 0 0 0 1.04.714 1.308 1.308 0 0 0 .114.6 1.335 1.335 0 0 0 1.783.634l.179-.085a1.288 1.288 0 0 0 .081.326 1.334 1.334 0 0 0 1.782.633l5.237-2.496a10.235 10.235 0 0 0 2.404-1.59l1.763-1.562a.492.492 0 0 0 .109-.144 2.01 2.01 0 0 0 2.233-2.832zm1.146 5.426a1.014 1.014 0 0 1-1.872.096l-2.008-4.221a1.014 1.014 0 0 1 1.832-.871l2.008 4.221a1.008 1.008 0 0 1 .04.775z"/><path d="M5.719 11.632a1.989 1.989 0 0 0 .097-.549l.229.064a2.923 2.923 0 0 0 1.722-.042 3.447 3.447 0 0 1 2.206.013l3.914 1.354-.04.109a.777.777 0 0 1-.97.477l-2.422-.782a.497.497 0 0 0-.607.267l-.372.81a1.975 1.975 0 0 1-2.307 1.085l-1.001-.267a.5.5 0 1 0-.258.967l1.001.267a3.011 3.011 0 0 0 .773.102 2.97 2.97 0 0 0 2.699-1.735l.187-.406 1.999.646a1.769 1.769 0 0 0 2.219-1.089l.211-.586a.5.5 0 0 0-.308-.642L10.3 10.173a4.468 4.468 0 0 0-2.85-.017 1.936 1.936 0 0 1-1.137.028l-.76-.213h-.007a1.993 1.993 0 0 0-1.081-.897 2.015 2.015 0 0 0-2.558 1.253L.395 14.751a2.014 2.014 0 0 0 1.253 2.558 1.994 1.994 0 0 0 .65.109 2.017 2.017 0 0 0 1.907-1.362zm-2.458 4.099a1.014 1.014 0 0 1-1.92-.656l1.513-4.423a1.019 1.019 0 0 1 .959-.687 1.029 1.029 0 0 1 .329.055 1.016 1.016 0 0 1 .632 1.288z"/></svg>