<svg xmlns="http://www.w3.org/2000/svg" viewBox="0 0 24 24" width="24" height="24"><path d="M22.343.707a.489.489 0 0 0-.036-.215.472.472 0 0 0-.018-.047.488.488 0 0 0-.148-.174c-.007-.005-.016-.006-.023-.01-.024-.02-.039-.017-.052-.023a.488.488 0 0 0-.203-.049.465.465 0 0 0-.06-.001.49.49 0 0 0-.234.085L1.85 14.85a.5.5 0 0 0 .159.882l7.459 2.143v5.446a.5.5 0 0 0 .288.453.507.507 0 0 0 .212.047.5.5 0 0 0 .321-.116l4.918-4.181 4.037 1.16a.494.494 0 0 0 .138.02.5.5 0 0 0 .496-.437L22.349.742c.002-.012-.006-.022-.006-.034zM19.65 2.929L9.765 16.92 3.26 15.051zm-9.182 19.322v-4.089l3.624 1.041-3.624 3.048zm8.492-2.689l-8.177-2.349 10.323-14.61z"/></svg>