<svg xmlns="http://www.w3.org/2000/svg" viewBox="0 0 24 24"><path d="M6.342 8.561a4.89 4.89 0 0 1 1.458.221 4.953 4.953 0 0 1 1.721.946.5.5 0 0 0 .646-.764 6.001 6.001 0 0 0-2.043-1.127 4.077 4.077 0 1 0-3.564 0 5.907 5.907 0 0 0-3.959 7.005.5.5 0 0 0 .486.384.479.479 0 0 0 .117-.014.5.5 0 0 0 .37-.603A4.907 4.907 0 0 1 6.342 8.56zM3.265 4.188a3.077 3.077 0 1 1 3.077 3.077 3.081 3.081 0 0 1-3.077-3.077zm4.543 13.158a.5.5 0 1 0 0 1h4.629a.5.5 0 1 0 0-1zm15.274-7.531l-1.603-1.603a1.635 1.635 0 0 0-2.31 0l-1.115 1.115-.003.002-.002.003-2.515 2.515H5.937a2.503 2.503 0 0 0-2.5 2.5v7.043a2.503 2.503 0 0 0 2.5 2.5h11.824a2.503 2.503 0 0 0 2.5-2.5v-3.358a.5.5 0 0 0-1 0v3.358a1.502 1.502 0 0 1-1.5 1.5H5.937a1.502 1.502 0 0 1-1.5-1.5v-7.043a1.502 1.502 0 0 1 1.5-1.5h8.599l-.144.144a1.639 1.639 0 0 0-.471.996l-.304 3.115a.501.501 0 0 0 .498.549l.044-.002 3.139-.278a1.633 1.633 0 0 0 1.011-.472l3.655-3.655.001-.001.001-.001 1.116-1.116a1.635 1.635 0 0 0 0-2.31zm-5.481 6.376a.629.629 0 0 1-.391.183l-2.539.225.245-2.515a.639.639 0 0 1 .183-.387l.997-.997.001-.001 2.31-2.31 2.498 2.498zm4.774-4.773l-.763.763-2.498-2.498.763-.763a.635.635 0 0 1 .896 0l1.603 1.603a.634.634 0 0 1 0 .895z"/></svg>