<svg xmlns="http://www.w3.org/2000/svg" viewBox="0 0 24 24" width="24" height="24"><path d="M3.265 15.429a.5.5 0 1 0 0 1H7.63a.5.5 0 1 0 0-1zm6.427-5.311l-.45 4.612a.501.501 0 0 0 .498.549l.044-.002 4.645-.412a2.499 2.499 0 0 0 1.548-.723l5.458-5.458.001-.001.001-.001 1.487-1.487a2.503 2.503 0 0 0 0-3.535l-2.021-2.021a2.503 2.503 0 0 0-3.536 0L14.58 4.425H2.844a2.503 2.503 0 0 0-2.5 2.5v13.669a2.503 2.503 0 0 0 2.5 2.5h16.155a2.503 2.503 0 0 0 2.5-2.5v-9.182a.5.5 0 0 0-1 0v9.182a1.502 1.502 0 0 1-1.5 1.5H2.844a1.502 1.502 0 0 1-1.5-1.5V6.925a1.502 1.502 0 0 1 1.5-1.5H13.58l-3.168 3.168a2.502 2.502 0 0 0-.72 1.524zm8.382-7.772a1.502 1.502 0 0 1 2.122 0l2.021 2.021a1.501 1.501 0 0 1 0 2.121l-1.135 1.135L16.94 3.48zM11.12 9.3l5.113-5.113 4.143 4.143-5.106 5.106a1.498 1.498 0 0 1-.928.434l-4.045.358.392-4.012a1.502 1.502 0 0 1 .432-.915z"/></svg>