<svg xmlns="http://www.w3.org/2000/svg" viewBox="0 0 24 24" width="24" height="24"><path d="M3.49 18.455l.044-.002 6.133-.543a2.5 2.5 0 0 0 1.548-.723l9.405-9.405a2.503 2.503 0 0 0 0-3.535L17.256.881a2.502 2.502 0 0 0-3.535 0l-9.414 9.413a2.517 2.517 0 0 0-.72 1.524l-.595 6.087a.501.501 0 0 0 .498.549zM14.428 1.589a1.502 1.502 0 0 1 2.121 0l3.364 3.365a1.501 1.501 0 0 1 0 2.121l-1.938 1.938-5.485-5.486zM4.583 11.917a1.504 1.504 0 0 1 .432-.915l6.768-6.768 5.485 5.486-6.76 6.76a1.5 1.5 0 0 1-.929.434l-5.532.49zm18.062 8.903a7.379 7.379 0 0 0-8.588-1.724 16.908 16.908 0 0 0-2.758 1.683c-1.586 1.114-3.085 2.145-5.077 2.064a6.184 6.184 0 0 1-4.131-2.249.5.5 0 0 0-.746.666 7.153 7.153 0 0 0 4.826 2.581l.323.009c2.173 0 3.802-1.145 5.38-2.253a16.149 16.149 0 0 1 2.591-1.589 6.404 6.404 0 0 1 7.451 1.497.501.501 0 1 0 .729-.686z"/></svg>