<svg xmlns="http://www.w3.org/2000/svg" viewBox="0 0 24 24"><path d="M21.425 6.635l-4.029-4.029a2.504 2.504 0 0 0-3.535 0l-2.689 2.689h-.001 0l-7.938 7.939a2.504 2.504 0 0 0-.722 1.525l-.666 6.816a.501.501 0 0 0 .498.549l.044-.002 6.869-.608a2.498 2.498 0 0 0 1.547-.723l7.932-7.931h.001v-.001l2.689-2.689a2.504 2.504 0 0 0 0-3.536zm-11.329 13.45a1.497 1.497 0 0 1-.928.434l-6.269.556.607-6.217a1.496 1.496 0 0 1 .432-.915l7.586-7.587 6.15 6.151zM20.718 9.464L18.382 11.8l-6.15-6.151 2.336-2.336a1.504 1.504 0 0 1 2.121 0l4.029 4.029a1.502 1.502 0 0 1 0 2.122z"/></svg>