<svg xmlns="http://www.w3.org/2000/svg" viewBox="0 0 24 24"><path d="M22.172 10.609a.5.5 0 0 1-.5-.483 8.114 8.114 0 0 0-8.068-7.862.5.5 0 0 1 .006-1h.006a9.117 9.117 0 0 1 9.057 8.829.5.5 0 0 1-.483.516zm-2.726.672a.501.501 0 0 1-.5-.483 6.115 6.115 0 0 0-6.081-5.926.5.5 0 0 1-.494-.505.488.488 0 0 1 .506-.495 7.118 7.118 0 0 1 7.069 6.893.501.501 0 0 1-.483.516zm-2.79.109a.501.501 0 0 1-.5-.483 3.309 3.309 0 0 0-3.291-3.206.5.5 0 0 1-.494-.505.484.484 0 0 1 .506-.495 4.311 4.311 0 0 1 4.279 4.172.5.5 0 0 1-.483.517zm.6 11.342a13.72 13.72 0 0 1-3.99-.812l-1.069-.37a16.746 16.746 0 0 1-9.682-9.682l-.37-1.071C1.51 8.754.79 6.437 1.938 4.242a5.745 5.745 0 0 1 1.181-1.533 2.485 2.485 0 0 1 3.389-.004 9.156 9.156 0 0 1 2.964 4.983 2.463 2.463 0 0 1-.706 2.164l-.758.757a.632.632 0 0 0-.079.795l.24.362a14.73 14.73 0 0 0 4.128 4.128l.362.241a.68.68 0 0 0 .878-.162l.675-.675a2.461 2.461 0 0 1 2.164-.706 9.149 9.149 0 0 1 4.983 2.963 2.483 2.483 0 0 1-.004 3.388 5.728 5.728 0 0 1-1.533 1.181 5.43 5.43 0 0 1-2.566.607zM4.812 3.042a1.485 1.485 0 0 0-1.013.4 4.749 4.749 0 0 0-.976 1.265c-.956 1.828-.33 3.845.275 5.795l.35 1.011a15.747 15.747 0 0 0 9.103 9.103l1.011.349c1.949.605 3.965 1.232 5.796.274a4.732 4.732 0 0 0 1.265-.976 1.49 1.49 0 0 0-.002-2.033 8.164 8.164 0 0 0-4.421-2.653 1.462 1.462 0 0 0-1.281.429l-.675.675a1.668 1.668 0 0 1-2.138.288l-.362-.241a15.705 15.705 0 0 1-4.407-4.407h-.001l-.24-.362a1.636 1.636 0 0 1 .205-2.056l.758-.757a1.466 1.466 0 0 0 .429-1.282 8.176 8.176 0 0 0-2.654-4.42 1.508 1.508 0 0 0-1.021-.401z"/></svg>