<svg xmlns="http://www.w3.org/2000/svg" viewBox="0 0 24 24" width="24" height="24"><path d="M14.294 6.59a13.95 13.95 0 0 0 1.355-1.032 1.241 1.241 0 0 0 .371-.834c0-.504-.38-.95-1.164-.95a1.472 1.472 0 0 0-1.214.587.381.381 0 0 1-.19.14.33.33 0 0 1-.429-.198.344.344 0 0 1 .041-.297 2.148 2.148 0 0 1 1.768-.884 1.925 1.925 0 0 1 1.371.462 1.491 1.491 0 0 1 .495 1.14 1.515 1.515 0 0 1-.363 1.032 9.128 9.128 0 0 1-1.428 1.181c-.834.603-1.198.974-1.206 1.396h2.774a.327.327 0 1 1 0 .652h-2.973a.453.453 0 0 1-.487-.479c0-.719.388-1.28 1.28-1.916zm7.191.982v1.074a.335.335 0 0 1-.339.339.328.328 0 0 1-.33-.339V7.572h-2.403a.521.521 0 0 1-.57-.553.657.657 0 0 1 .149-.388l2.197-2.924.231-.297a.757.757 0 0 1 .512-.264c.371 0 .553.231.553.694v3.072h.611a.323.323 0 0 1 .33.339.335.335 0 0 1-.33.322zm-2.915-.66h2.246V3.931zm-1.569 15.43a13.698 13.698 0 0 1-3.989-.812l-1.07-.369a16.752 16.752 0 0 1-9.682-9.683l-.37-1.07C1.255 8.363.536 6.046 1.685 3.852a5.663 5.663 0 0 1 1.181-1.533 2.484 2.484 0 0 1 3.388-.005 9.154 9.154 0 0 1 2.963 4.983 2.461 2.461 0 0 1-.706 2.164l-.757.758a.633.633 0 0 0-.08.795l.241.362a14.669 14.669 0 0 0 4.128 4.127l.362.242a.682.682 0 0 0 .877-.162l.675-.675a2.452 2.452 0 0 1 2.164-.706 9.145 9.145 0 0 1 4.984 2.964 2.482 2.482 0 0 1-.005 3.387 5.669 5.669 0 0 1-1.533 1.182 5.425 5.425 0 0 1-2.566.607zM4.559 2.652a1.484 1.484 0 0 0-1.013.399 4.714 4.714 0 0 0-.975 1.264c-.958 1.829-.331 3.846.274 5.796l.349 1.012a15.751 15.751 0 0 0 9.104 9.104l1.01.349c1.95.605 3.968 1.233 5.796.273a4.667 4.667 0 0 0 1.264-.975 1.491 1.491 0 0 0 0-2.033 8.164 8.164 0 0 0-4.421-2.653 1.464 1.464 0 0 0-1.281.429l-.675.675a1.667 1.667 0 0 1-2.138.287l-.362-.241a15.668 15.668 0 0 1-4.407-4.406l-.241-.362a1.635 1.635 0 0 1 .205-2.056l.757-.758a1.463 1.463 0 0 0 .428-1.281A8.169 8.169 0 0 0 5.58 3.054a1.511 1.511 0 0 0-1.021-.4z"/></svg>