<svg xmlns="http://www.w3.org/2000/svg" viewBox="0 0 24 24"><path d="M22.697 1.424H1.303a.5.5 0 0 0-.5.5v13.3a.5.5 0 0 0 .5.5h7.458a.5.5 0 0 0 .5-.5v-3.158a.5.5 0 0 0-1 0v2.658H1.803V8.967h.5a.5.5 0 0 0 0-1h-.5V2.424h6.393v.5a.5.5 0 1 0 1 0v-.5h13v5.543h-8.659a.5.5 0 0 0-.5.5v3.486a.5.5 0 0 0 1 0V8.967h8.159v7.701H16.22a.5.5 0 0 0-.5.5v4.407H1.803v-3.352a.5.5 0 0 0-1 0v3.852a.5.5 0 0 0 .5.5H16.22a.5.5 0 0 0 .5-.5v-4.407h5.977a.5.5 0 0 0 .5-.5V1.924a.5.5 0 0 0-.5-.5zM4.101 7.967a.5.5 0 1 0 0 1h1.798a.5.5 0 0 0 0-1zm4.595-1a.5.5 0 0 0-.5.5v.5h-.5a.5.5 0 1 0 0 1h1a.5.5 0 0 0 .5-.5v-1a.5.5 0 0 0-.5-.5zm.5-2.528a.5.5 0 0 0-1 0v1.514a.5.5 0 0 0 1 0z"/></svg>