<svg xmlns="http://www.w3.org/2000/svg" xmlns:xlink="http://www.w3.org/1999/xlink" viewBox="0 0 24 24" width="24" height="24"><path d="M21.311 20.187H2.688a2.502 2.502 0 0 1-2.5-2.5V6.313a2.502 2.502 0 0 1 2.5-2.5h18.623a2.502 2.502 0 0 1 2.5 2.5v11.374a2.502 2.502 0 0 1-2.5 2.5zM2.688 4.813a1.502 1.502 0 0 0-1.5 1.5v11.374a1.502 1.502 0 0 0 1.5 1.5h18.623a1.502 1.502 0 0 0 1.5-1.5V6.313a1.502 1.502 0 0 0-1.5-1.5z"/><rect x="2.281" y="5.864" width="1.284" height="1.284" rx=".642"/><rect x="2.281" y="16.852" width="1.284" height="1.284" rx=".642"/><rect x="20.435" y="5.864" width="1.284" height="1.284" rx=".642"/><rect x="20.435" y="16.852" width="1.284" height="1.284" rx=".642"/><use xlink:href="#B"/><use xlink:href="#B" x="4.397"/><use xlink:href="#B" x="13.19"/><path d="M15.184 12.5h-1.787a.5.5 0 0 1 0-1h1.787a.5.5 0 0 1 0 1z"/><defs ><path id="B" d="M5.405 14.937a1.896 1.896 0 0 1-1.894-1.894v-2.086a1.894 1.894 0 0 1 3.787 0v2.086a1.896 1.896 0 0 1-1.894 1.894zm0-4.873a.894.894 0 0 0-.894.894v2.086a.894.894 0 0 0 1.787 0v-2.086a.894.894 0 0 0-.894-.894z"/></defs></svg>