<svg xmlns="http://www.w3.org/2000/svg" viewBox="0 0 24 24"><path d="M16.042 11.5H12.5V7.958a.5.5 0 0 0-1 0V11.5H7.957a.5.5 0 0 0 0 1H11.5v3.542a.5.5 0 0 0 1 0V12.5h3.542a.5.5 0 0 0 0-1zm6.171-1.361c-.112-1.741-.396-3.611-.647-5.261l-.127-.79a1.937 1.937 0 0 0-1.529-1.535 40.524 40.524 0 0 0-15.877 0 1.941 1.941 0 0 0-1.529 1.531 40.51 40.51 0 0 0-.048 15.55l.051.271a1.938 1.938 0 0 0 1.54 1.543l.169.032a40.617 40.617 0 0 0 7.756.75 40.637 40.637 0 0 0 7.754-.749l.174-.034a1.936 1.936 0 0 0 1.538-1.539l.03-.152a41.345 41.345 0 0 0 .657-4.797 31.42 31.42 0 0 0 .088-4.821zm-1.086 4.753a40.318 40.318 0 0 1-.641 4.673l-.03.154a.939.939 0 0 1-.746.747l-.174.034a39.497 39.497 0 0 1-15.131 0l-.169-.032a.941.941 0 0 1-.748-.749l-.051-.271a39.503 39.503 0 0 1 .047-15.169.942.942 0 0 1 .745-.744 39.523 39.523 0 0 1 15.483 0 .942.942 0 0 1 .743.747l.121.748.638 5.175a30.628 30.628 0 0 1-.088 4.689z"/></svg>