<svg xmlns="http://www.w3.org/2000/svg" viewBox="0 0 24 24"><path d="M12 23.501A11.501 11.501 0 1 1 23.501 12 11.514 11.514 0 0 1 12 23.501zm0-22.003A10.501 10.501 0 1 0 22.501 12 10.513 10.513 0 0 0 12 1.498zm3.83 10.463a2.905 2.905 0 0 1-3.362 2.422c-.631-.059-1.248-.221-1.923-.338V17.1a.597.597 0 0 1-.605.558.587.587 0 0 1-.605-.558h0V8.934l-1.454.734c-.411.221-.749.162-.94-.147-.206-.338-.088-.676.353-.925l2.379-1.19h0a.877.877 0 0 1 .285-.062.625.625 0 0 1 .617.587v.943 1.615 1.983a.396.396 0 0 0 .294.426 4.206 4.206 0 0 0 2.115.367 1.622 1.622 0 0 0 1.674-1.483 11.202 11.202 0 0 0 .059-2.218 1.728 1.728 0 0 0-1.571-1.835 3.311 3.311 0 0 0-1.263.044h0a.401.401 0 0 1-.133.015.591.591 0 0 1-.573-.558.53.53 0 0 1 .47-.53h0a4.831 4.831 0 0 1 1.835-.015 2.61 2.61 0 0 1 2.347 2.218 11.858 11.858 0 0 1 .005 3.058h0z"/></svg>