<svg xmlns="http://www.w3.org/2000/svg" viewBox="0 0 24 24"><path d="M23.406 9.48a.5.5 0 0 0 .399-.801L20.229 3.93a2.222 2.222 0 0 0-1.719-.815l-9.325-.023h-.001-.001a2.498 2.498 0 0 0-1.412.431l-1.354.917v-.152a1.263 1.263 0 0 0-1.262-1.262h-.993A1.264 1.264 0 0 0 2.9 4.288v2.535L.313 8.576a.5.5 0 1 0 .561.828l.865-.586-.021 11.157H1.53a.5.5 0 0 0 0 1h21.659a.5.5 0 1 0 0-1h-.222V9.48zM3.901 4.288a.262.262 0 0 1 .262-.262h.993a.262.262 0 0 1 .262.262v.83L3.901 6.145zm-1.16 3.851l5.591-3.788a1.499 1.499 0 0 1 1.681-.002l4.604 3.11a.5.5 0 1 0 .56-.828l-3.751-2.534 7.082.017a1.219 1.219 0 0 1 .935.434l2.96 3.932h-6.238a.5.5 0 0 0-.5.499l-.022 10.995h-3.692v-5.098a2.503 2.503 0 0 0-2.5-2.5h-.543a2.503 2.503 0 0 0-2.5 2.5v5.098h-3.69zM7.41 19.951v-5.074a1.502 1.502 0 0 1 1.5-1.5h.543a1.502 1.502 0 0 1 1.5 1.5v5.074zm14.558.023h-5.323l.021-10.494h5.302zM9.184 10.708A1.728 1.728 0 1 0 7.457 8.98a1.73 1.73 0 0 0 1.727 1.728zm0-2.456a.728.728 0 1 1-.727.728.729.729 0 0 1 .727-.728z"/></svg>