<svg xmlns="http://www.w3.org/2000/svg" viewBox="0 0 24 24"><path d="M12 23.848A11.848 11.848 0 1 1 23.848 12 11.861 11.861 0 0 1 12 23.848zm0-22.696A10.848 10.848 0 1 0 22.848 12 10.86 10.86 0 0 0 12 1.152zM9.456 9.226a.601.601 0 0 1-.574-.603.757.757 0 0 1 .157-.417 3.773 3.773 0 0 1 3.076-1.366 3.064 3.064 0 0 1 2.17.776 2.524 2.524 0 0 1 .834 1.969 2.931 2.931 0 0 1-.704 2.084 7.553 7.553 0 0 1-2.342 1.538.876.876 0 0 1-.431.1.555.555 0 0 1-.546-.546.606.606 0 0 1 .402-.575 6.702 6.702 0 0 0 1.912-1.135 1.933 1.933 0 0 0 .532-1.437 1.619 1.619 0 0 0-1.825-1.639 2.5 2.5 0 0 0-2.17.992.601.601 0 0 1-.489.258zm1.639 6.597a.589.589 0 0 1 .589-.575.571.571 0 0 1 .589.575v.761a.571.571 0 0 1-.589.575.608.608 0 0 1-.589-.575z"/></svg>