<svg xmlns="http://www.w3.org/2000/svg" viewBox="0 0 24 24" width="24" height="24"><path d="M22.84 5.029a.499.499 0 0 0-.354-.35.49.49 0 0 0-.48.13L19.79 7.025a1.503 1.503 0 0 1-2.121 0l-.691-.691a1.502 1.502 0 0 1 0-2.122l2.216-2.216a.5.5 0 0 0-.22-.835A5.396 5.396 0 0 0 16.87.999a5.553 5.553 0 0 0-4.859 4.781 5.672 5.672 0 0 0 .174 2.243L1.744 18.462a2.677 2.677 0 0 0 .004 3.792 2.684 2.684 0 0 0 3.796 0l10.442-10.443a5.581 5.581 0 0 0 1.514.225 6.03 6.03 0 0 0 .723-.044 5.545 5.545 0 0 0 4.778-4.854 5.376 5.376 0 0 0-.161-2.11zM4.837 21.547a1.726 1.726 0 0 1-2.382 0 1.678 1.678 0 0 1 0-2.382L12.578 9.042a5.615 5.615 0 0 0 2.381 2.382zM22.008 7.025A4.538 4.538 0 0 1 18.1 11a4.668 4.668 0 0 1-2.104-.215h0a4.581 4.581 0 0 1-2.779-2.78h0a4.642 4.642 0 0 1-.215-2.103 4.552 4.552 0 0 1 4.803-3.933l-1.534 1.534a2.505 2.505 0 0 0 0 3.536l.691.691a2.503 2.503 0 0 0 3.535 0l1.535-1.535a4.357 4.357 0 0 1-.023.828zM3.751 19.503a.748.748 0 1 0 .748.748.748.748 0 0 0-.748-.748z"/></svg>