<svg xmlns="http://www.w3.org/2000/svg" viewBox="0 0 24 24"><path d="M12.056 23.743a2.69 2.69 0 0 1-1.478-.443l-2.331-1.531a12.122 12.122 0 0 1-5.609-10.081V4.265a2.698 2.698 0 0 1 1.7-2.466 19.906 19.906 0 0 1 15.324 0 2.698 2.698 0 0 1 1.7 2.466v7.474a12.124 12.124 0 0 1-5.536 10.032l-2.28 1.52a2.684 2.684 0 0 1-1.491.453zM12 1.266a18.81 18.81 0 0 0-7.275 1.455 1.702 1.702 0 0 0-1.086 1.544v7.423a11.125 11.125 0 0 0 5.158 9.245l2.331 1.531h0a1.709 1.709 0 0 0 1.865-.006l2.28-1.52a11.127 11.127 0 0 0 5.09-9.2V4.265a1.703 1.703 0 0 0-1.087-1.544A18.81 18.81 0 0 0 12 1.266zm-1.335 13.365a.461.461 0 0 1-.052-.003.501.501 0 0 1-.352-.201l-2.408-3.283a.5.5 0 0 1 .807-.592l2.082 2.839 5.953-5.324a.5.5 0 0 1 .667.746l-6.363 5.691a.502.502 0 0 1-.333.127z"/></svg>