<svg xmlns="http://www.w3.org/2000/svg" viewBox="0 0 24 24"><path d="M15.008 1.293H3.793a2.503 2.503 0 0 0-2.5 2.5v16.414a2.503 2.503 0 0 0 2.5 2.5h16.415a2.503 2.503 0 0 0 2.5-2.5V8.991a7.707 7.707 0 0 0-7.699-7.698zm2.986 1.711a.487.487 0 0 0-.03.148v7.199a1.502 1.502 0 0 1-1.5 1.5h-9.03a1.502 1.502 0 0 1-1.5-1.5V2.293h9.074a6.648 6.648 0 0 1 2.986.711zm3.713 17.203a1.502 1.502 0 0 1-1.5 1.5H3.793a1.502 1.502 0 0 1-1.5-1.5V3.793a1.502 1.502 0 0 1 1.5-1.5h1.142v8.059a2.503 2.503 0 0 0 2.5 2.5h9.03a2.503 2.503 0 0 0 2.5-2.5V3.598a6.686 6.686 0 0 1 2.743 5.393zM14.348 9.126a.5.5 0 0 0 .5-.5V4.692a.5.5 0 0 0-1 0v3.935a.5.5 0 0 0 .5.5z"/></svg>