<svg xmlns="http://www.w3.org/2000/svg" viewBox="0 0 24 24" width="24" height="24"><path d="M18.332 17.666a4.274 4.274 0 0 0-1.83.671 5.188 5.188 0 0 0-.755.632l-.031.03-.055-.302c-.076-.455-.169-1.021-.681-1.127-.489-.104-.75.318-.986.687a5.672 5.672 0 0 1-.734.971c-.361.372-.961.987-1.64.953a1.133 1.133 0 0 1-.24-.041 5.617 5.617 0 0 0 1.155-1.871 2.582 2.582 0 0 0-.473-2.511 1.468 1.468 0 0 0-1.627-.262 2.625 2.625 0 0 0-1.4 2.233 3.148 3.148 0 0 0 .776 2.521l.038.04a9.296 9.296 0 0 1-.792.654.5.5 0 0 0 .594.805 10.431 10.431 0 0 0 .995-.835 2.225 2.225 0 0 0 .912.264 3.228 3.228 0 0 0 2.419-1.256 6.035 6.035 0 0 0 .722-.913c.082.468.215.988.716 1.125.444.121.755-.183 1.029-.449a4.158 4.158 0 0 1 .612-.517 3.258 3.258 0 0 1 1.406-.511.5.5 0 0 0-.131-.992zm-7.785 1.907l-.005-.005a2.155 2.155 0 0 1-.514-1.726c.067-.586.328-1.249.759-1.411a.881.881 0 0 1 .302-.063.371.371 0 0 1 .281.11 1.645 1.645 0 0 1 .215 1.478 4.926 4.926 0 0 1-1.039 1.617zm2.669-19.4H4.784a2.503 2.503 0 0 0-2.5 2.5v18.653a2.503 2.503 0 0 0 2.5 2.5h14.432a2.503 2.503 0 0 0 2.5-2.5V8.673a8.51 8.51 0 0 0-8.5-8.5zm7.188 6.37h-5.049a1.505 1.505 0 0 1-1.078-.45 1.441 1.441 0 0 1-.422-1.037l.018-.561a4.56 4.56 0 0 0-.611-3.083c-.067-.088-.145-.16-.217-.239h.172a7.51 7.51 0 0 1 7.188 5.37zm.312 14.783a1.502 1.502 0 0 1-1.5 1.5H4.784a1.502 1.502 0 0 1-1.5-1.5V2.673a1.502 1.502 0 0 1 1.5-1.5h6.809l.089.077a5.411 5.411 0 0 1 .785.77 3.786 3.786 0 0 1 .405 2.436l-.018.588a2.432 2.432 0 0 0 .711 1.752 2.496 2.496 0 0 0 1.79.748h5.267a7.487 7.487 0 0 1 .095 1.13zM5.23 8.572h5.042a.5.5 0 0 0 0-1H5.23a.5.5 0 0 0 0 1zm0 2.396h8.212a.5.5 0 1 0 0-1H5.23a.5.5 0 1 0 0 1zm5.541 1.898a.5.5 0 0 0-.5-.5H5.23a.5.5 0 0 0 0 1h5.042a.5.5 0 0 0 .5-.5z"/></svg>