<svg xmlns="http://www.w3.org/2000/svg" viewBox="0 0 24 24"><path d="M12 .152A11.859 11.859 0 0 0 .504 9.186a.49.49 0 0 0-.043.165A11.842 11.842 0 1 0 12 .152zm0 1a10.863 10.863 0 0 1 10.321 7.522l-1.014-.285A34.471 34.471 0 0 0 2.69 8.38l-1.007.282A10.863 10.863 0 0 1 12 1.152zM1.251 13.388h4.541a3.504 3.504 0 0 1 3.5 3.5v5.604a10.86 10.86 0 0 1-8.041-9.104zm9.041 9.311v-5.811a4.505 4.505 0 0 0-4.5-4.5h-4.62L1.152 12a10.848 10.848 0 0 1 .229-2.216l1.579-.442a33.454 33.454 0 0 1 18.076.01l1.586.445A10.852 10.852 0 0 1 22.848 12c0 .131-.015.258-.02.388h-4.664a4.505 4.505 0 0 0-4.5 4.5v5.818a10.825 10.825 0 0 1-1.664.141 10.831 10.831 0 0 1-1.708-.148zm4.372-.197v-5.615a3.504 3.504 0 0 1 3.5-3.5h4.585a10.86 10.86 0 0 1-8.085 9.115zM15.116 12A3.116 3.116 0 1 0 12 15.115 3.119 3.119 0 0 0 15.116 12zm-5.231 0A2.116 2.116 0 1 1 12 14.115 2.118 2.118 0 0 1 9.884 12z"/></svg>