<svg xmlns="http://www.w3.org/2000/svg" viewBox="0 0 24 24"><path d="M22.894 16.793l-20.651-.018 4.602-5.013a.5.5 0 1 0-.736-.677l-5.371 5.85a.48.48 0 0 0-.049.079.48.48 0 0 0-.045.073.496.496 0 0 0-.033.164c0 .008-.004.014-.004.022v.001a.498.498 0 0 0 .037.187.484.484 0 0 0 .047.075.477.477 0 0 0 .05.079l5.498 5.889a.5.5 0 0 0 .73-.683l-4.712-5.046 20.635.018h0a.5.5 0 0 0 0-1zm.462-10.254a.484.484 0 0 0-.047-.075.477.477 0 0 0-.05-.079L17.761.496a.5.5 0 0 0-.73.683l4.712 5.046-20.635-.018h0a.5.5 0 0 0 0 1l20.651.018-4.602 5.013a.5.5 0 1 0 .736.676l5.37-5.85a.481.481 0 0 0 .046-.075.367.367 0 0 0 .081-.24c0-.008.005-.015.005-.023v-.001a.497.497 0 0 0-.037-.187z"/></svg>