<svg xmlns="http://www.w3.org/2000/svg" viewBox="0 0 24 24" width="24" height="24"><path d="M17.116.666H6.884a2.502 2.502 0 0 0-2.5 2.5v17.669a2.502 2.502 0 0 0 2.5 2.5h10.232a2.502 2.502 0 0 0 2.5-2.5V3.166a2.502 2.502 0 0 0-2.5-2.5zm1.5 2.995v14.745H5.384V3.661zM6.884 1.666h10.232a1.498 1.498 0 0 1 1.406.995H5.477a1.498 1.498 0 0 1 1.406-.995zm10.232 20.669H6.884a1.502 1.502 0 0 1-1.5-1.5v-1.429h13.232v1.429a1.502 1.502 0 0 1-1.5 1.5zM12 20.144a.748.748 0 1 0 .748.748.748.748 0 0 0-.748-.748z"/></svg>