<svg xmlns="http://www.w3.org/2000/svg" viewBox="0 0 24 24"><circle cx="4.768" cy="12.188" r=".637"/><path d="M21.727 10.164a4.459 4.459 0 0 0-3.175-1.315h-1.02a1.502 1.502 0 0 1-1.5-1.5L16.03 2.16A1.874 1.874 0 0 0 14.148.24h-.788a1.883 1.883 0 0 0-1.814 1.389l-.795 4.136c-.25 1.305-2.508 2.694-3.435 3.162a2.486 2.486 0 0 0-1.4-.43H3.459a2.502 2.502 0 0 0-2.5 2.5V21.26a2.502 2.502 0 0 0 2.5 2.5h2.457a2.489 2.489 0 0 0 1.992-1.005 4.44 4.44 0 0 0 2.423.727h7.993a4.287 4.287 0 0 0 3.948-3.004 65.24 65.24 0 0 0 .769-7.141 4.459 4.459 0 0 0-1.314-3.174zM7.416 21.26a1.502 1.502 0 0 1-1.5 1.5H3.459a1.502 1.502 0 0 1-1.5-1.5V10.997a1.502 1.502 0 0 1 1.5-1.5h2.457a1.502 1.502 0 0 1 1.5 1.5zm13.909-1.103a3.296 3.296 0 0 1-3.042 2.324h-7.952a3.454 3.454 0 0 1-1.992-.633 2.478 2.478 0 0 0 .077-.589V10.997a2.477 2.477 0 0 0-.384-1.316c.94-.508 3.363-1.973 3.701-3.727l.782-4.086a.876.876 0 0 1 .845-.628l.744-.002c.57.05.961.406.927.885v5.226a2.502 2.502 0 0 0 2.5 2.5h1.02a3.491 3.491 0 0 1 3.49 3.455 61.852 61.852 0 0 1-.717 6.855z"/></svg>