<svg xmlns="http://www.w3.org/2000/svg" viewBox="0 0 24 24" width="24" height="24"><path d="M20.712 4.562h-5.943v-.709a2.503 2.503 0 0 0-2.5-2.5h-.587a2.503 2.503 0 0 0-2.5 2.5v.709H3.288a.5.5 0 1 0 0 1h1.104l.862 14.732a2.502 2.502 0 0 0 2.496 2.354h8.501a2.502 2.502 0 0 0 2.496-2.354l.862-14.732h1.104a.5.5 0 0 0 0-1zm-10.531-.709a1.502 1.502 0 0 1 1.5-1.5h.587a1.502 1.502 0 0 1 1.5 1.5v.709h-3.587zm7.567 16.383a1.501 1.501 0 0 1-1.498 1.412H7.749a1.501 1.501 0 0 1-1.498-1.412L5.394 5.562h13.213zm-8.986-.792q.021 0 .041-.001a.501.501 0 0 0 .458-.539L8.357 7.74a.509.509 0 0 0-.539-.458.501.501 0 0 0-.458.539l.904 11.163a.501.501 0 0 0 .498.459zm3.157 0a.5.5 0 0 0 .5-.5V7.781a.5.5 0 0 0-1 0v11.163a.5.5 0 0 0 .5.5zm3.228-.002l.041.001a.501.501 0 0 0 .498-.459l.903-11.163a.5.5 0 0 0-.997-.081l-.903 11.163a.501.501 0 0 0 .458.539z"/></svg>