<svg xmlns="http://www.w3.org/2000/svg" viewBox="0 0 24 24" width="24" height="24"><path d="M8.725 21.333a16.815 16.815 0 0 1-7.981-2.19.5.5 0 0 1-.243-.572.486.486 0 0 1 .501-.367 9.569 9.569 0 0 0 5.557-1.639 8.778 8.778 0 0 1-4.647-4.958 10.126 10.126 0 0 1 .838-7.47.497.497 0 0 1 .408-.254.48.48 0 0 1 .434.208A9.868 9.868 0 0 0 11.5 8.291v-.604a4.818 4.818 0 0 1 3.211-4.585 4.729 4.729 0 0 1 5.152.716l.519-.143a13.145 13.145 0 0 0 2.415-.833.501.501 0 0 1 .706.569 19.258 19.258 0 0 1-1.476 3.321l-.523 1.065a15.138 15.138 0 0 1-.555 4.181 12.611 12.611 0 0 1-8.771 8.877 12.377 12.377 0 0 1-3.452.477zm-5.811-2.251a13.477 13.477 0 0 0 8.984.813 11.626 11.626 0 0 0 8.086-8.184 14.74 14.74 0 0 0 .529-3.997c-.001-.212.093-.411.624-1.439l1.023-2.089-1.516.454-.793.222a.502.502 0 0 1-.515-.147c-1.318-1.487-3.245-1.062-4.276-.676A3.83 3.83 0 0 0 12.5 7.68V8.79a.5.5 0 0 1-.487.5 10.915 10.915 0 0 1-8.72-3.952 8.815 8.815 0 0 0-.429 5.959c.68 2.02 2.339 3.616 4.929 4.746a.5.5 0 0 1 .078.874 12.76 12.76 0 0 1-4.956 2.166z"/></svg>