<svg xmlns="http://www.w3.org/2000/svg" viewBox="0 0 24 24"><path d="M22.794 9.785a11.084 11.084 0 0 0-21.589 0 2.415 2.415 0 0 0 .436 2.091 2.541 2.541 0 0 0 2.016.925h7.853v7.525a1.419 1.419 0 0 1-.916 1.385 1.379 1.379 0 0 1-1.259-.194 1.355 1.355 0 0 1-.558-1.102.5.5 0 0 0-1 0 2.366 2.366 0 0 0 2.366 2.366 2.53 2.53 0 0 0 .75-.115 2.425 2.425 0 0 0 1.618-2.34V12.8h7.834a2.54 2.54 0 0 0 2.015-.925 2.415 2.415 0 0 0 .436-2.091zm-1.219 1.469a1.548 1.548 0 0 1-1.232.547H3.657a1.549 1.549 0 0 1-1.232-.547 1.434 1.434 0 0 1-.245-1.242 10.085 10.085 0 0 1 19.642 0 1.434 1.434 0 0 1-.245 1.242z"/></svg>