<svg xmlns="http://www.w3.org/2000/svg" viewBox="0 0 24 24" width="24" height="24"><path d="M23.117 12.193a.499.499 0 0 0-.437-.258h-2.439l1.623-6.697a.5.5 0 0 0-.894-.407l-4.904 6.933H3.343a1.547 1.547 0 0 1-1.232-.547 1.434 1.434 0 0 1-.245-1.242 10.084 10.084 0 0 1 17.117-4.668.5.5 0 1 0 .724-.689A11.084 11.084 0 0 0 .892 9.748a2.416 2.416 0 0 0 .436 2.091 2.54 2.54 0 0 0 2.015.925h7.853v7.526a1.419 1.419 0 0 1-.917 1.385 1.375 1.375 0 0 1-1.259-.194 1.355 1.355 0 0 1-.558-1.102.5.5 0 0 0-1 0 2.366 2.366 0 0 0 2.366 2.366 2.521 2.521 0 0 0 .749-.115 2.425 2.425 0 0 0 1.619-2.34v-7.526h3.163l-1.296 1.832a.5.5 0 0 0 .408.789h2.498l-.988 6.862a.5.5 0 0 0 .918.337l6.205-9.883a.501.501 0 0 0 .014-.508zm-5.811 7.86l.734-5.098a.501.501 0 0 0-.495-.571h-2.108l4.839-6.841-1.157 4.773a.499.499 0 0 0 .486.618h2.17z"/></svg>