<svg xmlns="http://www.w3.org/2000/svg" viewBox="0 0 24 24"><path d="M16.803 6.835a.5.5 0 0 0 .707 0l2.47-2.47 2.47 2.47a.5.5 0 1 0 .707-.707l-2.47-2.47 2.47-2.47a.5.5 0 1 0-.707-.707l-2.47 2.47L17.51.48a.5.5 0 1 0-.707.707l2.47 2.47-2.47 2.47a.5.5 0 0 0 0 .707zm6.488 2.541a.5.5 0 0 0-.973.23 10.59 10.59 0 0 1-3.967 10.927l.043-.617a6.403 6.403 0 0 0-4.57-6.126 4.403 4.403 0 1 0-3.65 0 6.403 6.403 0 0 0-4.57 6.126 6.45 6.45 0 0 0 .036.612 10.599 10.599 0 0 1 9.133-18.703.5.5 0 0 0 .262-.965 11.593 11.593 0 1 0 8.256 8.516zm-14.694.42A3.403 3.403 0 1 1 12 13.199a3.406 3.406 0 0 1-3.403-3.403zM6.756 21.267a.473.473 0 0 0-.003-.09 5.398 5.398 0 1 1 10.46.109 10.529 10.529 0 0 1-10.456-.019z"/></svg>