<svg xmlns="http://www.w3.org/2000/svg" viewBox="0 0 24 24"><path d="M23.644 1.694a.502.502 0 0 0-.706-.04L17.98 6.089 16.513 4.09a.5.5 0 1 0-.807.592l1.793 2.443a.501.501 0 0 0 .352.201.458.458 0 0 0 .052.003.502.502 0 0 0 .334-.127L23.604 2.4a.5.5 0 0 0 .039-.706zm-1.571 5.974a.499.499 0 0 0-.295.643 10.588 10.588 0 0 1-3.593 12.161l.043-.617a6.403 6.403 0 0 0-4.57-6.126 4.403 4.403 0 1 0-3.65 0 6.403 6.403 0 0 0-4.57 6.126 6.46 6.46 0 0 0 .036.611 10.599 10.599 0 0 1 9.133-18.703.5.5 0 0 0 .262-.965 11.593 11.593 0 1 0 7.847 7.165.501.501 0 0 0-.643-.295zM8.43 9.733a3.403 3.403 0 1 1 3.403 3.403A3.407 3.407 0 0 1 8.43 9.733zM6.59 21.205a.474.474 0 0 0-.003-.091 5.398 5.398 0 1 1 10.459.11 10.529 10.529 0 0 1-10.456-.019z"/></svg>