<svg xmlns="http://www.w3.org/2000/svg" viewBox="0 0 24 24" width="24" height="24"><path d="M22.66 10.091l-.714-.341a.802.802 0 0 1-.393-.412l-1.615-3.847a1.795 1.795 0 0 0-1.659-1.104h-3.006a1.802 1.802 0 0 0-1.8 1.8v.189H2.937a1.824 1.824 0 0 0-1.813 1.617L.32 15.001a.5.5 0 0 0 .497.557h3.069a.5.5 0 1 0 0-1H1.377l.741-6.45a.825.825 0 0 1 .82-.73h10.536v7.171H6.885a.476.476 0 0 0-.097.02 2.527 2.527 0 0 0-2.38 2.018H.816a.5.5 0 1 0 0 1h3.592a2.527 2.527 0 0 0 4.954 0h7.304a2.527 2.527 0 0 0 4.953 0h.264a1.802 1.802 0 0 0 1.8-1.8v-4.07a1.811 1.811 0 0 0-1.024-1.624zM6.885 18.612a1.527 1.527 0 1 1 1.527-1.527 1.529 1.529 0 0 1-1.527 1.527zm12.258 0a1.527 1.527 0 1 1 1.527-1.527 1.529 1.529 0 0 1-1.527 1.527zm3.541-2.827a.801.801 0 0 1-.8.8h-.264a2.527 2.527 0 0 0-4.953 0H9.362a2.505 2.505 0 0 0-.485-1.037h5.096a.5.5 0 0 0 .5-.5v-8.86a.801.801 0 0 1 .8-.8h3.006a.798.798 0 0 1 .737.49l1.614 3.847a1.8 1.8 0 0 0 .884.928l.714.341a.805.805 0 0 1 .456.722z"/></svg>