<svg xmlns="http://www.w3.org/2000/svg" viewBox="0 0 24 24"><path d="M20.78 7.354q.007-.145.007-.293A5.576 5.576 0 0 0 10.334 4.35a4.226 4.226 0 0 0-1.402-.255 4.275 4.275 0 0 0-4.251 3.787 4.277 4.277 0 0 0 .311 8.542H7.17a.496.496 0 0 0 .06.469.502.502 0 0 0 .466.198l1.904-.248-1.573 5.032a.5.5 0 0 0 .848.485l6.897-7.614a.5.5 0 0 0 .068-.576.494.494 0 0 0-.522-.253l-1.465.248 2.345-3.233a.5.5 0 0 0-.405-.794H10.31a.5.5 0 0 0-.456.295L7.61 15.424H4.992a3.276 3.276 0 1 1 0-6.553l.136.003c.254.032.495-.242.527-.503a3.277 3.277 0 0 1 6.553 0 .5.5 0 0 0 1 0 4.268 4.268 0 0 0-1.973-3.592 4.579 4.579 0 0 1 8.551 2.282 4.644 4.644 0 0 1-.03.53.501.501 0 0 0 .289.513 3.833 3.833 0 0 1-1.594 7.319H16.99a.5.5 0 0 0 0 1h1.461a4.834 4.834 0 0 0 2.329-9.069zm-10.146 3.783h4.178l-2.487 3.43a.501.501 0 0 0-.02.558.496.496 0 0 0 .508.229l1.25-.211-4.403 4.86 1.128-3.608a.5.5 0 0 0-.477-.649.476.476 0 0 0-.064.004l-1.791.233z"/></svg>