<svg xmlns="http://www.w3.org/2000/svg" viewBox="0 0 24 24" width="24" height="24"><path d="M23.751 10.084a1.255 1.255 0 0 0-.047-.193l-3.089-5.97c-.004-.007-.012-.01-.016-.017a.49.49 0 0 0-.158-.169.482.482 0 0 0-.051-.022.498.498 0 0 0-.177-.05c-.014-.001-.025-.011-.04-.011h-.002c-.013 0-.023.009-.035.01a.488.488 0 0 0-.06-.001L12.5 5.133V4.041a1.915 1.915 0 1 0-1 0v1.286L3.733 6.836a.483.483 0 0 0-.131.054c-.012.006-.026.008-.038.016a.492.492 0 0 0-.163.171c-.004.006-.011.009-.015.016L.303 12.912a.487.487 0 0 0-.045.3.475.475 0 0 0-.013.066v1.323a2.503 2.503 0 0 0 2.5 2.5h2.167a2.503 2.503 0 0 0 2.5-2.5v-1.323a1.254 1.254 0 0 0-.051-.212L4.58 7.691l6.92-1.344v13.503H8.409a2.397 2.397 0 0 0-2.395 2.395 1.473 1.473 0 0 0 1.471 1.471h9.03a1.473 1.473 0 0 0 1.471-1.471 2.397 2.397 0 0 0-2.395-2.395H12.5V6.152l6.74-1.309-2.593 4.894a.487.487 0 0 0-.045.3.475.475 0 0 0-.013.066v1.323a2.503 2.503 0 0 0 2.5 2.5h2.167a2.503 2.503 0 0 0 2.5-2.5v-1.323zM11.085 2.2a.915.915 0 1 1 .915.916.916.916 0 0 1-.915-.916zM3.823 8.404l2.266 4.374H1.506zm2.588 6.197a1.502 1.502 0 0 1-1.5 1.5H2.745a1.502 1.502 0 0 1-1.5-1.5v-.823h5.167zm10.574 7.643a.471.471 0 0 1-.471.471h-9.03a.471.471 0 0 1-.471-.471 1.396 1.396 0 0 1 1.395-1.395h7.183a1.396 1.396 0 0 1 1.395 1.395zm5.447-12.641h-4.584l2.318-4.374zm.322 1.823a1.502 1.502 0 0 1-1.5 1.5h-2.167a1.502 1.502 0 0 1-1.5-1.5v-.823h5.167z"/></svg>