<svg xmlns="http://www.w3.org/2000/svg" viewBox="0 0 24 24" width="24" height="24"><path d="M22.73 15.437l.485-.833a.5.5 0 0 0-.302-.734l-1.244-.335-.359-1.091a.498.498 0 0 0-.361-.33l-4.059-.932a.851.851 0 0 1-.465-.286l-2.228-2.687a1.84 1.84 0 0 0-1.421-.668h-7.1a1.839 1.839 0 0 0-1.423.67L.824 12.353a1.851 1.851 0 0 0-.357 1.671l.562 2.026a1.853 1.853 0 0 0 1.78 1.354h1.615a2.514 2.514 0 0 0 4.927 0h7.251a2.51 2.51 0 0 0 4.934-.071l1.401-.242a.501.501 0 0 0 .342-.753zm-15.844 2.98A1.514 1.514 0 1 1 8.4 16.904a1.515 1.515 0 0 1-1.514 1.514zm12.178 0a1.514 1.514 0 1 1 1.514-1.514 1.515 1.515 0 0 1-1.514 1.514zm2.439-2.095a2.51 2.51 0 0 0-4.903.081H9.35a2.513 2.513 0 0 0-4.927 0H2.809a.849.849 0 0 1-.816-.621l-.562-2.026a.85.85 0 0 1 .164-.767l3.429-4.143a.845.845 0 0 1 .652-.307h7.1a.843.843 0 0 1 .652.307l2.228 2.688a1.85 1.85 0 0 0 1.014.622l3.778.866.356 1.081a.498.498 0 0 0 .345.326l.874.235-.306.525a.501.501 0 0 0 .005.512l.321.527zm-8.036-5.254H4.965a.5.5 0 1 0 0 1h8.501a.5.5 0 1 0 0-1zm3.586-.827a.5.5 0 1 0 .908-.418l-.71-1.546a.5.5 0 0 0-.908.418zm1.932-.134a.418.418 0 0 0 .06-.004.499.499 0 0 0 .437-.556l-.423-3.516a.5.5 0 0 0-.993.119l.423 3.516a.501.501 0 0 0 .496.44zm1.286.074a.477.477 0 0 0 .159.026.5.5 0 0 0 .474-.341l1.553-4.626a.5.5 0 0 0-.948-.318l-1.553 4.626a.5.5 0 0 0 .315.633zm3.194-1.654a.502.502 0 0 0-.707-.023l-1.404 1.314a.5.5 0 0 0 .684.73l1.404-1.314a.501.501 0 0 0 .023-.707z"/></svg>