<svg xmlns="http://www.w3.org/2000/svg" viewBox="0 0 24 24"><path d="M17.998 9.834A5.999 5.999 0 1 0 12 15.833a6.005 6.005 0 0 0 5.998-5.999zM12 14.833a4.999 4.999 0 1 1 4.999-4.999A5.004 5.004 0 0 1 12 14.833zm10.111 4.752l-2.799-4.847a2.378 2.378 0 0 0 .68-1.659v-.735a1.382 1.382 0 0 1 .183-.687l.369-.637a2.379 2.379 0 0 0 0-2.372l-.368-.638a1.373 1.373 0 0 1-.184-.686V6.59a2.381 2.381 0 0 0-1.187-2.056l-.636-.366a1.381 1.381 0 0 1-.503-.503l-.368-.637a2.378 2.378 0 0 0-2.054-1.187h-.736a1.372 1.372 0 0 1-.687-.185l-.637-.367a2.379 2.379 0 0 0-2.371 0l-.637.367a1.372 1.372 0 0 1-.687.185h-.735a2.379 2.379 0 0 0-2.055 1.187l-.367.636a1.376 1.376 0 0 1-.503.503l-.637.368A2.38 2.38 0 0 0 4.007 6.59v.735a1.373 1.373 0 0 1-.184.686l-.368.638a2.38 2.38 0 0 0 0 2.372l.367.636a1.379 1.379 0 0 1 .184.688v.735a2.376 2.376 0 0 0 .68 1.659l-2.799 4.847a.5.5 0 0 0 .017.526.489.489 0 0 0 .479.22l1.849-.233a1.504 1.504 0 0 1 1.57.906l.722 1.718a.499.499 0 0 0 .43.306.32.32 0 0 0 .031.001.501.501 0 0 0 .433-.25l2.753-4.768.004.002.636.366a2.378 2.378 0 0 0 2.372.001l.639-.368.003-.001 2.753 4.769a.501.501 0 0 0 .433.25l.031-.001a.5.5 0 0 0 .43-.305l.723-1.719a1.505 1.505 0 0 1 1.57-.906l1.849.233a.485.485 0 0 0 .479-.22.5.5 0 0 0 .017-.526zM7.058 21.406l-.332-.79a2.519 2.519 0 0 0-2.617-1.511l-.85.107 2.251-3.897.322.186a1.36 1.36 0 0 1 .502.502l.368.637a2.381 2.381 0 0 0 2.055 1.187h.368zm5.628-3.894a1.372 1.372 0 0 1-1.372-.001l-.636-.366a2.373 2.373 0 0 0-1.187-.318h-.735a1.376 1.376 0 0 1-1.188-.687l-.368-.637a2.373 2.373 0 0 0-.868-.868l-.638-.369a1.372 1.372 0 0 1-.686-1.187v-.735a2.382 2.382 0 0 0-.318-1.187l-.368-.637a1.377 1.377 0 0 1 0-1.372l.368-.638a2.374 2.374 0 0 0 .317-1.186V6.59a1.377 1.377 0 0 1 .687-1.188l.638-.368a2.397 2.397 0 0 0 .868-.868l.368-.637a1.375 1.375 0 0 1 1.188-.687h.735a2.385 2.385 0 0 0 1.186-.317l.638-.368a1.375 1.375 0 0 1 1.371 0l.638.368a2.385 2.385 0 0 0 1.186.317h.736a1.374 1.374 0 0 1 1.188.687l.368.638a2.4 2.4 0 0 0 .869.868l.636.366a1.379 1.379 0 0 1 .687 1.189v.735a2.374 2.374 0 0 0 .317 1.186l.368.638a1.376 1.376 0 0 1 0 1.372l-.369.638a2.384 2.384 0 0 0-.317 1.186v.735a1.375 1.375 0 0 1-.686 1.188l-.637.367a2.378 2.378 0 0 0-.869.869l-.368.637a1.375 1.375 0 0 1-1.188.687h-.736a2.373 2.373 0 0 0-1.186.317zm7.207 1.593a2.515 2.515 0 0 0-2.617 1.511l-.332.79-2.066-3.579h.368A2.38 2.38 0 0 0 17.3 16.64l.368-.637a1.367 1.367 0 0 1 .502-.503l.322-.185 2.251 3.897z"/></svg>