<svg xmlns="http://www.w3.org/2000/svg" viewBox="0 0 24 24"><path d="M20.827 17.059V14.93l.581-.792a.501.501 0 0 0-.003-.596l-.391-.522.224-.224a.5.5 0 0 0 0-.707l-.06-.06.427-.562a.5.5 0 0 0-.035-.646l-1.554-1.642a8.633 8.633 0 0 0-.278-2.073.498.498 0 0 0-.034-.132A8.681 8.681 0 0 0 11.349.588H3.796a2.416 2.416 0 0 0-2.414 2.414v17.852a2.416 2.416 0 0 0 2.414 2.414h10.051a.5.5 0 0 0 0-1H3.796a1.416 1.416 0 0 1-1.414-1.414V3.002a1.416 1.416 0 0 1 1.414-1.414h6.508l.083.072a5.084 5.084 0 0 1 .745.73 3.606 3.606 0 0 1 .383 2.316l-.018.563a2.353 2.353 0 0 0 .686 1.692 2.415 2.415 0 0 0 1.729.722h4.945a7.665 7.665 0 0 1 .134.984.472.472 0 0 0-.093.057l-1.084 1.031a.501.501 0 0 0-.155.362v6.939a3.375 3.375 0 1 0 3.169 0zM13.912 6.684a1.416 1.416 0 0 1-1.017-.425 1.359 1.359 0 0 1-.398-.977l.017-.536a4.375 4.375 0 0 0-.588-2.964c-.049-.064-.106-.115-.158-.174a7.676 7.676 0 0 1 6.799 5.076zm5.331 15.728a2.373 2.373 0 0 1-.896-4.572.501.501 0 0 0 .311-.463v-7.042l.566-.538 1.329 1.403-.435.572a.5.5 0 0 0 .044.656l.015.015-.176.177a.5.5 0 0 0-.047.653l.429.572-.459.625a.5.5 0 0 0-.097.296v2.61a.501.501 0 0 0 .311.463 2.373 2.373 0 0 1-.896 4.572zm0-2.098a.722.722 0 1 0 .722.722.722.722 0 0 0-.722-.722zM4.223 8.669h4.824a.5.5 0 1 0 0-1H4.223a.5.5 0 1 0 0 1zm8.358 1.794a.5.5 0 0 0-.5-.5H4.223a.5.5 0 1 0 0 1h7.858a.5.5 0 0 0 .5-.5zm-8.358 1.794a.5.5 0 1 0 0 1h4.824a.5.5 0 0 0 0-1z"/></svg>