<svg xmlns="http://www.w3.org/2000/svg" viewBox="0 0 24 24" width="24" height="24"><path d="M.777 15.568h2.956a.5.5 0 1 0 0-1H.777a.5.5 0 0 0 0 1z"/><path d="M22.302 9.897l-.323-.154a.801.801 0 0 1-.394-.414l-1.441-3.433a2.493 2.493 0 0 0-2.305-1.533H15.98a2.503 2.503 0 0 0-2.5 2.5v7.146L3.376 7.193a.5.5 0 0 0-.78.414v1.781a1.593 1.593 0 1 0 1 0v-.84l8.925 6.021H9.867a.5.5 0 0 0 0 1h4.113a.5.5 0 0 0 .5-.5V6.863a1.502 1.502 0 0 1 1.5-1.5h1.858a1.497 1.497 0 0 1 1.383.92l1.441 3.433a1.796 1.796 0 0 0 .884.93l.322.154a1.506 1.506 0 0 1 .853 1.353v2.95a1.497 1.497 0 0 1-1.089 1.435 2.531 2.531 0 0 0-4.95.065H9.351a2.534 2.534 0 0 0-4.968 0H.777a.5.5 0 0 0 0 1h3.606a2.534 2.534 0 0 0 4.968 0h7.333a2.531 2.531 0 0 0 4.972-.044 2.499 2.499 0 0 0 2.066-2.456v-2.95a2.513 2.513 0 0 0-1.421-2.255zM3.097 11.484a.592.592 0 1 1 .593-.593.593.593 0 0 1-.593.593zm3.771 7.152a1.534 1.534 0 1 1 1.535-1.534 1.536 1.536 0 0 1-1.535 1.534zm12.301 0a1.534 1.534 0 1 1 1.535-1.534 1.536 1.536 0 0 1-1.535 1.534z"/></svg>