<svg xmlns="http://www.w3.org/2000/svg" viewBox="0 0 24 24" width="24" height="24"><path d="M23.317 11.5h-.827a4.805 4.805 0 0 0-9.135-1.56 2.273 2.273 0 0 0-2.707.003 4.825 4.825 0 0 0-.718-1.09.491.491 0 0 0-.141-.173l-.002-.001a4.801 4.801 0 0 0-8.275 2.82H.683a.5.5 0 1 0 0 1h.828a4.818 4.818 0 1 0 9.486-1.567 1.371 1.371 0 0 1 2.006.002 4.817 4.817 0 1 0 9.486 1.565h.827a.5.5 0 0 0 0-1zM6.292 8.168a3.801 3.801 0 0 1 2.528.975l-2.218 2.976-.593-.851a.499.499 0 0 0-.395-.214.509.509 0 0 0-.408.189l-2.175 2.744A3.793 3.793 0 0 1 2.46 12a3.836 3.836 0 0 1 3.832-3.832zm0 7.664a3.809 3.809 0 0 1-2.616-1.047l1.897-2.393.605.868a.5.5 0 0 0 .402.214.465.465 0 0 0 .409-.201l2.507-3.363a3.823 3.823 0 0 1-3.204 5.923zm11.416 0A3.832 3.832 0 1 1 21.54 12a3.836 3.836 0 0 1-3.832 3.832z"/></svg>