<svg xmlns="http://www.w3.org/2000/svg" viewBox="0 0 24 24"><path d="M13.042 6.52V4.8a.5.5 0 0 0-.5-.5h-.595V1.967a1.595 1.595 0 1 0-3.189 0V4.3h-.595a.5.5 0 0 0-.5.5v1.722A2.495 2.495 0 0 0 5.485 8.99v12.224a2.503 2.503 0 0 0 2.5 2.5h4.747a2.503 2.503 0 0 0 2.5-2.5V8.989a2.495 2.495 0 0 0-2.189-2.469zm1.189 11.813h-.784a1.502 1.502 0 0 1-1.5-1.5v-2.558a1.502 1.502 0 0 1 1.5-1.5h.784zM9.758 1.967a.595.595 0 1 1 1.189 0V4.3H9.758zM8.663 5.3h3.379v1.189H8.663zm4.068 17.413H7.985a1.502 1.502 0 0 1-1.5-1.5V8.989a1.502 1.502 0 0 1 1.5-1.5h4.747a1.502 1.502 0 0 1 1.5 1.5v2.787h-.784a2.503 2.503 0 0 0-2.5 2.5v2.558a2.503 2.503 0 0 0 2.5 2.5h.784v1.879a1.502 1.502 0 0 1-1.5 1.5zm1.453-20.278a.547.547 0 1 0-.547-.547.547.547 0 0 0 .547.547zm2.189-1.095a.547.547 0 1 0-.547-.547.547.547 0 0 0 .547.547zm.548 2.19a1.095 1.095 0 1 0 1.095 1.095 1.095 1.095 0 0 0-1.095-1.095z"/></svg>