<svg xmlns="http://www.w3.org/2000/svg" viewBox="0 0 24 24" width="24" height="24"><path d="M6.06 8.067c-.025-.038-.05-.063-.075-.101a.704.704 0 0 0-.101-.075.447.447 0 0 0-.113-.05l-.113-.038a.388.388 0 0 0-.126-.013c-.025-.013-.063 0-.113 0l-.113.038a.511.511 0 0 0-.113.063c-.038.025-.063.05-.101.075a.7.7 0 0 0-.076.101c-.025.038-.038.075-.063.113l-.038.113a.636.636 0 0 0 0 .252l.038.113a.513.513 0 0 0 .063.113c.025.038.05.063.076.101a.694.694 0 0 0 .101.075c.038.025.075.038.113.063l.113.038a.428.428 0 0 0 .126.013.59.59 0 0 0 .44-.189.695.695 0 0 0 .075-.101c.025-.038.038-.075.063-.113l.038-.113a.843.843 0 0 0 0-.252l-.038-.113a.508.508 0 0 0-.063-.113zM18.972 18.11c-.025-.038-.05-.063-.076-.101a.641.641 0 0 0-.44-.189.59.59 0 0 0-.44.189.698.698 0 0 0-.076.101c-.025.038-.038.076-.063.113l-.038.113a.428.428 0 0 0-.013.126.59.59 0 0 0 .189.44.641.641 0 0 0 .44.189.59.59 0 0 0 .44-.189.637.637 0 0 0 .176-.566l-.038-.113a.513.513 0 0 0-.063-.113zM6.072 5.198c-.025-.038-.05-.063-.076-.101a.699.699 0 0 0-.101-.075.45.45 0 0 0-.113-.05l-.113-.038a.388.388 0 0 0-.126-.013.428.428 0 0 0-.126.013l-.113.038a.513.513 0 0 0-.113.063c-.038.025-.063.05-.101.076a.696.696 0 0 0-.076.101c-.025.038-.038.075-.063.113l-.038.113a.388.388 0 0 0-.013.126.428.428 0 0 0 .013.126l.038.113a.513.513 0 0 0 .063.113c.025.038.05.063.076.101a.699.699 0 0 0 .101.076c.038.025.075.038.113.063l.113.038a.428.428 0 0 0 .126.013.59.59 0 0 0 .44-.189c.038-.063.063-.088.088-.126s.038-.076.063-.113l.038-.113a.763.763 0 0 0 0-.239l-.038-.113a.512.512 0 0 0-.063-.113zM18.997 15.24c-.025-.038-.05-.063-.076-.101a.641.641 0 0 0-.441-.189c-.063 0-.101.013-.138.013l-.113.038a.513.513 0 0 0-.113.063c-.038.025-.063.05-.101.076a.697.697 0 0 0-.076.101.446.446 0 0 0-.05.113l-.038.113a.388.388 0 0 0-.013.126.59.59 0 0 0 .189.44.695.695 0 0 0 .101.076c.038.025.076.038.113.063l.113.038a.429.429 0 0 0 .126.013.59.59 0 0 0 .441-.189.637.637 0 0 0 .176-.566l-.038-.113a.511.511 0 0 0-.063-.113zM16.128 5.185c-.025-.038-.05-.063-.076-.101a.303.303 0 0 0-.101-.075c-.038-.025-.075-.038-.113-.063l-.113-.038a.388.388 0 0 0-.126-.013.59.59 0 0 0-.44.189.699.699 0 0 0-.075.101c-.025.038-.038.075-.063.113l-.038.113a.388.388 0 0 0-.013.126.428.428 0 0 0 .013.126l.038.113a.512.512 0 0 0 .063.113c.025.038.05.063.075.101a.302.302 0 0 0 .101.075c.038.025.075.038.113.063l.113.038a.388.388 0 0 0 .126.013.429.429 0 0 0 .126-.013.252.252 0 0 1 .101-.05.51.51 0 0 0 .113-.063c.038-.025.063-.05.101-.075a.637.637 0 0 0 .176-.566l-.038-.113a.51.51 0 0 0-.063-.113zm1.749 3.461a.509.509 0 0 0 .063.113c.025.038.05.063.076.101a.641.641 0 0 0 .44.189.429.429 0 0 0 .126-.013l.113-.038a.507.507 0 0 0 .113-.063c.038-.025.063-.05.101-.075a.303.303 0 0 0 .076-.101c.025-.038.038-.075.063-.113l.038-.113a.84.84 0 0 0 0-.252l-.038-.113a.51.51 0 0 0-.063-.113c-.025-.038-.05-.063-.076-.101a.303.303 0 0 0-.101-.075c-.038-.025-.076-.038-.113-.063l-.113-.038a.388.388 0 0 0-.126-.013.59.59 0 0 0-.44.189.7.7 0 0 1-.076.101c-.025.038-.038.075-.063.113l-.038.113a.636.636 0 0 0 0 .252z"/><path d="M17.877 5.776a.51.51 0 0 0 .063.113c.025.038.05.063.076.101a.302.302 0 0 0 .101.075c.038.025.076.038.113.063l.113.038a.636.636 0 0 0 .252 0l.113-.038a.508.508 0 0 0 .113-.063c.038-.025.063-.05.101-.075a.302.302 0 0 0 .076-.101c.025-.038.038-.076.063-.113l.038-.113a.762.762 0 0 0 0-.239l-.038-.113a.509.509 0 0 0-.063-.113c-.025-.038-.05-.063-.076-.101a.303.303 0 0 0-.101-.075c-.038-.025-.076-.038-.113-.063l-.113-.038a.387.387 0 0 0-.126-.013.47.47 0 0 0-.126.013l-.113.038a.51.51 0 0 0-.113.063c-.038.025-.063.05-.101.075a.641.641 0 0 0-.189.44.429.429 0 0 0 .013.126zM8.061 18.978c.038.025.075.038.113.063l.113.038a.635.635 0 0 0 .252 0 1.164 1.164 0 0 0 .113-.038.508.508 0 0 0 .113-.063c.038-.025.063-.05.101-.076a.637.637 0 0 0 .176-.566l-.038-.113a.513.513 0 0 0-.063-.113c-.025-.038-.05-.063-.075-.101a.699.699 0 0 0-.101-.076c-.038-.025-.075-.038-.113-.063l-.113-.038a.429.429 0 0 0-.126-.013.472.472 0 0 0-.126.013l-.113.038a.513.513 0 0 0-.113.063c-.038.025-.063.05-.101.076a.698.698 0 0 0-.076.101c-.025.038-.038.076-.063.113l-.038.113a.428.428 0 0 0-.013.126.59.59 0 0 0 .189.44.693.693 0 0 0 .101.076zM6.072 15.24c-.025-.038-.05-.063-.076-.101a.641.641 0 0 0-.44-.189.428.428 0 0 0-.126.013l-.113.038a.513.513 0 0 0-.113.063c-.038.025-.063.05-.101.076a.693.693 0 0 0-.075.101c-.025.038-.038.075-.063.113l-.038.113a.388.388 0 0 0-.013.126.59.59 0 0 0 .189.44.693.693 0 0 0 .101.076c.038.025.075.038.113.063l.113.038a.636.636 0 0 0 .252 0 .876.876 0 0 1 .101-.038.508.508 0 0 0 .113-.063c.038-.025.063-.05.101-.076a.637.637 0 0 0 .176-.566l-.038-.113a.513.513 0 0 0-.063-.113zm0 2.857c-.025-.038-.05-.063-.076-.101a.699.699 0 0 0-.101-.075c-.038-.025-.075-.038-.113-.063l-.113-.038a.386.386 0 0 0-.126-.013.426.426 0 0 0-.126.013l-.113.038a.51.51 0 0 0-.113.063c-.038.025-.063.05-.101.076a.699.699 0 0 0-.076.101c-.025.038-.038.076-.063.113l-.038.113a.429.429 0 0 0-.013.126.59.59 0 0 0 .189.44.699.699 0 0 0 .101.076c.038.025.075.038.113.063l.113.038a.636.636 0 0 0 .252 0 .366.366 0 0 0 .113-.025.508.508 0 0 0 .113-.063c.038-.025.063-.05.101-.076a.698.698 0 0 0 .076-.101c.025-.038.038-.076.063-.113l.038-.113a.844.844 0 0 0 0-.252l-.038-.113a.513.513 0 0 0-.063-.113zM18.546 12l2.466-2.466a4.629 4.629 0 1 0-6.546-6.546L12 5.454 9.534 2.988a4.629 4.629 0 1 0-6.546 6.546L5.454 12l-2.466 2.466a4.629 4.629 0 0 0 6.546 6.547L12 18.546l2.466 2.466a4.629 4.629 0 0 0 6.546-6.547zm-3.374-8.305a3.629 3.629 0 1 1 5.132 5.132l-2.466 2.466-5.132-5.132zM17.132 12L12 17.132 6.868 12 12 6.868zM3.695 8.827a3.629 3.629 0 1 1 5.132-5.132l2.466 2.466-5.132 5.132zm5.132 11.479a3.629 3.629 0 0 1-5.132-5.133l2.466-2.466 5.132 5.133zm11.478 0a3.636 3.636 0 0 1-5.132 0l-2.466-2.466 5.132-5.133 2.466 2.466a3.63 3.63 0 0 1 0 5.133z"/></svg>