<svg xmlns="http://www.w3.org/2000/svg" viewBox="0 0 24 24"><path d="M19.622 4.062a12.184 12.184 0 0 0-4.933-1.313v-.778a.491.491 0 0 0-.219-.402l.045-.015a6.021 6.021 0 0 1 4.506.359.5.5 0 1 0 .511-.859 6.917 6.917 0 0 0-5.334-.448l-5.008 1.63a.5.5 0 0 0 .31.951l1.894-.616v1.541a.476.476 0 0 0 .019.096 2.573 2.573 0 0 0-.386.394H8.2a2.503 2.503 0 0 0-2.5 2.5v8.365a1.983 1.983 0 0 0-1.55 1.931v1.95a1.982 1.982 0 0 0 3.964 0v-1.95A1.977 1.977 0 0 0 6.7 15.51V7.102a1.502 1.502 0 0 1 1.5-1.5h2.342c-.012.052-.019.106-.028.159a2.275 2.275 0 0 0-1.67 2.198v13.275a2.503 2.503 0 0 0 2.5 2.5h3.394a2.503 2.503 0 0 0 2.5-2.5V7.96a2.298 2.298 0 0 0-1.682-2.203 2.547 2.547 0 0 0-.888-1.54.477.477 0 0 0 .021-.104v-.359a11.203 11.203 0 0 1 4.391 1.149.493.493 0 0 0 .27.08.5.5 0 0 0 .271-.92zM7.114 17.398v1.95a.982.982 0 0 1-1.964 0v-1.95a.982.982 0 0 1 1.964 0zm7.484-11.224a1.563 1.563 0 1 1-1.563-1.562 1.565 1.565 0 0 1 1.563 1.563zm.912.63a1.292 1.292 0 0 1 .728 1.155v13.275a1.502 1.502 0 0 1-1.5 1.5h-3.394a1.502 1.502 0 0 1-1.5-1.5V7.96a1.279 1.279 0 0 1 .717-1.15 2.551 2.551 0 0 0 4.949-.005zm-3.117-3.192V2.471h1.296v1.141z"/></svg>