<svg xmlns="http://www.w3.org/2000/svg" viewBox="0 0 24 24"><path d="M17.371 14.292l-2.737-.62a.211.211 0 0 1-.116-.07l-1.168-1.409a1.2 1.2 0 0 0-.93-.437H8.695a1.202 1.202 0 0 0-.93.438l-1.799 2.174a1.209 1.209 0 0 0-.233 1.092l.295 1.062a1.209 1.209 0 0 0 1.163.886h.673a1.547 1.547 0 0 0 2.934 0h3.455a1.546 1.546 0 0 0 2.939-.018 1.199 1.199 0 0 0 1.119-1.189v-.73a1.2 1.2 0 0 0-.94-1.176zm-8.041 3.17a.557.557 0 1 1 .557-.557.557.557 0 0 1-.557.557zm6.389 0a.557.557 0 1 1 .557-.557.557.557 0 0 1-.557.557zm1.591-1.264a.195.195 0 0 1-.134.177 1.547 1.547 0 0 0-2.924.03h-3.455a1.547 1.547 0 0 0-2.934 0H7.19a.207.207 0 0 1-.199-.152l-.295-1.062a.21.21 0 0 1 .04-.188l1.799-2.173a.205.205 0 0 1 .159-.075h3.725a.206.206 0 0 1 .159.075l1.168 1.409a1.221 1.221 0 0 0 .663.407l2.739.62a.206.206 0 0 1 .161.201zm6.435 1.057C22.616 11.044 17.677 6.535 12 6.535S1.384 11.044.255 17.255a2.785 2.785 0 0 0 .594 2.292 2.419 2.419 0 0 0 1.85.895h18.604a2.42 2.42 0 0 0 1.85-.895 2.784 2.784 0 0 0 .593-2.292zm-1.361 1.651a1.423 1.423 0 0 1-1.082.535H2.698a1.423 1.423 0 0 1-1.082-.535 1.788 1.788 0 0 1-.378-1.472C2.281 11.698 6.807 7.535 12 7.535s9.719 4.163 10.762 9.899a1.788 1.788 0 0 1-.378 1.472z"/><circle cx="12" cy="4.774" r=".715"/></svg>