<svg xmlns="http://www.w3.org/2000/svg" viewBox="0 0 24 24"><path d="M21.723 4.077H18.52l-.334-.971a1.366 1.366 0 0 0-1.738-.849L2.68 6.998h-.833a1.499 1.499 0 0 0-.516.097V6.023a.947.947 0 0 1 .946-.946h2.97a.5.5 0 0 0 0-1h-2.97A1.948 1.948 0 0 0 .331 6.023v14.278a1.518 1.518 0 0 0 1.516 1.517h20.306a1.518 1.518 0 0 0 1.516-1.517V6.023a1.949 1.949 0 0 0-1.947-1.946zm.947 12.515h-4.306a1.475 1.475 0 0 1-1.473-1.474v-1.671a1.475 1.475 0 0 1 1.473-1.474h4.306zm-.947-11.515a.948.948 0 0 1 .947.946v1.071a1.499 1.499 0 0 0-.516-.097h-2.627l-.662-1.921zm-4.949-1.874a.356.356 0 0 1 .281.018.363.363 0 0 1 .187.211l1.228 3.566H5.751zM2.277 20.818a.947.947 0 0 1-.946-.946V8.514a.517.517 0 0 1 .516-.517h20.306a.517.517 0 0 1 .516.517v2.459h-4.306a2.476 2.476 0 0 0-2.473 2.474v1.671a2.476 2.476 0 0 0 2.473 2.474h4.306v2.28a.948.948 0 0 1-.947.946z"/><circle cx="18.811" cy="14.408" r=".715"/></svg>