<svg xmlns="http://www.w3.org/2000/svg" viewBox="0 0 24 24"><path d="M.542 23.463l1.55-5.695a11.458 11.458 0 1 1 4.143 4.141zM7.863 6.622a1.101 1.101 0 0 0-.425.115 1.482 1.482 0 0 0-.337.261 2.554 2.554 0 0 0-.299.351 3.128 3.128 0 0 0-.648 1.923 4.01 4.01 0 0 0 .378 1.62 10.95 10.95 0 0 0 2.259 3.143l.743.718a10.83 10.83 0 0 0 4.402 2.345l.652.1a6.231 6.231 0 0 0 .637-.015 2.281 2.281 0 0 0 .955-.265l.439-.252.143-.103a2.63 2.63 0 0 0 .378-.33 1.315 1.315 0 0 0 .241-.346 3.192 3.192 0 0 0 .215-.84 2.248 2.248 0 0 0 .016-.428.391.391 0 0 0-.218-.304l-.667-.299-1.606-.712a.571.571 0 0 0-.203-.047.553.553 0 0 0-.433.146V13.4a13.804 13.804 0 0 0-.911 1.069.401.401 0 0 1-.422.149 1.623 1.623 0 0 1-.219-.076l-.289-.125-.006-.002a6.889 6.889 0 0 1-1.8-1.146l-.416-.397a7.217 7.217 0 0 1-1.169-1.453l-.068-.109a1.058 1.058 0 0 1-.117-.235.367.367 0 0 1 .07-.304l.408-.47a5.02 5.02 0 0 0 .301-.428.694.694 0 0 0 .107-.614q-.481-1.176-.995-2.34a.581.581 0 0 0-.45-.285l-.186-.018a3.88 3.88 0 0 0-.462.005z"/></svg>