<svg xmlns="http://www.w3.org/2000/svg" viewBox="0 0 24 24" width="24" height="24"><path d="M1.115 23.39a.5.5 0 0 1-.482-.631l1.418-5.21A11.391 11.391 0 1 1 12 23.39h-.017a11.351 11.351 0 0 1-5.528-1.439l-5.208 1.421a.507.507 0 0 1-.132.018zm5.408-2.476a.5.5 0 0 1 .252.068 10.353 10.353 0 0 0 5.209 1.408h.016a10.384 10.384 0 1 0-8.98-5.162.501.501 0 0 1 .05.383l-1.243 4.566 4.564-1.246a.507.507 0 0 1 .132-.018zm8.216-3.213a3.54 3.54 0 0 1-.176-.004l-.702-.105a11.387 11.387 0 0 1-4.656-2.464l-.642-.615-.123-.123a11.443 11.443 0 0 1-2.362-3.291 4.508 4.508 0 0 1-.422-1.824 3.647 3.647 0 0 1 .751-2.23 2.944 2.944 0 0 1 .354-.41 1.903 1.903 0 0 1 .433-.333 1.612 1.612 0 0 1 .636-.178 4.419 4.419 0 0 1 .521-.007l.211.021a1.076 1.076 0 0 1 .858.581q.516 1.17 1 2.353a1.18 1.18 0 0 1-.145 1.067 5.517 5.517 0 0 1-.333.473l-.349.406.012.019.075.12a6.738 6.738 0 0 0 1.09 1.356l.113.11.288.272a6.379 6.379 0 0 0 1.67 1.063l.288.125.092.035.927-1.079-.001-.001a1.064 1.064 0 0 1 .827-.277 1 1 0 0 1 .349.085l1.607.712.672.302a.888.888 0 0 1 .513.742 2.65 2.65 0 0 1-.02.506 3.655 3.655 0 0 1-.26.995 1.805 1.805 0 0 1-.332.478 3.086 3.086 0 0 1-.44.385l-.17.122-.475.273a2.764 2.764 0 0 1-1.165.323l-.113.006-.4.014zM8.141 7.111l-.243.009-.003.001a.61.61 0 0 0-.232.063.967.967 0 0 0-.201.161 1.799 1.799 0 0 0-.225.258 2.692 2.692 0 0 0-.583 1.667 3.501 3.501 0 0 0 .334 1.418 10.426 10.426 0 0 0 2.156 2.993l.124.124.597.573a10.378 10.378 0 0 0 4.197 2.237l.601.089.421-.015.117-.006a1.767 1.767 0 0 0 .744-.207l.406-.233.108-.079a2.204 2.204 0 0 0 .32-.278.828.828 0 0 0 .151-.216 2.766 2.766 0 0 0 .17-.686 1.902 1.902 0 0 0 .016-.247l-.593-.266c0 0-.999-.435-1.609-.713a.504.504 0 0 1-.179.104l-.775.925a.888.888 0 0 1-.932.315 2.226 2.226 0 0 1-.29-.1l-.225-.097a7.516 7.516 0 0 1-2.005-1.262l-.328-.31-.105-.103a7.736 7.736 0 0 1-1.248-1.552l-.065-.105a1.524 1.524 0 0 1-.165-.336.871.871 0 0 1 .159-.789l.398-.458a4.282 4.282 0 0 0 .27-.384.346.346 0 0 0 .064-.17l-.986-2.316-.218-.007-.146-.003zm8.974 7.545v.005zm-3.934-.494l-.006.007zm1.306-.269h0zM7.863 6.622h0z"/></svg>