<?xml version="1.0" encoding="UTF-8"?>
<svg width="100px" height="39px" viewBox="0 0 100 39" version="1.1" xmlns="http://www.w3.org/2000/svg" xmlns:xlink="http://www.w3.org/1999/xlink">
    <title>logo</title>
    <g id="Page-1" stroke="none" stroke-width="1" fill="none" fill-rule="evenodd">
        <g id="logo" transform="translate(0.000000, -0.000000)" fill="#8334C2">
            <path d="M46.2444624,7.87141387 C47.5699272,7.87141387 48.382382,9.16900827 47.869372,10.3801072 L39.8303794,30.1026022 C38.2482476,33.9519918 35.8108831,37.1528758 33.8865285,38.3208404 C33.3307407,38.6663039 32.8174067,38.8396837 32.3470773,38.8396837 C31.4490992,38.8396837 30.636612,38.1908865 30.636612,37.1959778 C30.636612,36.5040786 30.8931818,35.9849113 31.4490992,35.6819016 C33.7154172,34.3415293 35.3831047,32.1787532 36.4094487,29.1515082 L28.2851596,10.3801072 C27.77202,9.12574432 28.5845073,7.87141387 29.9101341,7.87141387 C30.5938341,7.87141387 31.1497516,8.30395614 31.5350762,9.12574432 L38.1626919,24.5666639 C38.2910254,24.7829188 38.3759329,24.7829188 38.5049146,24.5666639 L44.533997,9.25550376 C44.8758956,8.34718768 45.4316835,7.87141387 46.2444624,7.87141387 Z M13.3515139,7.7914971 C15.0030949,7.47286702 16.7116806,7.42432066 18.4867664,7.73332572 C22.123952,8.38021088 24.5095942,10.5428574 25.0541042,13.9896816 C25.5026234,16.8280235 25.5981281,19.8115508 25.1971183,22.6499251 C24.5290711,27.274663 20.6538527,29.9395279 15.7856376,29.5146986 C14.0290565,29.3599206 12.3019337,28.896656 10.3928431,28.5390722 L10.39307,29.4225966 C10.3931348,29.5703098 10.3931996,29.7181526 10.3932968,29.8659305 L10.3939774,30.7511725 C10.3946255,31.4864328 10.3954357,32.2130727 10.3960515,32.9113885 L10.3969265,34.1337976 C10.3970885,34.5281963 10.3971209,34.9083357 10.3969589,35.2696788 L10.3963107,35.966439 C10.3956626,36.4126896 10.3945607,36.8206995 10.3928431,37.1807463 L10.3833477,37.1807463 C10.3543755,38.0589882 9.60031887,38.7635262 8.6837713,38.7635262 C7.76770984,38.7635262 7.02318103,38.0589882 6.98516709,37.1807463 L6.97567171,37.1807463 L6.97567171,37.1126906 C6.97375967,35.7399109 6.97301429,34.279307 6.97278744,32.7642586 L6.97275504,30.4547739 C6.97278744,30.0644262 6.97285226,29.6717127 6.97291707,29.2771519 L6.97294948,23.2843658 C6.97188003,20.0830605 6.96805595,16.9286811 6.95668094,14.0862558 C5.58208644,14.7523586 4.22654752,15.4477901 2.89996141,16.1715458 C1.74443157,16.7992133 0.79035941,16.6444677 0.265335672,15.7467165 C-0.29769974,14.8004189 0.0363203073,13.815686 1.257892,13.1399906 C4.50353401,11.411766 5.91611005,10.6683066 7.88223778,9.79939803 C8.12075663,9.70327753 8.38824774,9.64513856 8.67427592,9.65473117 C9.61930964,9.67394879 10.3928431,10.4270332 10.3928431,11.3252705 L10.3928431,13.9704316 C10.3643246,15.4862254 10.3833477,17.0116118 10.3833477,18.5274055 C10.3833477,20.4002646 10.4118663,22.2736098 10.3643246,24.1464689 C10.3448477,24.783729 10.5833665,25.1023915 11.1658905,25.3532576 C13.0464625,26.174106 15.0125903,26.5792315 17.0741904,26.4057544 C19.7563283,26.174106 21.4649141,24.7645114 21.7609237,22.1962532 C22.008938,20.1205559 22.0949473,17.986752 21.9139193,15.9110871 C21.627405,12.6670687 20.2528429,11.1897426 17.5227095,10.716853 C16.301143,10.4947971 15.1365812,10.5717 14.0005379,10.8326772 C13.8860424,10.8614875 13.7715469,10.8807375 13.6475236,10.8807375 C12.80749,10.8999551 12.0344426,10.1276531 12.0534334,9.28755473 C12.0724566,8.51525273 12.6069851,7.91691394 13.3515139,7.7914971 Z M92.046239,7.52562636 C94.5263813,7.52562636 96.5797175,8.13115961 98.1612011,9.38552246 C98.973656,10.0343197 98.9308781,11.2886501 98.3750903,11.8072017 C97.7765247,12.4992629 97.0068477,12.5857584 96.0660594,12.0234891 C94.6125851,11.1588907 93.2440184,10.7263484 91.9185536,10.7263484 C88.9250772,10.7263484 87.4285011,11.8509518 87.4285011,14.0996401 C87.4285011,15.526994 88.3265116,16.3920461 90.763552,17.0841072 L92.9442495,17.603145 L94.3128162,17.9491594 C98.1184233,18.9440033 100,20.9768904 100,24.0473669 C100,28.2429329 96.7074028,30.9678811 91.7046644,30.9678811 C88.5831786,30.9678811 86.0174806,30.1456069 84.0931261,28.5452296 C83.4093288,27.9829279 83.2806712,26.9016209 83.7509034,26.2100458 C84.3922468,25.3449937 85.2047017,25.2152343 86.1461382,25.8640315 C87.8987332,27.2048574 89.2245221,27.8104231 92.0041093,27.8104231 C94.868604,27.8104231 96.5797175,26.2965413 96.5797175,24.2203903 C96.5797175,22.706541 95.4243918,21.6689516 93.1581386,21.1066499 C91.1488766,20.630876 90.1225326,20.4145887 90.0797547,20.3713572 C86.0599343,19.3332492 84.0503482,17.3003622 84.0503482,14.2293996 C84.0503482,10.120329 87.3001675,7.52562636 92.046239,7.52562636 Z M67.6460199,7.87173795 C68.629262,7.87173795 69.3137074,8.65029459 69.3137074,9.55812455 C69.3137074,9.99066682 69.1850498,10.3799451 68.8856049,10.7692235 L62.3869385,19.1170915 L69.2284758,27.8970158 C69.5275966,28.1997986 69.6559301,28.5890769 69.6559301,29.0643646 C69.6559301,29.9299028 68.9290309,30.7512373 67.9454647,30.7512373 C67.3896769,30.7512373 66.9191207,30.5354685 66.5772221,30.1024401 L60.1631391,21.7988082 L54.2669272,30.1024401 C53.9247045,30.5354685 53.4544724,30.7512373 52.8555827,30.7512373 C51.8720165,30.7512373 51.1457655,29.9299028 51.1457655,29.0211007 C51.1457655,28.5890769 51.2734508,28.1997986 51.5728957,27.8970158 L58.4575349,19.0738276 L51.9154425,10.7264456 C51.6159976,10.4232091 51.48734,10.0344169 51.48734,9.55812455 C51.48734,8.69355853 52.2997949,7.87173795 53.1978054,7.87173795 C53.7535932,7.87173795 54.2241494,8.08802529 54.566048,8.52053515 L60.1200372,16.3488794 L66.1494437,8.5637991 C66.4916664,8.08802529 67.0046764,7.87173795 67.6460199,7.87173795 Z M76.5139952,7.82834437 C77.4975613,7.82834437 78.2672383,8.65016496 78.2672383,9.64497652 L78.2672383,28.9349617 C78.2672383,29.9730372 77.5403392,30.7511077 76.5139952,30.7511077 C75.6159846,30.7511077 74.8035298,29.9730372 74.8035298,28.9349617 L74.8035298,9.64497652 C74.8035298,8.65016496 75.530429,7.82834437 76.5139952,7.82834437 Z M78.0105713,0.64879736 C78.865804,1.47060822 78.865804,2.85423144 78.0105713,3.71930625 C77.1981165,4.58435838 75.8298738,4.58435838 75.0170949,3.71930625 C74.2046401,2.85423144 74.2046401,1.47060822 75.0170949,0.64879736 C75.8298738,-0.216265787 77.1981165,-0.216265787 78.0105713,0.64879736 Z" id="Shape"></path>
        </g>
    </g>
</svg>