<svg width="70" height="71" viewBox="0 0 70 71" fill="none" xmlns="http://www.w3.org/2000/svg">
    <g clip-path="url(#clip0_2031_18720)">
        <path opacity="0.3" d="M48.4747 67.0857L64.9438 57.5791C72.4403 53.255 71.4875 45.6225 62.8394 40.6179L50.9037 33.7287C42.2452 28.7346 29.0322 28.1797 21.5357 32.5142L5.05618 42.0208C-2.44025 46.3449 -1.48749 53.9774 7.16062 58.982L19.0963 65.8712C27.7549 70.8653 40.9783 71.4202 48.4747 67.0857Z" fill="#E3D4FF"/>
        <path d="M64.7135 41.7067L65.0799 38.6914L46.7367 49.2346L46.7996 49.5801L46.3912 52.2918L64.7135 41.7067Z" fill="url(#paint0_linear_2031_18720)"/>
        <path d="M44.3601 20.3794L30.7911 28.0643C30.5503 28.2004 30.6027 28.6716 30.676 28.9438L33.5971 40.0628C33.7018 40.4606 34.1415 40.6491 34.4975 40.4502L51.511 31.0168C51.8356 30.8388 51.9298 30.42 51.7204 30.1269L45.3652 20.7459C45.1768 20.4841 44.6428 20.2224 44.3601 20.3794Z" fill="url(#paint1_linear_2031_18720)"/>
        <path d="M10.8356 27.6777L6.26025 30.002L7.33865 32.8708L12.5736 29.7926L10.8356 27.6777Z" fill="url(#paint2_linear_2031_18720)"/>
        <path d="M38.1933 44.4492L33.618 46.6898L34.1205 50.26L39.3555 47.3494L38.1933 44.4492Z" fill="url(#paint3_linear_2031_18720)"/>
        <path d="M16.06 37.6972C16.06 35.4566 14.4791 32.7135 12.4898 31.5513C11.7464 31.1326 10.9926 30.965 10.4168 31.1326C10.2492 31.1326 8.34372 32.2109 8.34372 32.2947C7.84117 32.7135 7.5166 33.3731 7.5166 34.4515C7.5166 36.6921 9.09755 39.4352 11.0868 40.5973C11.9139 41.0999 12.6678 41.1836 13.3274 41.0161C13.4949 40.9324 15.3167 40.0215 15.6517 39.5189C15.8925 39.0268 16.06 38.4405 16.06 37.6972Z" fill="url(#paint4_linear_2031_18720)"/>
        <path d="M7.17108 34.6189C7.17108 36.8594 8.75203 39.6025 10.7413 40.7647C12.7306 41.9269 14.3115 41.016 14.3115 38.7754C14.3115 36.5349 12.7306 33.7918 10.7413 32.6296C8.75203 31.4675 7.17108 32.2946 7.17108 34.6189Z" fill="url(#paint5_linear_2031_18720)"/>
        <path d="M8.82532 35.4455C8.82532 36.6914 9.7362 38.2724 10.8146 38.932C11.893 39.5916 12.8039 39.0995 12.8039 37.7698C12.8039 36.5239 11.893 34.943 10.8146 34.2834C9.7362 33.6238 8.82532 34.1158 8.82532 35.4455Z" fill="white"/>
        <path d="M9.57916 35.8863C9.57916 36.5459 10.0817 37.4672 10.6576 37.8022C11.2439 38.1373 11.736 37.886 11.736 37.2159C11.736 36.5459 11.2334 35.635 10.6576 35.2999C10.0712 34.8811 9.57916 35.2162 9.57916 35.8863Z" fill="url(#paint6_linear_2031_18720)"/>
        <path d="M43.3969 53.3495C43.3969 51.109 41.8159 48.3658 39.8266 47.2037C39.0833 46.7849 38.3295 46.6174 37.7536 46.7849C37.5861 46.7849 35.6806 47.8633 35.6806 47.9471C35.178 48.3658 34.8535 49.0255 34.8535 50.1038C34.8535 52.3444 36.4344 55.0875 38.4237 56.2497C39.2508 56.7522 40.0046 56.836 40.6642 56.6685C40.8318 56.5847 42.6535 55.6738 42.9885 55.1713C43.2398 54.6792 43.3969 54.1033 43.3969 53.3495Z" fill="url(#paint7_linear_2031_18720)"/>
        <path d="M34.5079 50.2817C34.5079 52.5223 36.0889 55.2654 38.0782 56.4275C40.0674 57.5897 41.6484 56.6788 41.6484 54.4383C41.6484 52.1977 40.0674 49.4546 38.0782 48.2924C36.0889 47.1198 34.5079 47.9574 34.5079 50.2817Z" fill="url(#paint8_linear_2031_18720)"/>
        <path d="M36.1726 51.1096C36.1726 52.3555 37.0835 53.9364 38.1619 54.596C39.2403 55.2557 40.1512 54.7636 40.1512 53.4339C40.1512 52.188 39.2403 50.607 38.1619 49.9474C37.0835 49.2878 36.1726 49.7799 36.1726 51.1096Z" fill="white"/>
        <path d="M36.916 51.5484C36.916 52.208 37.4186 53.1293 37.9944 53.4644C38.5807 53.7994 39.0728 53.5481 39.0728 52.878C39.0728 52.208 38.5703 51.2971 37.9944 50.9621C37.4186 50.5433 36.916 50.8783 36.916 51.5484Z" fill="url(#paint9_linear_2031_18720)"/>
        <path d="M49.0401 49.4548C49.0401 48.8684 48.6213 48.7114 48.213 48.9522C47.7104 49.2035 47.3021 49.8631 47.3021 50.4494C47.3021 51.0357 47.7209 51.1928 48.1292 50.952C48.6318 50.7007 48.9564 50.0411 49.0401 49.4548Z" fill="white"/>
        <path d="M64.3261 40.471C64.3261 39.9685 63.9911 39.7276 63.499 40.0522C62.9964 40.3035 62.6719 40.9631 62.6719 41.4656C62.6719 41.9682 63.0069 42.209 63.499 41.8844C63.9178 41.6436 64.3261 41.0573 64.3261 40.471Z" fill="white"/>
        <path d="M46.7472 49.9154L46.7995 49.5699L46.7367 49.2244L65.0799 38.6812L52.3067 30.4205C52.3067 30.4205 45.1348 19.5842 45.1244 19.5842C45.1034 19.5528 45.072 19.5109 45.0301 19.49L31.0005 11.4386C30.1943 10.9779 29.2102 10.9779 28.404 11.4282L14.8455 19.0188L6.42773 25.2274L5.89377 25.5939C5.53779 25.8452 5.27605 26.2011 5.13994 26.6095L5.05618 26.8817C4.86772 27.4785 4.87819 28.1276 5.07712 28.7244L6.28116 32.2318L7.33861 32.8704C7.92492 31.3733 9.10802 30.7346 10.8565 31.7292C13.097 33.0589 14.9293 36.2208 14.9293 38.7964V38.8801L15.0968 39.3827L33.8797 50.1876L34.131 50.2714V49.7688C34.131 47.1932 35.9632 46.1148 38.2038 47.4445C40.3606 48.6904 42.109 51.601 42.2766 54.1766C42.5488 54.3756 42.8105 54.5745 43.0827 54.7629C43.512 55.077 43.9936 55.5586 44.4229 55.5586C44.5799 55.5586 44.8626 55.4435 45.2291 55.255C45.5641 55.077 45.941 54.8572 46.2551 54.6687C46.8833 54.2918 47.522 53.9253 48.1606 53.5589C48.9354 53.1087 49.7102 52.6585 50.4849 52.2188C51.333 51.7267 52.1706 51.2346 53.0186 50.753C53.8667 50.2609 54.7252 49.7688 55.5733 49.2767C56.369 48.8161 57.1542 48.3554 57.95 47.9052C58.62 47.5178 59.2796 47.1304 59.9497 46.743C60.4313 46.4708 60.9025 46.1881 61.3841 45.9159C61.6039 45.7903 61.8238 45.6541 62.0541 45.5285C62.0646 45.5285 62.0751 45.518 62.0751 45.518C62.5358 45.2563 62.9127 44.8794 63.1744 44.4187L64.703 41.8117C64.7135 41.7908 64.724 41.7594 64.7344 41.728L46.4122 52.313L46.7472 49.9154ZM33.3981 39.0686L30.8121 28.871C30.7178 28.494 30.8853 28.0962 31.2204 27.9077L44.0564 20.5998C44.4543 20.3694 44.9568 20.4951 45.2081 20.8824L51.1131 29.9389C51.3853 30.3577 51.2492 30.9335 50.799 31.1743L35.0105 39.791C34.3718 40.1156 33.5761 39.7701 33.3981 39.0686Z" fill="url(#paint10_linear_2031_18720)"/>
        <path d="M11.1078 25.9385C11.3276 25.3731 11.2229 24.8182 10.7727 24.5879C10.3225 24.368 9.76763 24.5879 9.5373 25.1533C9.31743 25.7186 9.42213 26.2735 9.87233 26.5039C10.3225 26.7237 10.8879 26.4934 11.1078 25.9385Z" fill="url(#paint11_linear_2031_18720)"/>
        <path d="M29.6918 28.3159L18.6775 21.9502C18.2273 21.6885 17.6514 21.7513 17.2745 22.0968L12.919 26.0544C12.3013 26.6093 12.427 27.604 13.1494 28.0018L13.5996 28.2426L32.1312 38.9638L32.2255 38.702C32.3825 38.2728 32.4035 37.8121 32.2988 37.3724L30.2571 29.0697C30.1734 28.7557 29.9745 28.4834 29.6918 28.3159Z" fill="white"/>
        <path d="M24.415 25.2702L22.8131 33.5728L22.1535 33.1959L23.7449 24.8828L24.415 25.2702Z" fill="url(#paint12_linear_2031_18720)"/>
    </g>
    <defs>
        <linearGradient id="paint0_linear_2031_18720" x1="-59.7932" y1="45.4905" x2="67.8794" y2="45.4905" gradientUnits="userSpaceOnUse">
            <stop stop-color="white"/>
            <stop offset="0.22" stop-color="#E3CEF2"/>
            <stop offset="0.7606" stop-color="#9F5AD2"/>
            <stop offset="1" stop-color="#842BC5"/>
        </linearGradient>
        <linearGradient id="paint1_linear_2031_18720" x1="26.3238" y1="30.4321" x2="138.281" y2="30.4321" gradientUnits="userSpaceOnUse">
            <stop stop-color="white"/>
            <stop offset="0.22" stop-color="#E3CEF2"/>
            <stop offset="0.7606" stop-color="#9F5AD2"/>
            <stop offset="1" stop-color="#842BC5"/>
        </linearGradient>
        <linearGradient id="paint2_linear_2031_18720" x1="4.17214" y1="30.2741" x2="17.8448" y2="30.2741" gradientUnits="userSpaceOnUse">
            <stop stop-color="white"/>
            <stop offset="0.22" stop-color="#E3CEF2"/>
            <stop offset="0.7606" stop-color="#9F5AD2"/>
            <stop offset="1" stop-color="#842BC5"/>
        </linearGradient>
        <linearGradient id="paint3_linear_2031_18720" x1="32.8661" y1="47.3543" x2="41.4905" y2="47.3543" gradientUnits="userSpaceOnUse">
            <stop stop-color="white"/>
            <stop offset="0.22" stop-color="#E3CEF2"/>
            <stop offset="0.7606" stop-color="#9F5AD2"/>
            <stop offset="1" stop-color="#842BC5"/>
        </linearGradient>
        <linearGradient id="paint4_linear_2031_18720" x1="1.59788" y1="36.0793" x2="18.7585" y2="36.0793" gradientUnits="userSpaceOnUse">
            <stop stop-color="white"/>
            <stop offset="0.22" stop-color="#E3CEF2"/>
            <stop offset="0.7606" stop-color="#9F5AD2"/>
            <stop offset="1" stop-color="#842BC5"/>
        </linearGradient>
        <linearGradient id="paint5_linear_2031_18720" x1="5.58249" y1="36.6874" x2="19.0901" y2="36.6874" gradientUnits="userSpaceOnUse">
            <stop stop-color="white"/>
            <stop offset="0.22" stop-color="#E3CEF2"/>
            <stop offset="0.7606" stop-color="#9F5AD2"/>
            <stop offset="1" stop-color="#842BC5"/>
        </linearGradient>
        <linearGradient id="paint6_linear_2031_18720" x1="8.14552" y1="36.5296" x2="12.025" y2="36.5296" gradientUnits="userSpaceOnUse">
            <stop stop-color="white"/>
            <stop offset="0.22" stop-color="#E3CEF2"/>
            <stop offset="0.7606" stop-color="#9F5AD2"/>
            <stop offset="1" stop-color="#842BC5"/>
        </linearGradient>
        <linearGradient id="paint7_linear_2031_18720" x1="28.9403" y1="51.7412" x2="46.1009" y2="51.7412" gradientUnits="userSpaceOnUse">
            <stop stop-color="white"/>
            <stop offset="0.22" stop-color="#E3CEF2"/>
            <stop offset="0.7606" stop-color="#9F5AD2"/>
            <stop offset="1" stop-color="#842BC5"/>
        </linearGradient>
        <linearGradient id="paint8_linear_2031_18720" x1="32.6361" y1="52.3494" x2="46.1437" y2="52.3494" gradientUnits="userSpaceOnUse">
            <stop stop-color="white"/>
            <stop offset="0.22" stop-color="#E3CEF2"/>
            <stop offset="0.7606" stop-color="#9F5AD2"/>
            <stop offset="1" stop-color="#842BC5"/>
        </linearGradient>
        <linearGradient id="paint9_linear_2031_18720" x1="35.4879" y1="52.1909" x2="39.3674" y2="52.1909" gradientUnits="userSpaceOnUse">
            <stop stop-color="white"/>
            <stop offset="0.22" stop-color="#E3CEF2"/>
            <stop offset="0.7606" stop-color="#9F5AD2"/>
            <stop offset="1" stop-color="#842BC5"/>
        </linearGradient>
        <linearGradient id="paint10_linear_2031_18720" x1="-5.66821" y1="33.3282" x2="71.0519" y2="33.3282" gradientUnits="userSpaceOnUse">
            <stop stop-color="white"/>
            <stop offset="0.22" stop-color="#E3CEF2"/>
            <stop offset="0.7606" stop-color="#9F5AD2"/>
            <stop offset="1" stop-color="#842BC5"/>
        </linearGradient>
        <linearGradient id="paint11_linear_2031_18720" x1="6.38911" y1="25.5409" x2="16.2473" y2="25.5409" gradientUnits="userSpaceOnUse">
            <stop stop-color="white"/>
            <stop offset="0.22" stop-color="#E3CEF2"/>
            <stop offset="0.7606" stop-color="#9F5AD2"/>
            <stop offset="1" stop-color="#842BC5"/>
        </linearGradient>
        <linearGradient id="paint12_linear_2031_18720" x1="14.9936" y1="29.2266" x2="38.8571" y2="29.2266" gradientUnits="userSpaceOnUse">
            <stop stop-color="white"/>
            <stop offset="0.22" stop-color="#E3CEF2"/>
            <stop offset="0.7606" stop-color="#9F5AD2"/>
            <stop offset="1" stop-color="#842BC5"/>
        </linearGradient>
        <clipPath id="clip0_2031_18720">
            <rect width="70" height="70" fill="white" transform="translate(0 0.0117188)"/>
        </clipPath>
    </defs>
</svg>
